<?xml version="1.0" encoding="UTF-8" standalone="no"?>
<svg
   xmlns:dc="http://purl.org/dc/elements/1.1/"
   xmlns:cc="http://creativecommons.org/ns#"
   xmlns:rdf="http://www.w3.org/1999/02/22-rdf-syntax-ns#"
   xmlns:svg="http://www.w3.org/2000/svg"
   xmlns="http://www.w3.org/2000/svg"
   xmlns:sodipodi="http://sodipodi.sourceforge.net/DTD/sodipodi-0.dtd"
   xmlns:inkscape="http://www.inkscape.org/namespaces/inkscape"
   version="1.1"
   id="svg1201"
   width="75"
   height="75"
   viewBox="0 0 161.06667 115.2"
   sodipodi:docname="AK.svg"
   inkscape:version="1.0.1 (3bc2e813f5, 2020-09-07)">
  <metadata
     id="metadata1207">
    <rdf:RDF>
      <cc:Work
         rdf:about="">
        <dc:format>image/svg+xml</dc:format>
        <dc:type
           rdf:resource="http://purl.org/dc/dcmitype/StillImage" />
        <dc:title></dc:title>
      </cc:Work>
    </rdf:RDF>
  </metadata>
  <defs
     id="defs1205" />
  <sodipodi:namedview
     pagecolor="#ffffff"
     bordercolor="#666666"
     borderopacity="1"
     objecttolerance="10"
     gridtolerance="10"
     guidetolerance="10"
     inkscape:pageopacity="0"
     inkscape:pageshadow="2"
     inkscape:window-width="1440"
     inkscape:window-height="877"
     id="namedview1203"
     showgrid="false"
     inkscape:zoom="5.7986113"
     inkscape:cx="80.533333"
     inkscape:cy="64.498202"
     inkscape:window-x="-8"
     inkscape:window-y="-8"
     inkscape:window-maximized="1"
     inkscape:current-layer="g1209" />
  <g
     inkscape:groupmode="layer"
     inkscape:label="Image"
     id="g1209">
    <path
       style="stroke-width:1.06667"
       d="m 1.9608783,112.18842 1.327882,-1.6 H 4.355427 5.4220937 l -1.327882,1.6 -1.3278821,1.6 H 1.6996629 0.63299623 Z m 22.9427107,-7.60542 2.108476,-1.54176 2.141073,0.34047 2.141074,0.34046 7.520204,-4.988898 7.520204,-4.988889 1.206329,-3.930576 1.206327,-3.930575 -1.5687,0.601967 -1.568699,0.601967 -1.8245,-0.959699 -1.824498,-0.9597 -3.894537,-1.689672 -3.894538,-1.689672 h -1.172129 -1.172129 v -3.805214 -3.805212 l -1.938088,0.615124 -1.938086,0.615125 -2.446145,-2.603801 -2.446144,-2.603801 -0.415855,-5.323973 -0.415855,-5.323972 3.466753,-3.521454 3.466753,-3.521454 2.666667,-0.205891 2.666666,-0.205893 3.2,-0.780423 3.200001,-0.780424 0.783666,-1.174368 0.783666,-1.174369 0.01633,-3.047455 0.01633,-3.047455 -1.866667,0.798313 -1.866667,0.798314 -2.666667,0.425368 -2.666666,0.425369 -3.466667,-2.160549 -3.466667,-2.160548 V 38.421425 36.62307 L 24.753429,34.699535 23.012653,32.776 l 3.074109,-1.219598 3.074109,-1.219599 3.40032,-0.813562 3.400319,-0.81356 2.385616,2.539371 2.385615,2.539371 h 1.280732 1.280732 l 0.02863,-2.933333 0.02862,-2.933333 -3.030425,-3.2 -3.030425,-3.2 -1.610273,-3.12352 -1.610267,-3.123519 0.541694,-0.876481 0.541695,-0.87648 h 2.195872 2.195872 l 4.266666,-4.2666668 4.266666,-4.266667 h 1.270638 1.270639 l 2.025854,-1.4813404 2.025853,-1.4813404 1.417746,0.5440402 1.417746,0.5440403 2.093606,-1.8946866 2.093605,-1.89468661 V 1.2038911 3.0833326 l 1.56584,-0.6008691 1.56584,-0.6008693 0.630445,1.0200811 0.630445,1.0200812 h 2.017379 2.017379 l 0.979943,1.7510597 0.979941,1.751059 2.959908,-0.565822 2.959909,-0.565822 3.718033,1.553494 3.718034,1.553493 4.395119,-0.262402 4.395119,-0.262402 2.32776,1.2558728 2.327757,1.255872 0.57832,1.867799 0.578312,1.867799 4.32223,27.733333 4.32223,27.733333 0.52535,2.4 0.52535,2.4 3.44635,0.02372 3.44634,0.02371 2.66667,2.085897 2.66667,2.085896 2.76801,0.02372 2.76801,0.02372 1.89958,-2.099011 1.89957,-2.09901 2.04482,1.09435 2.04481,1.09435 7.38669,6.968236 7.3867,6.968235 4.21772,0.565715 4.21772,0.565714 0.61556,2.452617 0.61557,2.45262 -0.6465,1.68476 -0.64651,1.684758 h -0.78132 -0.78133 l -1.26447,-2.775208 -1.26447,-2.77521 -1.57342,1.30581 -1.57341,1.30581 v -1.68079 -1.68081 l -2.83648,-1.916468 -2.83649,-1.916464 -3.56351,-3.675111 -3.56352,-3.675112 v 2.545649 2.54565 l -1.50908,-2.063781 -1.50906,-2.063782 0.83944,-0.54009 0.83945,-0.54009 -3.06372,-3.000375 -3.0637,-3.000377 v 3.800377 3.800375 h -1.73328 -1.73329 l -6.26671,-2.812335 -6.26672,-2.812333 -0.006,-0.654333 -0.006,-0.654332 -8.99922,-0.204759 -8.999228,-0.20476 -2.195241,-2.19524 -2.19524,-2.195241 -0.8,-0.149213 -0.8,-0.149212 -3.822044,-0.226978 -3.822044,-0.226979 0.380629,2.242858 0.380628,2.242857 -0.825251,1.159003 -0.825252,1.159003 -4.893715,2.840997 -4.893714,2.840997 H 71.467169 70.22755 l 0.07497,-2.933333 0.07498,-2.933333 0.784017,-1.995038 0.784017,-1.995038 3.141012,-1.384995 3.141013,-1.384995 -3.380249,-0.08663 -3.380249,-0.08663 -4.907664,6.133334 -4.907664,6.133333 0.51573,2.164242 0.515731,2.164242 -3.427818,2.647967 -3.427818,2.647966 -2.982904,1.527897 -2.982905,1.5279 -4.217096,3.609678 -4.217095,3.60968 v -0.55896 -0.55896 l -5.066667,1.41031 -5.066667,1.4103 -4.249549,0.0337 -4.24955,0.0337 2.108476,-1.54176 z m 124.002311,-3.36842 -2.89467,-1.756388 -0.58361,-1.52089 -0.58363,-1.52089 0.59263,-0.59262 0.59263,-0.59263 3.37778,3.37777 3.37778,3.377778 -0.49213,0.49213 -0.49211,0.49212 z M 59.56088,100.1591 v -0.829328 l 1.660484,-2.37068 1.660484,-2.37067 h 1.895071 1.895072 l 0.69679,0.69679 0.69679,0.69679 -3.392911,2.50321 -3.39291,2.503208 H 60.420314 59.56088 Z m 77.01724,-6.685853 -1.30199,-2.084824 h 1.10918 1.10919 l 0.63162,1.646004 0.63164,1.646005 -0.43883,0.43882 -0.43881,0.43882 z M 64.894213,92.648649 v -1.134323 l 1.137633,-0.703096 1.137633,-0.703096 0.488144,0.488144 0.488144,0.488144 -1.625777,1.349275 -1.625777,1.349275 z M 15.294212,70.05509 14.634976,68.988423 h 1.662951 1.662952 v 1.066667 1.066667 h -1.003716 -1.003715 z m -5.189743,-25.155076 -3.0564092,-2.687661 0.5949957,-0.594995 0.5949957,-0.594997 3.2739558,2.331262 3.273955,2.331262 -0.608826,0.985103 -0.608827,0.985102 -0.203715,-0.03371 -0.203715,-0.03371 z"
       id="path1215" />
  </g>
</svg>
