<?xml version="1.0" encoding="UTF-8" standalone="no"?>
<svg
   xmlns:dc="http://purl.org/dc/elements/1.1/"
   xmlns:cc="http://creativecommons.org/ns#"
   xmlns:rdf="http://www.w3.org/1999/02/22-rdf-syntax-ns#"
   xmlns:svg="http://www.w3.org/2000/svg"
   xmlns="http://www.w3.org/2000/svg"
   xmlns:sodipodi="http://sodipodi.sourceforge.net/DTD/sodipodi-0.dtd"
   xmlns:inkscape="http://www.inkscape.org/namespaces/inkscape"
   version="1.1"
   id="svg36"
   width="75"
   height="75"
   viewBox="0 0 45 45"
   sodipodi:docname="AZ.svg"
   inkscape:version="1.0.1 (3bc2e813f5, 2020-09-07)">
  <metadata
     id="metadata42">
    <rdf:RDF>
      <cc:Work
         rdf:about="">
        <dc:format>image/svg+xml</dc:format>
        <dc:type
           rdf:resource="http://purl.org/dc/dcmitype/StillImage" />
      </cc:Work>
    </rdf:RDF>
  </metadata>
  <defs
     id="defs40" />
    <style
       id="style6">zpath{fill-rule:evenodd}</style>
  </defs>
  <sodipodi:namedview
     pagecolor="#fffff"
     bordercolor="#666666"
     borderopacity="1"
     objecttolerance="10"
     gridtolerance="10"
     guidetolerance="10"
     inkscape:pageopacity="0"
     inkscape:pageshadow="2"
     inkscape:window-width="1440"
     inkscape:window-height="877"
     id="namedview38"
     showgrid="false"
     inkscape:zoom="20"
     inkscape:cx="22.5"
     inkscape:cy="39.74302"
     inkscape:window-x="-8"
     inkscape:window-y="-8"
     inkscape:window-maximized="1"
     inkscape:current-layer="g44" />
    <g
    inkscape:groupmode="layer"
    inkscape:label="Image"
    id="g1201">
    <path
       id="path1209"
       style="stroke-width:0.36667;"
       d="M 12.947266 0.58789062 C 12.909276 0.58789062 12.876953 1.3963549 12.876953 2.3847656 C 12.876953 3.9133098 12.79101 4.4165206 12.300781 5.7460938 C 11.983781 6.6058427 11.683912 7.3762994 11.632812 7.4589844 C 11.581714 7.54167 11.016229 7.3964799 10.376953 7.1367188 C 9.7376782 6.8769577 9.1759984 6.702908 9.1289062 6.75 C 9.0426469 6.8362595 7.9673833 14.349285 7.8945312 15.375 C 7.8696005 15.726009 8.1453219 16.433677 8.6523438 17.324219 C 9.0902533 18.093371 9.4472656 18.821526 9.4472656 18.941406 C 9.4472656 19.061285 8.6342317 20.500209 7.6386719 22.138672 L 5.828125 25.117188 L 5.828125 27.185547 L 5.828125 29.253906 L 4.7890625 30.306641 L 3.7519531 31.359375 L 8.0761719 33.865234 C 10.454918 35.24344 15.284293 37.840428 18.808594 39.634766 L 25.216797 42.896484 L 29.097656 43.576172 C 31.232326 43.950116 33.923418 44.320641 35.076172 44.400391 C 36.228925 44.48014 37.216374 44.558809 37.271484 44.574219 C 37.326595 44.589632 37.788027 40.336637 38.296875 35.123047 C 40.103032 16.617402 41.212899 4.874226 41.162109 4.8125 C 41.133791 4.7780849 35.851818 4.0340465 29.423828 3.1582031 C 22.995837 2.2823598 16.675113 1.3448659 15.376953 1.0761719 C 14.078794 0.80747785 12.985256 0.58789062 12.947266 0.58789062 z " />
    </g>
</svg>
