<?xml version="1.0" encoding="UTF-8" standalone="no"?>
<svg
   xmlns:dc="http://purl.org/dc/elements/1.1/"
   xmlns:cc="http://creativecommons.org/ns#"
   xmlns:rdf="http://www.w3.org/1999/02/22-rdf-syntax-ns#"
   xmlns:svg="http://www.w3.org/2000/svg"
   xmlns="http://www.w3.org/2000/svg"
   xmlns:sodipodi="http://sodipodi.sourceforge.net/DTD/sodipodi-0.dtd"
   xmlns:inkscape="http://www.inkscape.org/namespaces/inkscape"
   version="1.1"
   id="svg1052"
   width="75"
   height="69.46667"
   viewBox="0 0 158.93333 119.46667"
   sodipodi:docname="FL.svg"
   inkscape:version="1.0.1 (3bc2e813f5, 2020-09-07)">
  <metadata
     id="metadata1058">
    <rdf:RDF>
      <cc:Work
         rdf:about="">
        <dc:format>image/svg+xml</dc:format>
        <dc:type
           rdf:resource="http://purl.org/dc/dcmitype/StillImage" />
        <dc:title></dc:title>
      </cc:Work>
    </rdf:RDF>
  </metadata>
  <defs
     id="defs1056" />
  <sodipodi:namedview
     pagecolor="#ffffff"
     bordercolor="#666666"
     borderopacity="1"
     objecttolerance="10"
     gridtolerance="10"
     guidetolerance="10"
     inkscape:pageopacity="0"
     inkscape:pageshadow="2"
     inkscape:window-width="1440"
     inkscape:window-height="877"
     id="namedview1054"
     showgrid="false"
     inkscape:zoom="1.9769001"
     inkscape:cx="79.466667"
     inkscape:cy="59.733334"
     inkscape:window-x="-8"
     inkscape:window-y="-8"
     inkscape:window-maximized="1"
     inkscape:current-layer="g1060" />
  <g
     inkscape:groupmode="layer"
     inkscape:label="Image"
     id="g1060">
    <path
       style="stroke-width:1.06667"
       d="m 141.73738,118.31915 -0.59016,-0.95489 1.49368,-0.57317 1.49367,-0.57319 -4.96647,-5.32242 -4.96647,-5.32242 -4.01776,-1.63583 -4.01775,-1.63582 -1.96984,-4.595447 c -1.08341,-2.5275 -2.75542,-5.247429 -3.71557,-6.044286 l -1.74574,-1.448833 V 87.14345 84.074058 h -2.24746 -2.24745 l 0.61398,1.6 0.61397,1.6 h -1.38922 -1.38922 l -4.00063,-5.808729 -4.00063,-5.808731 1.32235,-3.656889 1.32236,-3.65689 -0.70897,-1.847521 -0.70896,-1.847522 -2.54552,0.638884 -2.54552,0.638886 -0.5876,-1.531278 -0.58761,-1.531278 0.55459,-7.261133 0.55457,-7.261133 -2.06335,-3.733333 -2.06335,-3.733334 -3.0815,-0.353012 -3.08149,-0.353011 -9.83998,-7.380323 -9.83998,-7.380321 h -2.23789 -2.23788 l -7.49786,5.866667 -7.49785,5.866667 H 48.83114 46.3454 l -0.64018,-2.017021 -0.64017,-2.017021 -5.031707,-2.163428 c -2.767435,-1.189885 -6.351702,-2.494262 -7.965035,-2.898615 l -2.933334,-0.735186 v -1.601065 -1.601064 l -3.466666,0.605604 c -1.906667,0.333082 -5.971654,1.017616 -9.033306,1.521188 L 11.068364,27.1497 9.1683357,28.782968 c -1.045015,0.898296 -2.551452,2.006386 -3.347637,2.462422 l -1.44761,0.829156 0.664404,-2.093352 0.664404,-2.093352 -2.260092,-5.109313 -2.260092,-5.109313 1.137321,-0.702904 C 2.9445607,16.579716 13.650802,14.651076 26.110681,12.680447 L 48.76501,9.097484 49.12179,10.16784 c 0.19623,0.588695 0.93947,1.843492 1.65165,2.788438 l 1.29487,1.718083 24,-3.09882 24,-3.09882 1.19661,1.548905 1.19662,1.548905 0.67638,-3.381909 c 0.37201,-1.86005 1.21231,-4.0276567 1.86732,-4.816904 l 1.19094,-1.4349949 h 3.33789 3.33789 l 2.29812,4.5333339 c 1.26396,2.493333 3.99567,8.133333 6.07047,12.533333 l 3.77236,8 6.46102,7.882159 c 7.1355,8.704974 7.44579,9.253259 4.27695,7.557348 l -2.18408,-1.168886 2.75539,5.437504 2.75539,5.437505 0.91693,-0.566688 0.91692,-0.566688 0.63288,1.649273 0.63289,1.649275 -1.32111,-0.796349 c -0.72662,-0.437992 -0.005,0.857077 1.60293,2.877933 1.60823,2.020854 5.5263,8.234282 8.70683,13.807615 l 5.78275,10.133334 0.67836,7.466667 c 0.37309,4.106667 0.71631,9.146671 0.76268,11.200001 l 0.0844,3.733327 -1.7961,6.07911 -1.79609,6.07912 -5.84676,2.18755 c -6.74093,2.52211 -6.52343,2.48537 -7.29765,1.23265 z m -2.56733,-71.578426 v -2.666667 l 0.53802,1.333334 c 0.2959,0.733333 0.2959,1.933333 0,2.666666 l -0.53802,1.333334 z"
       id="path1066" />
  </g>
</svg>
