<?xml version="1.0" encoding="UTF-8" standalone="no"?>
<svg
   xmlns:dc="http://purl.org/dc/elements/1.1/"
   xmlns:cc="http://creativecommons.org/ns#"
   xmlns:rdf="http://www.w3.org/1999/02/22-rdf-syntax-ns#"
   xmlns:svg="http://www.w3.org/2000/svg"
   xmlns="http://www.w3.org/2000/svg"
   xmlns:sodipodi="http://sodipodi.sourceforge.net/DTD/sodipodi-0.dtd"
   xmlns:inkscape="http://www.inkscape.org/namespaces/inkscape"
   enable_background="new 0 0 1000 589"
   viewBox="50 0 1e3 589"
   width="85"
   height="85"
   id="svg"
   inkscape:version="1.0.1 (3bc2e813f5, 2020-09-07)"
   sodipodi:docname="GP.svg"
   version="1.1">
  <metadata
     id="metadata58">
    <rdf:RDF>
      <cc:Work
         rdf:about="">
        <dc:format>image/svg+xml</dc:format>
        <dc:type
           rdf:resource="http://purl.org/dc/dcmitype/StillImage" />
      </cc:Work>
    </rdf:RDF>
  </metadata>
  <sodipodi:namedview
     pagecolor="#ffffff"
     bordercolor="#666666"
     borderopacity="1"
     objecttolerance="10"
     gridtolerance="10"
     guidetolerance="10"
     inkscape:pageopacity="0"
     inkscape:pageshadow="2"
     inkscape:window-width="1440"
     inkscape:window-height="877"
     id="namedview69"
     showgrid="false"
     inkscape:zoom="0.80893016"
     inkscape:cx="392.40667"
     inkscape:cy="261.02972"
     inkscape:window-x="1432"
     inkscape:window-y="-8"
     inkscape:window-maximized="1"
     inkscape:current-layer="svg"
     inkscape:document-rotation="0" />
  <defs
     id="defs4">
    <style
       id="style6">path{fill-rule:evenodd}</style>
  </defs>
  <path
     inkscape:connector-curvature="0"
     id="MO"
     data-name="Missouri"
     data-id="MO"
     d="m 905.36449,330.75129 -11.14716,-10.99955 -51.93794,3.45726 -52.7849,1.48265 -49.24513,-1.43839 v 0 l -0.32411,1.42483 5.32153,11.86172 5.29105,4.15973 5.80115,11.8898 0.90309,1.0154 2.28582,2.05882 5.51683,4.41362 6.24907,0.12503 3.00645,6.19172 -8.99686,9.82055 8.18403,8.17917 0.67853,4.85235 10.42648,6.86663 0.0583,101.79022 -0.12502,6.24908 0.11472,6.2631 -0.12503,6.24909 0.10068,6.50291 -0.12502,6.2491 11.31314,-0.0598 77.58351,-1.71565 91.88665,-3.5255 4.009,9.61923 -11.53409,16.16911 26.12398,-2.32114 0.23991,0.014 0.11228,-1.91845 1.12525,-11.00319 5.14709,-5.71453 -1.0459,-6.79884 -0.22585,-0.25394 -0.22586,-0.25395 1.14169,-3.06138 1.41075,0.56384 0.60719,1.96058 -0.282,0.70538 -0.014,0.23991 -0.11228,1.91847 0.94522,0.29606 2.05877,-2.28582 0.014,-0.2399 0.28199,-0.70539 6.45961,-3.47204 0.9873,-0.42347 3.3092,-19.53804 -0.4234,-0.98732 -0.7054,-0.28201 -16.21244,-14.90544 2.93263,-4.88162 -3.99617,-13.94982 -8.24013,-7.21993 -15.88597,-8.1487 -9.82058,-8.99682 2.20961,-17.19612 4.05788,-15.88477 -17.32242,-0.0513 -4.95299,-5.82439 -1.75247,-11.17158 -25.99085,-24.62172 -6.42475,-21.79216 2.53601,-10.43933 v 0 l -0.45153,-0.50768 z"
     style="stroke-width:2.47489" />
  <path
     inkscape:connector-curvature="0"
     id="KS"
     data-name="Kansas"
     data-id="KS"
     d="m 621.13975,564.47494 -6.05662,-102.47787 -10.9019,-6.29888 -0.96905,-4.84531 -8.72154,-7.75246 8.47926,-10.41736 -3.39169,-6.05662 -6.29888,0.24236 -5.81436,-4.11852 -2.42264,-1.9381 -8.23698,0.48451 -89.39559,3.39172 -40.9427,0.96905 h -81.40087 l -32.70571,-0.48453 -9.20605,-0.24236 v 4.60303 l -0.24236,14.29359 -2.66492,128.15791 v 4.84531 l 10.41739,0.24236 56.20535,0.72679 131.54963,-1.93813 93.75633,-4.36074 9.20606,-0.7268 -0.24236,-6.29887 z"
     style="stroke-width:2.49595" />
  <path
     inkscape:connector-curvature="0"
     id="TX"
     data-name="Texas"
     data-id="TX"
     d="m 296.95427,468.37688 -6.81661,-25.70438 v 4.82845 z m -1.56213,-45.1602 -4.82846,9.08884 -0.56804,2.98229 z m 3.83436,-6.67462 4.54442,-5.96456 -3.26631,1.98819 z m 16.04749,-14.48535 -10.65099,5.53851 2.98228,-0.56804 z m 1.42014,-1.98819 2.98227,-2.41422 -1.1361,0.28403 z m -168.42771,-238.29823 -0.99409,-0.14206 -4.82846,133.20841 -28.11863,-1.27812 -45.018197,-2.55623 -18.035673,-1.27812 3.550334,6.95865 0.142068,0.14206 15.337434,15.33742 8.804817,10.36698 11.645077,8.6628 8.236781,15.05341 3.124279,15.76347 6.67463,4.4024 5.25449,5.82255 7.5267,2.69825 10.93502,6.95865 4.97046,1.84619 6.81664,-6.81664 2.13021,-7.24269 3.55033,-6.95865 11.07703,-4.4024 4.26039,2.13019 12.35516,0.9941 11.21904,6.95864 7.66872,1.42014 -2.13021,3.97637 4.40242,2.84026 4.11838,4.97046 0.85208,5.25449 2.69825,3.55033 6.24858,15.05341 6.24858,5.2545 4.82846,7.95273 6.10657,6.24859 2.69825,0.85208 2.27221,16.1895 6.67464,3.69235 0.284,5.11248 1.70416,-0.42604 11.6451,14.20131 5.82255,1.27813 7.38469,4.40241 h 11.36105 l 8.23677,4.54441 9.7989,-2.13018 -4.40239,-4.11839 -3.97638,-11.9291 -1.56214,-10.36697 -2.27221,-3.40833 0.99408,-6.95865 -2.98227,-0.28402 -3.97638,-6.53261 4.54443,4.82846 5.25449,-1.84617 2.84026,-7.52671 -5.68053,-7.66872 8.52079,0.99409 3.97637,-6.10656 -0.56804,-2.1302 3.55033,-4.68644 -0.85208,4.11838 3.97637,-3.12429 -1.56215,-5.53851 5.11248,2.69825 6.53262,-3.69234 -6.39061,-6.67463 3.97637,1.56215 7.38471,0.42604 9.65689,-2.1302 10.79301,-7.24269 6.53261,-5.3965 0.99408,-3.97637 3.97638,-4.11838 -2.13021,-6.81664 0.42605,-4.26039 7.10066,-3.1243 -0.56806,7.52671 h 4.2604 l -4.68643,3.97636 18.88776,-9.94091 3.12429,-0.14207 1.98819,-9.08884 h 0.56805 l 2.1302,-5.25449 0.99409,-16.18951 1.27812,-6.5326 -3.69235,-11.64511 -4.54442,-7.95273 -0.14206,-3.83436 -4.68646,-6.5326 -2.84026,-27.40856 -0.14206,-3.40832 -0.28403,-3.55033 -0.85209,-12.49716 -8.52078,0.28402 -2.13021,-2.27221 -0.42604,-0.14206 h -0.14207 l -5.53852,-0.99409 -6.39059,-4.11839 -7.10067,-2.98226 -13.34924,3.83434 -3.55032,-0.85208 -4.40242,1.70417 -5.3965,4.40239 -14.48536,-6.81661 -4.54441,6.24857 -6.67463,-2.41423 -7.10067,-4.54442 -3.83434,3.26631 -3.69235,0.14206 v -2.69824 l -9.94094,-4.68645 -3.97637,1.84618 -1.98818,-2.27221 -10.93502,-1.1361 -8.37878,-7.66872 -1.27811,2.55625 -6.10658,-0.28404 -5.68053,-5.3965 -2.55623,-8.5208 -0.42604,-48.56853 -36.35541,-0.42604 -34.36719,-0.85208 h -0.85208 z"
     style="stroke-width:1.46311" />
  <path
     d="m 474.29666,213.24414 85.6575,-0.11044 38.44299,0.0293 0.0931,-23.09704 57.27133,0.25239 3.07836,2.0948 0.93437,3.62688 -4.03544,1.80528 1.08513,5.93894 4.62426,4.20883 5.25009,2.73251 -1.44362,4.44847 0.93905,3.56514 4.05595,0.47878 6.64768,7.90541 6.72001,0.61666 -1.56651,6.91105 -2.39284,1.66456 5.5925,5.76403 1.05703,4.19664 4.65654,2.10865 -4.04491,9.26751 3.27231,3.23601 -5.13114,0.91351 2.78743,5.75222 -2.34484,2.87152 0.58425,3.32745 3.46313,2.77465 -1.04794,5.21659 4.42253,2.81369 3.09998,-3.77595 4.37121,3.39035 -1.45783,4.86868 8.81303,1.04891 1.55189,1.50166 -2.26012,7.16603 -65.31547,-0.006 5.68631,3.32918 2.06171,6.32334 6.99895,6.06734 -1.83955,3.71737 5.39339,7.14122 1.29777,7.6529 -3.52661,3.91673 2.5307,4.60426 4.27277,2.85456 4.35417,0.42943 4.89064,2.80706 7.90493,-2.72726 4.27571,-3.78195 6.5814,-2.08113 6.36125,0.53894 -0.004,-7.01659 2.2692,-3.78196 -2.84128,-5.12844 17.72072,0.29465 -2.12372,5.43854 2.39404,6.82582 -2.07473,4.30923 2.17357,1.70302 -0.20994,5.16688 4.31686,3.06451 -1.46657,3.98228 3.46101,6.83823 -4.38237,2.44439 1.30057,3.55791 0.0347,7.22725 -4.06097,2.06643 -2.32337,3.41227 5.66027,6.67286 6.54542,2.2228 4.46096,8.17013 -2.64634,2.36521 1.84086,6.1803 -58.52916,0.0542 -57.78535,-0.0356 -25.22645,-0.0669 -0.10507,-21.40103 -55.84734,-0.0831 0.0346,-42.76228 -56.45135,0.0462 -0.0399,-15.82706 7.64475,-7.29232 13.19066,-8.59021 7.40884,-1.52047 -0.06,-9.55531 -12.89922,0.0251 0.017,-16.19537 -15.49595,0.0763 -0.29367,-26.52446 z"
     id="NE-1"
     style="stroke-width:0.320207" />
  <path
     d="m 644.41921,33.634458 123.56793,0.10313 174.93652,0.0115 42.31938,-0.0865 6.02171,11.7225 -1.08904,6.53166 -16.52774,9.93206 2.36962,5.95508 17.55337,11.340739 23.70254,1.9859 6.7271,4.22803 4.2914,10.69817 -6.9826,9.224783 -12.8763,5.12422 -6.4061,-3.90896 5.253,-8.968573 -1.025,-4.73857 -13.83715,1.60149 -0.76938,10.888473 9.41763,6.4074 -4.67709,8.26385 6.34199,13.13249 -2.3696,9.60918 -7.94355,13.32467 2.73623,7.14398 -55.03822,0.22176 6.99356,8.30426 1.81743,14.23047 6.0153,4.22611 0.71108,12.70268 11.6604,1.54323 -9.28116,5.35166 -14.93135,0.1371 0.0217,36.61343 -18.97618,-3.22549 -14.21772,0.41321 -11.14083,4.68282 -23.2016,6.17679 -13.69627,10.90127 -8.61491,8.83335 -41.24887,14.23115 -6.31389,0.68866 -8.98199,-4.19407 -4.99545,-8.03646 -5.22865,-3.10567 -22.72056,-2.24084 -9.87116,-4.00767 -12.42463,-10.8878 -3.64699,-9.01211 -9.55853,-15.01333 4.44263,-10.96726 13.95955,-9.47079 -5.06851,-9.28178 1.96155,-9.64757 -3.66493,-21.00434 -6.98076,-12.05115 -11.61359,-5.53234 -6.85584,-9.62708 -2.69312,-10.05308 9.46501,-13.66804 0.13393,-5.72966 -6.38562,-9.74941 -9.62645,-10.374043 -20.50915,-11.53677 0.40682,-12.616189 -5.2351,-13.98322 -5.93011,-6.39648 -9.74946,-2.56757 -12.01079,-5.97755 z"
     id="NE-2"
     style="stroke-width:0.481044" />
  <path
     inkscape:connector-curvature="0"
     id="IA"
     data-name="Iowa"
     data-id="IA"
     d="m 487.95131,70.210119 -15.14744,-7.98684 -8.26227,-11.291738 -2.75407,-16.249073 2.20328,-7.436037 -7.98684,-9.639289 v 0 l -13.49502,1.377053 -135.50082,11.291742 -54.25543,3.029478 -13.7704,0.826226 -5.78358,0.275513 4.68196,30.570325 -3.85573,14.59664 6.05898,9.08847 v 1.92785 l 1.92785,0.27551 8.81307,25.888391 8.53766,13.49499 0.55083,15.42288 9.36386,12.94416 -1.65246,5.50816 8.53767,34.70145 v 0.82623 0 l 56.45868,-1.65245 60.31439,-5.23276 59.21276,-7.43604 13.49502,11.84257 0.5508,0.5508 2.47868,-1.10163 -1.92786,-10.74091 10.19009,-6.33438 4.13113,-28.09165 -4.13113,-1.92785 2.47868,-14.32122 12.39337,-2.47868 13.77042,-9.91469 6.05898,-17.35072 0.27552,-8.81306 -11.01632,-10.465521 -3.3049,-6.60978 -10.46552,-6.60981 0.55083,-1.37703 0.27551,-1.37705 z"
     style="stroke-width:2.83741" />
</svg>
