<?xml version="1.0" encoding="UTF-8" standalone="no"?>
<svg
   xmlns:dc="http://purl.org/dc/elements/1.1/"
   xmlns:cc="http://creativecommons.org/ns#"
   xmlns:rdf="http://www.w3.org/1999/02/22-rdf-syntax-ns#"
   xmlns:svg="http://www.w3.org/2000/svg"
   xmlns="http://www.w3.org/2000/svg"
   xmlns:sodipodi="http://sodipodi.sourceforge.net/DTD/sodipodi-0.dtd"
   xmlns:inkscape="http://www.inkscape.org/namespaces/inkscape"
   enable_background="new 0 0 1000 589"
   viewBox="50 0 1e3 589"
   width="85"
   height="85"
   id="svg"
   inkscape:version="1.0.1 (3bc2e813f5, 2020-09-07)"
   sodipodi:docname="GP.svg"
   version="1.1">
  <metadata
     id="metadata58">
    <rdf:RDF>
      <cc:Work
         rdf:about="">
        <dc:format>image/svg+xml</dc:format>
        <dc:type
           rdf:resource="http://purl.org/dc/dcmitype/StillImage" />
      </cc:Work>
    </rdf:RDF>
  </metadata>
  <sodipodi:namedview
     pagecolor="#ffffff"
     bordercolor="#666666"
     borderopacity="1"
     objecttolerance="10"
     gridtolerance="10"
     guidetolerance="10"
     inkscape:pageopacity="0"
     inkscape:pageshadow="2"
     inkscape:window-width="1440"
     inkscape:window-height="877"
     id="namedview69"
     showgrid="false"
     inkscape:zoom="6.4714413"
     inkscape:cx="48.383538"
     inkscape:cy="41.127148"
     inkscape:window-x="1432"
     inkscape:window-y="-8"
     inkscape:window-maximized="1"
     inkscape:current-layer="svg"
     inkscape:document-rotation="0" />
  <defs
     id="defs4">
    <style
       id="style6">path{fill-rule:evenodd}</style>
  </defs>
  <path
     inkscape:connector-curvature="0"
     id="MT"
     data-name="Montana"
     data-id="MT"
     d="m 736.82578,-146.2862 -65.03657,11.54388 -47.68612,7.05537 -47.73143,6.04107 -29.75816,3.24468 -47.77432,4.20581 -23.95875,1.81293 -53.85523,2.83571 -5.69912,0.17641 1.42332,41.488023 5.43875,6.245824 5.62,10.302979 -1.35803,1.976027 6.15461,9.145519 6.07608,3.012056 20.223,20.439228 2.35539,3.725495 5.70395,-1.818344 1.06083,33.373701 -2.51548,1.441393 -1.04811,11.53898 19.47206,-3.371529 3.74185,8.510614 17.36376,23.811347 2.31492,1.069246 11.35716,13.603806 1.55133,-2.02373 15.99726,-4.154519 20.82284,-2.8846 3.40351,-7.813481 8.66528,9.346065 1.30305,0.293592 -0.0929,-1.207601 -1.97062,-19.612845 68.11751,-8.202579 54.01531,-8.002613 28.40979,-4.552545 50.39733,-9.365459 2.56081,-0.427022 0.57995,-0.143176 -0.47475,-2.754118 -2.71305,-13.48180017 -3.56967,-17.78238283 -0.90427,-4.493956 -1.52234,-7.827965 -11.89244,-61.463909 -9.13168,-47.788811 -1.71559,-7.78027 -3.72067,0.71345 z"
     style="stroke-width:2.05142"
     inkscape:transform-center-x="-10.907653"
     inkscape:transform-center-y="19.997364" />
  <path
     inkscape:connector-curvature="0"
     id="AK"
     data-name="Alaska"
     data-id="AK"
     d="m 215.52375,682.5798 -1.18858,0.47542 0.95088,0.2378 0.23781,-0.71315 z m 8.79548,1.42629 v 0 0.23782 z m -4.27888,-4.04116 v 0.71313 l 0.47543,-0.2378 -0.47543,-0.47544 z m -2.13944,-1.18857 v -0.23781 0 z m 4.51658,2.37715 v -0.47545 l -0.23781,0.23781 0.23781,0.2378 z m -0.47544,-0.47545 v -0.2378 h -0.47541 z m -185.417752,-156.1788 -0.237707,1.66402 0.47543,4.7543 -0.237707,-6.41832 z m -1.188574,-6.4183 0.237708,2.13944 0.237707,-0.71315 -0.475429,-1.42629 z m 186.606326,159.74455 0.23781,-1.42629 -0.95085,0.4754 0.71311,0.95089 z m 27.09954,11.64803 -0.23781,-0.23781 0.47542,0.95085 -0.23781,-0.71315 z m -17.59092,-8.32003 -2.61485,-2.37715 v 5.70515 z m 5.94289,5.22973 -0.23781,-1.664 -4.04115,-0.2378 4.27889,1.90173 z m 14.26288,3.32801 -0.2378,0.47544 h 0.47543 l -0.2378,-0.47544 z m 0.95088,0.2378 h -0.47544 l 0.95085,0.23781 z m 2.85257,0.95088 h -0.23781 -0.2378 0.4754 z M 45.557475,529.7291 l 0.95085,0.2378 0.713147,-0.2378 z m 204.672695,157.8428 -1.90173,-0.2378 0.71315,0.71315 1.18858,-0.47545 z M 32.720857,511.18732 l -3.32801,-1.42629 -0.237707,0.71314 3.565727,0.71315 z m 223.452173,176.86002 -0.47541,-0.23781 v 0.23781 z m 14.50062,2.85259 -9.27088,0.71315 -2.13944,0.95085 z M 15.843087,473.86605 h -2.614868 l 0.475433,0.71314 z M 299.43718,701.83482 v -0.95085 h -0.47541 z m 12.36118,0.2378 0.47544,-0.47541 -0.47544,-0.47544 z m 9.27091,2.61488 0.47542,-0.23781 h -0.23782 l -0.23779,0.23781 z m -7.60688,-4.27888 -0.23781,-0.95085 h -0.47542 l 0.71315,0.95085 z m 15.92688,3.56573 -0.2378,0.23781 h 0.2378 z M 17.269376,461.74268 l -3.565724,0.47544 4.516585,4.04115 z m 299.521004,238.66594 0.47545,-1.4263 h -0.23781 l -0.2378,1.4263 z m 40.17387,-3.56571 0.2378,-0.47543 -0.47545,-0.23782 0.23782,0.71315 z m -5.94289,-2.13944 -8.32003,7.36915 5.94288,-0.47541 6.89374,-5.46745 z m 14.97606,2.61486 -1.66402,-0.47542 1.18858,0.95085 z m 3.32801,0.2378 -2.61489,-0.71313 -0.47542,0.23781 3.09031,0.47542 z m -9.03319,-3.328 h -2.61485 l 4.51659,1.18858 z m 10.93489,2.37715 -0.2378,-0.47542 -0.95086,0.23781 1.18856,0.2378 z m -7.13145,-2.85259 -0.95085,-0.47542 v 2.61486 z m 30.42753,5.94288 -0.23779,-0.2378 h -0.47545 l 0.71315,0.2378 z m 0.47545,-0.2378 v -0.23781 l -0.47545,-0.2378 0.47545,0.47543 z m -4.04118,-1.4263 0.47544,0.95085 v -0.2378 l -0.47544,-0.71314 z m 2.13944,0 -2.13944,-0.71314 2.61488,1.90172 z m 3.0903,-2.37714 v 0 0.2378 z m 28.2881,3.56572 -0.47542,-0.95087 h -0.23781 l 0.71314,0.95087 z m 255.78143,-15.92691 -0.47543,-0.47543 0.2378,0.47543 h 0.23781 z m -288.11068,7.36916 v -0.23781 l -0.2378,0.23781 z m 295.00442,-11.64803 0.71315,0.95085 h 0.47544 z m -259.82259,17.82864 -0.23781,0.23781 v 0.71315 l 0.23781,-0.95087 z m -29.47668,-4.27888 0.47545,-1.90173 h -0.23782 l -0.2378,1.90173 z m 303.08674,-19.01721 -2.13944,1.18859 1.90174,0.95085 0.2378,-2.13944 z m -298.80786,17.82863 -0.23781,-0.47542 z m -17.82862,-5.22975 -5.94288,1.18859 -5.22973,6.89374 z m 42.55098,9.03319 -1.42627,1.18859 1.42627,-0.23782 v -0.95087 z m 274.0855,-22.82066 -0.47542,-0.95085 -0.2378,0.47544 0.71315,0.47541 z m -296.90615,16.64006 -1.664,-0.2378 1.664,1.664 v -1.4263 z m 281.21697,-13.54976 -0.47544,0.47543 0.47544,1.66401 z m -277.41352,13.31206 -0.71313,0.23781 0.95085,0.71314 -0.2378,-0.95086 z m 17.59093,4.992 h -0.71315 l -0.47544,-0.47542 z m -19.49265,-4.992 -1.18859,-0.71315 0.47545,0.71315 z m 15.92692,2.61486 -2.13944,0.71314 -1.4263,3.80344 z m 258.15858,-16.64004 v 1.664 l 0.95085,-1.18859 z m -286.20897,9.03315 1.90174,-0.47542 h -0.23782 l -1.66399,0.47542 z m -2.37715,-1.4263 -0.47544,-0.4754 v 0.2378 l 0.47544,0.23781 z m 288.58612,-9.27088 -0.47544,-0.2378 -0.2378,0.71314 0.71315,-0.47544 z m -260.77347,14.26291 -0.47541,-0.2378 -0.47544,0.71315 0.95085,-0.47544 z m 258.39633,-13.78747 0.2378,-1.18859 -0.47543,-0.2378 0.2378,1.42629 z m -1.90174,-1.18859 -0.71315,0.95089 1.18859,0.2378 -0.47544,-1.18858 z m -246.51053,11.64806 -0.47543,-0.47544 h -0.23781 l 0.71314,0.47544 z m 245.79738,-15.92691 1.90174,0.71315 0.71315,-0.95089 -2.61489,0.23782 z m 2.85259,-1.66401 -0.71314,0.47542 1.18859,0.71315 z m -5.46743,1.42627 -0.47545,-0.95085 -0.47544,0.47545 z m 23.77149,-8.79544 -3.09029,8.79544 3.09029,-1.9017 z m -281.69238,18.30406 h -0.23781 v 0 z m 260.77344,-14.97605 -2.13941,2.13944 0.47541,2.37714 z m -221.31273,19.0172 v -0.95085 l -0.2378,0.47543 z m 218.69788,-21.39436 6.89373,10.45948 15.45148,9.74632 -3.56571,-8.32003 -14.73836,-12.59892 z m -228.20647,17.59092 -0.2378,-0.71314 -0.47542,0.2378 0.71314,0.47542 z m 236.28879,-21.63206 -0.95087,3.56573 1.66402,-1.18859 z m 4.99201,0 -0.23782,2.37714 2.13944,0.71315 -1.90172,-3.09029 z m -233.67394,18.54176 -1.18856,-0.2378 -1.1886,0.47544 2.37716,-0.23781 z m 24.48467,1.90174 -0.95088,1.664 0.47545,-1.4263 0.47543,-0.2378 z m 3.56571,0.2378 -2.13944,0.23781 1.18859,1.42629 0.95085,-1.66399 z m -144.05533,-30.42752 2.37714,1.18857 -0.47542,-0.47543 z m 94.37289,23.53379 0.2378,-0.23781 z m 0.71314,-0.23781 h 0.2378 v -0.2378 z m 245.79741,-18.30406 1.18856,4.51658 2.37715,-1.42628 z m -239.37911,15.68918 0.2378,-0.23781 v 0 z m 229.15735,-13.78747 1.18858,10.93489 2.37716,-2.37715 z m 1.18858,-3.56573 5.46745,7.60687 -0.71315,-4.99199 z m -16.87777,1.90173 -1.42629,4.51659 1.90171,-3.09029 z m -190.17207,11.64803 -0.23781,-0.23781 z m 22.58294,0.47544 -0.47544,-0.71315 0.47544,0.95086 v -0.23781 z m 168.06455,-15.6892 9.50862,15.6892 -1.4263,-10.69717 z m -154.75252,8.32002 -0.71315,0.71315 1.18859,0.47544 z m -3.09029,0.47545 0.23781,-0.71315 h -0.95086 l 0.71314,0.71315 z m -2.37715,0 -6.18059,4.04114 -7.60688,9.98403 3.80344,4.04118 17.59091,-13.07435 z m 149.99823,-15.45149 -1.66401,-0.95087 v 1.42629 z m -151.42452,12.5989 0.2378,0.95085 1.66403,0.95087 -1.90174,-1.90172 z m 155.9411,-17.11548 -4.7543,2.37715 4.51656,1.42629 0.23781,-3.80344 z m -3.09029,0 -0.47544,-0.47543 -0.23781,0.47543 h 0.71314 z m 14.50062,-3.80344 -1.90174,-0.71315 -0.47542,1.4263 z m -10.22177,1.664 -1.664,-0.2378 v 0.47543 l 1.664,-0.2378 z m 5.22974,-1.90173 9.74632,14.26291 -2.61485,-13.07433 z m -156.89197,15.4515 -5.70515,4.27885 2.61486,2.85259 7.60689,-5.70517 z m -64.6585,-9.03318 -0.2378,-0.23781 v 0.23781 z m -2.61485,-1.18859 -0.23781,-1.18856 v 0.47542 z m 72.97853,3.0903 -0.47543,0.23781 v 0.2378 l 0.47543,-0.47545 z m -2.37714,-0.47542 h -0.23782 l -0.4754,0.71314 0.71314,-0.71314 z m 5.70515,-1.90173 -0.71315,-0.47544 v 0.23781 l 0.71315,0.2378 z m 1.90172,-0.23781 -0.71314,-0.47543 v 0.2378 l 0.71314,0.23781 z m -3.09029,-0.71315 h -0.95087 v 0.23781 z m 47.3053,-4.75429 0.23781,-0.71314 -0.47544,0.4754 0.23781,0.23782 z m 14.50062,-7.60689 2.85256,-3.56573 -0.95085,0.71315 z m -29.00124,-0.47543 0.95086,-0.71314 0.2378,-0.95087 -1.18855,1.66401 z m 0,-2.61486 -0.95088,0.71313 1.66403,-0.47542 -0.71315,-0.2378 z m -38.98529,0 -0.23781,-0.95087 h -0.2378 l 0.47541,0.95087 z m 38.03441,-0.2378 -0.95085,0.95085 -0.47542,0.95088 z m 26.14868,-2.85258 h 0.23781 0.2378 -0.47541 z m 1.18857,0 -0.47542,-0.23782 v 0.23782 z m -2.85257,-0.23782 0.2378,0.23782 v -0.23782 z m -19.49265,1.4263 0.95085,-0.95085 -1.18855,0.95085 h 0.2378 z m 14.50062,-2.85259 z m -11.64803,0.71315 -5.70517,9.27088 7.36917,-8.55774 z m -7.36917,1.18859 -0.71315,-0.95087 -0.23781,0.47542 0.95086,0.47545 z m 18.06635,-2.13944 -0.47544,-0.23781 0.2378,0.23781 h 0.23781 z m 6.18059,0.47544 v -1.66403 l -0.47545,0.71314 z m -174.48287,-18.30407 -11.41033,-0.47543 7.8446,8.32002 z m 162.35939,16.87778 0.47544,1.66399 1.18857,-1.90173 -1.66401,0.23781 z m -9.50861,-0.23782 -0.71315,5.22974 1.18859,-3.328 z m -206.33667,-39.46068 0.2378,-0.95088 v 0 z m 203.95952,36.13268 0.23781,0.71314 0.47541,-0.2378 -0.71315,-0.47544 z m -1.18857,0.95086 -0.47543,-1.42629 -0.71314,0.47543 z m 11.17261,-2.85256 v -0.95088 l -0.71315,0.47543 z m -10.69719,-1.4263 v 2.37715 l 0.71315,-1.664 z m -18.06633,-2.85259 v -0.71314 0 z m -124.08727,-29.47668 0.47542,-1.42629 -0.23781,0.23781 -0.2378,1.18855 z m 0.71314,-2.37714 -0.2378,-0.2378 -0.23781,0.2378 h 0.47545 z m 10.45945,-5.70516 v -0.23779 0 z m 0,-0.95087 -0.2378,-0.47542 v 0 z m 4.27888,-6.18059 v 0 h -0.2378 z m 1.42629,0.47544 -0.95085,-0.47544 v 0.23781 l 0.95085,0.2378 z m -1.42629,-0.95085 v -0.47545 l -0.47543,0.47545 z m -38.03441,-11.17263 -0.47542,-1.18857 -0.2378,-0.71313 0.71315,1.9017 z m 3.56573,-4.27888 h 0.2378 l 0.23781,0.23781 -0.47542,-0.23781 z m -6.41832,-1.18855 -1.90171,-2.37716 1.42629,1.90171 z m -3.80344,-3.80345 h -0.47542 l 0.71315,0.23781 -0.2378,-0.23781 z m 0.47543,-2.61488 z m -0.47543,-0.23781 v 0 l 0.47543,0.23781 z m 62.99451,18.7795 -2.61486,0.23782 1.42629,0.71314 1.18857,-0.95086 z m -65.60937,-23.05838 -1.90174,7.13147 5.94289,0.95086 7.84462,8.08232 4.75429,-2.13944 z m 41.60015,2.85259 v -0.47541 0.2378 0.23781 z m -11.88576,-25.19779 -0.47545,-0.23781 0.23781,0.23781 h 0.2378 z m 6.89374,2.37715 0.71315,-0.23782 h -0.23782 l -0.47544,0.23782 z m 4.75429,-1.4263 h 0.71314 l 2.13945,-0.95085 z m 8.55776,-2.61486 0.47542,-0.47543 -0.71315,0.47543 h 0.2378 z m 1.18857,-0.2378 1.42629,-0.71315 -1.18859,0.2378 -0.23781,0.47545 z m 3.56573,-1.42629 -1.18859,0.2378 v 0.23781 l 1.18859,-0.47542 z m 1.42628,-0.23781 z m 151.1868,-42.78872 -0.95086,-0.71314 -1.66401,-0.71315 z m -124.5627,-5.22973 2.13942,-2.85256 -1.18856,0.95086 z m 2.85256,-3.32799 0.95088,-1.4263 -0.47543,0.47543 z m 1.4263,-1.90172 1.66399,-1.42629 -0.95085,0.47542 z m 74.88024,0.47542 1.18859,1.18858 h 0.71315 z m -38.27211,-15.68918 -9.74633,8.08229 -5.94286,-1.66399 -13.78747,7.84459 -2.61489,-1.66401 -15.68917,17.59092 -15.92691,3.56574 1.42627,8.55773 7.13147,9.74633 13.31202,12.83661 -2.13941,4.992 9.98403,4.27888 -5.22974,0.95086 -6.41831,-4.992 3.32802,7.36915 -4.27889,2.61487 -13.54975,-12.36118 -10.69718,1.90172 -18.30406,6.89374 8.32002,9.27087 -1.18856,5.70518 5.46744,6.656 18.06633,7.13147 13.07435,-6.65602 2.13942,4.99202 -3.56571,14.97604 h -10.93491 l -12.8366,5.70517 -0.71314,-4.04117 -6.65603,2.61487 -3.09029,6.89375 -10.93491,8.32002 v 12.12347 l 4.27888,1.90172 -3.32801,10.22176 14.2629,12.36118 9.03317,-3.80344 -1.9017,15.21377 2.61484,3.32799 10.93491,2.37716 4.04116,4.51658 9.50859,0.71315 4.51658,4.75431 9.74633,-2.85258 -4.51659,6.18059 -3.56574,12.59888 -29.00124,18.7795 -3.80344,3.80344 -5.46743,-2.13944 -8.79545,2.13944 -12.59891,8.32004 19.73035,-5.70518 2.85259,4.27889 25.4355,-8.32004 0.71315,3.32803 9.98403,-9.98406 20.91894,-14.50062 1.664,0.95089 18.30406,-14.50062 -4.75429,-5.70518 6.18058,-10.22173 16.16463,-19.25495 12.36118,-2.37714 3.80344,2.61487 -14.97604,4.27886 -4.04117,15.92691 0.47544,8.55776 5.22974,-0.47544 25.19779,-15.21376 1.90171,-5.70517 -2.13942,-8.79545 7.60687,1.90171 5.46746,-3.56571 15.68919,9.50859 -1.18857,2.61488 35.65724,4.51659 8.32004,-2.61489 2.37717,3.56574 30.90295,14.73833 5.22973,-3.0903 0.47544,-17.82861 4.04115,8.08229 19.96806,14.50062 1.664,5.94288 17.35321,9.74633 4.51658,12.59888 4.27889,-9.74629 8.79544,17.11547 5.94288,-9.74632 -4.75429,-12.12348 -18.30406,-1.90171 -28.05039,-26.8618 -15.21376,-11.17261 -11.64803,11.41033 H 625.82 l -15.92691,-10.45948 -15.6892,-0.71315 -22.34521,-140.96504 -3.80344,-6.656 -9.03318,-5.46747 -13.54977,2.61488 -10.45947,-2.13944 -13.31202,-5.22973 -14.02522,0.95085 -3.56571,-6.656 -11.17261,-1.66404 -1.90171,-4.04114 -4.99202,5.70518 z"
     style="stroke-width:2.44908" />
  <path
     inkscape:connector-curvature="0"
     id="MO"
     data-name="Missouri"
     data-id="MO"
     d="m 876.47946,468.69451 -11.52825,-11.37559 -53.71354,3.57545 -54.58946,1.53334 -50.92867,-1.48756 v 0 l -0.33519,1.47354 5.50346,12.26723 5.47193,4.30194 5.99948,12.29628 0.93396,1.05011 2.36396,2.12921 5.70544,4.5645 6.46271,0.12931 3.10923,6.40339 -9.30444,10.15629 8.46382,8.45879 0.70173,5.01824 10.78293,7.10138 0.0603,105.27011 -0.1293,6.46272 0.11865,6.47722 -0.12931,6.46273 0.10412,6.72522 -0.12929,6.46274 11.6999,-0.0619 80.23586,-1.7743 95.02797,-3.64603 4.14606,9.94809 -11.92841,16.72188 27.01708,-2.40049 0.24811,0.0145 0.11612,-1.98404 1.16372,-11.37936 5.32305,-5.90989 -1.08165,-7.03127 -0.23357,-0.26262 -0.23358,-0.26263 1.18072,-3.16604 1.45898,0.58311 0.62794,2.02761 -0.29164,0.72949 -0.0145,0.24812 -0.11611,1.98405 0.97753,0.30618 2.12915,-2.36396 0.0145,-0.2481 0.29163,-0.72951 6.68045,-3.59074 1.02105,-0.43794 3.42233,-20.20599 -0.43787,-1.02107 -0.72952,-0.29165 -16.76669,-15.41502 3.03288,-5.0485 -4.13278,-14.42673 -8.52184,-7.46675 -16.42906,-8.42728 -10.15632,-9.3044 2.28515,-17.784 4.19661,-16.42782 -17.91462,-0.0531 -5.12232,-6.0235 -1.81238,-11.55351 -26.8794,-25.46346 -6.64439,-22.53717 2.62271,-10.79621 v 0 l -0.46697,-0.52504 z"
     style="stroke-width:2.5595" />
  <path
     inkscape:connector-curvature="0"
     id="KS"
     data-name="Kansas"
     data-id="KS"
     d="m 406.62257,353.59364 -6.05662,-102.47787 -10.9019,-6.29888 -0.96905,-4.84531 -8.72154,-7.75246 8.47926,-10.41736 -3.39169,-6.05662 -6.29888,0.24236 -5.81436,-4.11852 -2.42264,-1.9381 -8.23698,0.48451 -89.39559,3.39172 -40.9427,0.96905 h -81.40087 l -32.70571,-0.48453 -9.20605,-0.24236 v 4.60303 l -0.24236,14.29359 -2.66492,128.15791 v 4.84531 l 10.41739,0.24236 56.20535,0.72679 131.54963,-1.93813 93.75633,-4.36074 9.20606,-0.7268 -0.24236,-6.29887 z"
     style="stroke-width:2.49595" />
  <path
     d="m 437.93782,193.24678 85.6575,-0.11044 38.44299,0.0293 0.0931,-23.09704 57.27133,0.25239 3.07836,2.0948 0.93437,3.62688 -4.03544,1.80528 1.08513,5.93894 4.62426,4.20883 5.25009,2.73251 -1.44362,4.44847 0.93905,3.56514 4.05595,0.47878 6.64768,7.90541 6.72001,0.61666 -1.56651,6.91105 -2.39284,1.66456 5.5925,5.76403 1.05703,4.19664 4.65654,2.10865 -4.04491,9.26751 3.27231,3.23601 -5.13114,0.91351 2.78743,5.75222 -2.34484,2.87152 0.58425,3.32745 3.46313,2.77465 -1.04794,5.21659 4.42253,2.81369 3.09998,-3.77595 4.37121,3.39035 -1.45783,4.86868 8.81303,1.04891 1.55189,1.50166 -2.26012,7.16603 -65.31547,-0.006 5.68631,3.32918 2.06171,6.32334 6.99895,6.06734 -1.83955,3.71737 5.39339,7.14122 1.29777,7.6529 -3.52661,3.91673 2.5307,4.60426 4.27277,2.85456 4.35417,0.42943 4.89064,2.80706 7.90493,-2.72726 4.27571,-3.78195 6.5814,-2.08113 6.36125,0.53894 -0.004,-7.01659 2.2692,-3.78196 -2.84128,-5.12844 17.72072,0.29465 -2.12372,5.43854 2.39404,6.82582 -2.07473,4.30923 2.17357,1.70302 -0.20994,5.16688 4.31686,3.06451 -1.46657,3.98228 3.46101,6.83823 -4.38237,2.44439 1.30057,3.55791 0.0347,7.22725 -4.06097,2.06643 -2.32337,3.41227 5.66027,6.67286 6.54542,2.2228 4.46096,8.17013 -2.64634,2.36521 1.84086,6.1803 -58.52916,0.0542 -57.78535,-0.0356 -25.22645,-0.0669 -0.10507,-21.40103 -55.84734,-0.0831 0.0346,-42.76228 -56.45135,0.0462 -0.0399,-15.82706 7.64475,-7.29232 13.19066,-8.59021 7.40884,-1.52047 -0.06,-9.55531 -12.89922,0.0251 0.017,-16.19537 -15.49595,0.0763 -0.29367,-26.52446 z"
     id="NE-1"
     style="stroke-width:0.320207" />
  <path
     d="m 636.8018,108.13273 123.56793,0.10313 174.93652,0.0115 42.31941,-0.0865 6.0217,11.7225 -1.0891,6.53166 -16.5277,9.93206 2.3696,5.95508 17.5534,11.34074 23.70244,1.9859 6.7271,4.22803 4.2914,10.69817 -6.9826,9.22478 -12.8763,5.12422 -6.40607,-3.90896 5.253,-8.96857 -1.025,-4.73857 -13.83707,1.60149 -0.7694,10.88847 9.41757,6.4074 -4.67707,8.26385 6.34197,13.13249 -2.3696,9.60918 -7.94347,13.32467 2.7362,7.14398 -55.03821,0.22176 6.99356,8.30426 1.81743,14.23047 6.0153,4.22611 0.71108,12.70268 11.66044,1.54323 -9.2812,5.35166 -14.93135,0.1371 0.0217,36.61343 -18.97618,-3.22549 -14.21772,0.41321 -11.14083,4.68282 -23.2016,6.17679 -13.69627,10.90127 -8.61491,8.83335 -41.24887,14.23115 -6.31389,0.68866 -8.98199,-4.19407 -4.99545,-8.03646 -5.22865,-3.10567 -22.72056,-2.24084 -9.87116,-4.00767 -12.42463,-10.8878 -3.64699,-9.01211 -9.55853,-15.01333 4.44263,-10.96726 13.95955,-9.47079 -5.06851,-9.28178 1.96155,-9.64757 -3.66493,-21.00434 -6.98076,-12.05115 -11.61359,-5.53234 -6.85584,-9.62708 -2.69312,-10.05308 9.46501,-13.66804 0.13393,-5.72966 -6.38562,-9.74941 -9.62645,-10.37404 -20.50915,-11.53677 0.40682,-12.61619 -5.2351,-13.98322 -5.93011,-6.39648 -9.74946,-2.56757 -12.01079,-5.97755 z"
     id="NE-2"
     style="stroke-width:0.481044" />
  <path
     inkscape:connector-curvature="0"
     id="IA"
     data-name="Iowa"
     data-id="IA"
     d="m 384.68056,0.36930649 -17.48534,-9.21955149 -9.53749,-13.034536 -3.17914,-18.756999 2.54334,-8.583735 -9.21955,-11.127041 v 0 l -15.57787,1.589589 -156.4144,13.03454 -62.62936,3.497056 -15.895758,0.953748 -6.676233,0.318036 5.404586,35.2886335 -4.450834,16.8495255 6.99414,10.491209 v 2.2254 l 2.225399,0.318033 10.1733,29.884077 9.85539,15.577843 0.63585,17.80329 10.8091,14.942006 -1.90751,6.3583 9.8554,40.05737 v 0.95375 0 l 65.17267,-1.90749 69.62348,-6.0404 68.35181,-8.58374 15.57789,13.67038 0.63581,0.63582 2.86125,-1.27166 -2.22542,-12.39869 11.76286,-7.31205 4.76874,-32.427397 -4.76874,-2.2254 2.86125,-16.531596 14.30619,-2.861246 15.89579,-11.444951 6.99414,-20.028677 0.31804,-10.173293 -12.71661,-12.080798 -3.81499,-7.629952 -12.08079,-7.6299863 0.63584,-1.5895643 0.31803,-1.58958781 z"
     style="stroke-width:3.27534" />
  <path
     inkscape:connector-curvature="0"
     id="IN"
     data-name="Indiana"
     data-id="IN"
     d="m 332.57054,425.29229 -46.75962,-6.86639 -10.77557,-1.33299 -37.71632,-6.1084 -9.51878,3.57138 -12.98448,1.45947 -4.23476,-1.72622 -4.33431,-4.32327 -1.15725,-2.3072 -27.03317,149.04087 -9.12073,13.95996 2.71384,15.96493 -1.4276,12.02621 -19.49948,22.0536 -7.8848,2.51113 -8.81742,25.59915 1.05899,0.67213 1.25068,0.0945 7.01379,-6.64643 10.68217,3.54559 14.42927,-0.0184 14.15529,11.4292 3.93624,-6.06533 11.5385,-3.86254 13.18719,6.62067 12.39359,-12.23259 19.92332,8.53593 2.49016,-8.46839 26.14223,-17.92563 0.75435,-11.92917 12.79902,3.92757 19.71076,-7.23978 0.94232,-15.39243 0.76908,-0.38576 1.05163,-5.09969 16.60028,-107.95222 6.67475,-46.18223 0.6671,-4.9068 0.37962,-4.04068 z"
     style="stroke-width:3.134" />
</svg>
