<?xml version="1.0" encoding="UTF-8" standalone="no"?>
<svg
   xmlns:dc="http://purl.org/dc/elements/1.1/"
   xmlns:cc="http://creativecommons.org/ns#"
   xmlns:rdf="http://www.w3.org/1999/02/22-rdf-syntax-ns#"
   xmlns:svg="http://www.w3.org/2000/svg"
   xmlns="http://www.w3.org/2000/svg"
   xmlns:sodipodi="http://sodipodi.sourceforge.net/DTD/sodipodi-0.dtd"
   xmlns:inkscape="http://www.inkscape.org/namespaces/inkscape"
   version="1.1"
   id="svg930"
   width="75"
   height="60"
   viewBox="0 0 113.06667 70.400002"
   sodipodi:docname="IA.svg"
   inkscape:version="1.0.1 (3bc2e813f5, 2020-09-07)">
  <metadata
     id="metadata936">
    <rdf:RDF>
      <cc:Work
         rdf:about="">
        <dc:format>image/svg+xml</dc:format>
        <dc:type
           rdf:resource="http://purl.org/dc/dcmitype/StillImage" />
        <dc:title></dc:title>
      </cc:Work>
    </rdf:RDF>
  </metadata>
  <defs
     id="defs934" />
  <sodipodi:namedview
     pagecolor="#ffffff"
     bordercolor="#666666"
     borderopacity="1"
     objecttolerance="10"
     gridtolerance="10"
     guidetolerance="10"
     inkscape:pageopacity="0"
     inkscape:pageshadow="2"
     inkscape:window-width="1440"
     inkscape:window-height="877"
     id="namedview932"
     showgrid="false"
     inkscape:zoom="5.6824879"
     inkscape:cx="27.760728"
     inkscape:cy="30.984432"
     inkscape:window-x="-8"
     inkscape:window-y="-8"
     inkscape:window-maximized="1"
     inkscape:current-layer="svg930" />
  <path
     style="stroke-width:1.06667"
     d="m 18.844776,65.636729 -1.126157,-4 -0.681481,-4.266667 -0.681481,-4.266667 -1.442499,-2.104006 -1.442499,-2.104006 V 46.170062 43.444741 L 12.022434,41.340735 10.57421,39.236728 9.1940339,34.970062 7.8138589,30.703395 6.2943679,28.36666 4.7748769,26.029925 4.5224869,16.963504 4.2700969,7.8970844 10.737044,7.3545626 17.203992,6.8120408 52.310049,4.0820452 l 35.10607,-2.7299956 1.84489,1.6696098 1.8449,1.6696096 -0.5236,2.0022605 -0.5236,2.0022605 1.24986,3.787122 1.24986,3.787123 2.466,1.883346 2.466,1.883346 2.3298,1.600001 2.329811,1.6 3.73979,4.543172 3.73979,4.543173 -1.28059,3.990161 -1.28059,3.990161 -2.79889,2.36164 -2.79889,2.361639 -1.901041,0.03836 -1.90104,0.03836 -0.90945,2.4 -0.90945,2.4 0.8295,1.066667 0.8295,1.066667 -0.80474,5.208326 -0.80473,5.208328 -1.74761,0.978009 -1.7476,0.978009 v 2.080331 2.080331 h -0.73126 -0.73125 l -2.22234,-2.087783 -2.22234,-2.087781 -7.26821,1.029304 -7.2682,1.029305 -16.61619,1.591811 -16.61619,1.59181 h -9.37854 -9.378545 z"
     id="path984" />
</svg>
