<?xml version="1.0" encoding="UTF-8" standalone="no"?>
<svg
   xmlns:dc="http://purl.org/dc/elements/1.1/"
   xmlns:cc="http://creativecommons.org/ns#"
   xmlns:rdf="http://www.w3.org/1999/02/22-rdf-syntax-ns#"
   xmlns:svg="http://www.w3.org/2000/svg"
   xmlns="http://www.w3.org/2000/svg"
   xmlns:sodipodi="http://sodipodi.sourceforge.net/DTD/sodipodi-0.dtd"
   xmlns:inkscape="http://www.inkscape.org/namespaces/inkscape"
   version="1.2"
   width="75"
   height="75"
   viewBox="0 0 800 711"
   <!-- stroke-linecap="round" -->
   <!-- stroke-linejoin="round" -->
   id="svg170"
   sodipodi:docname="ME-2.svg"
   inkscape:version="1.0.1 (3bc2e813f5, 2020-09-07)">
  <metadata
     id="metadata176">
    <rdf:RDF>
      <cc:Work
         rdf:about="">
        <dc:format>image/svg+xml</dc:format>
        <dc:type
           rdf:resource="http://purl.org/dc/dcmitype/StillImage" />
        <dc:title></dc:title>
      </cc:Work>
    </rdf:RDF>
  </metadata>
  <defs
     id="defs174" />
  <sodipodi:namedview
     pagecolor="#ffffff"
     bordercolor="#666666"
     borderopacity="1"
     objecttolerance="10"
     gridtolerance="10"
     guidetolerance="10"
     inkscape:pageopacity="0"
     inkscape:pageshadow="2"
     inkscape:window-width="1440"
     inkscape:window-height="877"
     id="namedview172"
     showgrid="false"
     inkscape:zoom="1.60625"
     inkscape:cx="400"
     inkscape:cy="455.11089"
     inkscape:window-x="1432"
     inkscape:window-y="-8"
     inkscape:window-maximized="1"
     inkscape:current-layer="svg170" />
  <g
     id="ME-2"
     transform="matrix(0.53172747,-0.34039273,0.35096045,0.73691144,56.653397,187.59334)">
    <path
       d="m 684.7912,555.0137 0.5743,-0.229 0.4142,0.124 0.7345,0.2199 1.3783,0.5743 0.9174,-0.3446 0.4594,-1.6073 0.254,-0.1089 0.5501,-0.2357 0.2963,0.127 3.7223,1.5952 0.6866,0.4809 0.3819,0.2675 1.2272,0.8596 -0.1148,0.5736 -0.7204,0.3093 -0.0822,0.0353 -1.7596,-0.3061 -0.6299,-0.1095 -0.2523,-0.0439 -0.0789,-0.0332 -2.1019,-0.8849 -1.2635,0.5736 -0.2297,0.9188 0.804,0.9189 3.3295,1.1479 1.608,0.4594 0.2297,0.4587 -0.7168,0.2868 -1.5804,0.6321 -1.5045,0.0486 -0.5875,0.0189 -1.4672,0.0474 -0.7364,-0.5009 -2.0991,-1.4276 -0.0345,-0.0234 -1.6081,-2.6411 z m -4.1203,15.5633 0.4463,-0.9811 0.9903,-0.2294 0.5706,-0.1322 0.6856,0.0653 2.9494,0.281 1.9387,0.1846 1.477,1.2083 0.1561,0.2959 0.1486,0.2817 0.7379,1.3985 -0.0351,0.0341 -0.9651,0.9385 -3.2999,3.2088 -0.2402,0.2336 -0.2353,0.2288 -3.0526,-1.5919 0.0117,-2.387 -0.6891,-1.3783 -1.7229,-1.3776 z m -10.9637,-2.1323 0.8399,-0.4283 0.7378,0.154 4.4468,0.9285 0.1564,0.0326 0.6926,0.337 0.3932,0.1913 -0.4796,0.8468 -0.8997,1.5889 -0.2641,1.2912 1.9955,1.1739 0.1307,0.1183 0.8666,0.7843 2.0809,1.8837 0.326,0.295 -1.2172,3.0854 -0.0447,0.1133 -0.4989,0.4108 -0.4695,0.3229 -1.3851,0.1936 -0.9676,0.1352 -0.3765,0.0526 -0.8511,-1.702 -0.2631,-0.9407 -0.6393,-2.2854 -1.4295,-5.1106 -0.0157,-0.0563 -0.4402,-0.2934 h -0.3328 -1.1639 l -0.8217,-0.4696 -0.0298,-0.7451 -0.042,-1.0487 -0.003,-0.0769 -0.024,-0.6007 z m -41.825,-2.129 0.9676,-1.3977 0.2267,-0.3274 7.2468,8.8293 0.0498,0.0606 0.0564,0.0796 1.9836,2.8001 0.216,0.3047 -1.577,0.9198 -0.0149,0.009 -1.1725,-0.8662 -0.1415,-0.1046 -1.7386,-1.2844 -4.9081,-6.1039 -0.2644,-0.6462 z m -60.188,28.0993 0.0389,-0.5443 0.0609,-0.8521 2.6403,-2.8708 -0.2297,-1.4924 -0.8647,-1.1981 -0.627,-0.8687 0.0765,-2.0962 0.2077,-0.3442 1.4372,-2.3815 1.4932,0.8033 0.1435,0.79 0.7104,3.9097 0.2913,1.6029 0.0962,0.5293 -0.2217,0.8125 -0.8451,3.0981 -0.1275,0.4674 -2.628,2.1279 -0.1581,0.1281 -1.5094,-1.41 z m -24.6692,26.6531 0.2264,-1.8932 0.0405,-0.3386 0.5574,-0.0929 1.8729,-0.3122 0.6019,0.2218 0.1537,0.0566 0.7836,0.2887 h 1.4582 l 1.0531,-0.4861 0.1461,-0.181 0.773,-0.9577 1.2281,0.175 2.9678,0.423 0.6393,1.1739 -0.221,0.3221 -1.7196,-0.3569 -1.9467,0.239 -1.0926,0.4991 -0.6138,0.349 -0.2384,0.7873 0.0177,0.1876 0.0979,1.0356 0.027,0.2861 -1.5647,0.8261 -0.3394,0.027 -3.0877,0.2452 -1.4974,-0.5918 -0.4691,-0.7132 z m -19.3957,25.7383 0.2333,-0.5207 1.9047,-1.4706 1.3754,-0.1936 1.038,-0.5408 1.2133,0.0261 1.4199,1.5212 0.2684,0.2876 1.4015,1.5015 -0.061,0.5826 -1.3473,1.1787 h -0.1208 l -5.1222,0.002 -0.5722,-0.5384 -1.2278,-1.1553 -0.4036,-0.3798 z m -0.4403,-13.5996 1.4741,-1.6949 1.3059,-0.8745 1.7738,-0.3015 1.4666,-0.5462 2.1792,-0.8115 0.6105,-0.2273 1.7365,0.3041 0.1875,0.126 1.3895,0.9333 0.2453,0.5958 -0.7117,0.106 -0.5215,-0.4679 -1.2212,0.7354 -0.8398,0.5056 -0.1511,0.091 -0.3993,1.2679 -0.3155,1.002 -0.5186,1.6467 -1.6188,0.4594 -0.5059,-0.2375 -4.288,-2.0124 z m -14.9812,-30.9154 0.098,-0.189 1.1556,-2.2291 0.0433,-0.0837 0.56,-1.0803 1.9909,-0.9148 2.7273,-1.2532 0.1914,-0.0879 1.0617,3.1844 -0.0292,0.0631 -0.1912,0.4124 -2.3006,4.9642 -0.038,0.0605 -0.5907,0.9407 -1.1131,1.7725 -1.841,2.9317 -0.1416,0.0426 -1.1852,0.3558 -0.1285,-2.8729 -0.0757,-1.6938 -0.1872,-4.186 z m -5.7527,25.3317 0.2094,-0.8161 0.4653,-1.8132 0.0141,-0.0549 0.4171,-0.2959 1.9768,0.0523 0.338,0.834 -0.8221,0.8168 0.7644,0.4401 1.6726,0.9629 1.228,2.0875 -0.0736,0.4147 -0.9569,0.3577 -1.6531,-0.3396 -2.7711,-0.5692 -0.4664,-0.0958 -0.0926,-0.227 -0.4299,-1.0529 z m -1.0137,-13.5232 4.5035,3.0863 2.6605,1.8233 -0.1704,0.0972 -0.7588,0.4329 -0.1014,-0.0546 -3.982,-2.1446 -1.0897,-0.5869 z m -1.7893,23.777 1.0241,-0.4638 1.4838,-1.3646 1.7909,-1.6468 0.8067,-0.7419 4.0782,-1.5679 2.9815,0.344 2.4259,-0.4611 0.1504,-0.0286 1.5455,0.7153 1.5879,2.0747 4.498,4.1195 -1.7026,2.0703 -0.5617,0.683 -1.8979,1.3159 -3.6702,2.5447 -0.396,0.2745 -2.12,0.5956 -1.9549,-1.8145 0.095,-0.6584 0.1253,-0.8687 -1.7966,-2.2727 -4.4626,-0.4887 -0.9192,0.2519 -0.7309,-0.0221 -1.4381,-0.0433 -0.1361,-0.004 -1.0533,-1.068 z m -3.4523,9.0338 1.4355,-2.2892 0.8274,-0.4159 1.4503,0.5881 1.2687,1.403 0.2646,1.3681 -2.2044,1.9515 -0.9803,-0.256 -1.0174,-0.2658 -0.7272,-0.19 z m -2.388,-42.3781 0.1315,-0.1544 0.3395,-2.1274 1.5371,-2.6544 -0.243,-1.7823 0.6481,-2.5923 1.1341,-0.7291 0.9721,-0.081 1.2152,0.5671 0.5264,2.4311 2.2607,5.7078 1.1193,2.8259 0.4517,1.1406 -2.0953,1.1307 -1.0922,-0.4745 -3.8358,-1.6664 -1.2074,0.3337 -0.4688,0.1296 -1.8575,-1.4595 z m -37.0355,21.0798 0.8342,-0.9732 0.2714,-0.0143 1.0494,-0.0552 0.894,-0.4038 0.7656,-0.3458 0.4953,-0.2236 0.5237,-1.1928 0.7276,-1.6573 2.6415,-2.5721 0.1189,-0.2823 0.4372,-1.0385 v -0.9645 -0.2867 l -0.6169,-0.7357 1.034,-0.0985 1.3903,0.6256 0.1737,0.147 1.4832,1.255 0.1505,0.1274 0.3513,0.129 1.498,0.5503 4.9631,1.8232 0.6278,0.5707 1.5386,1.3987 0.1276,0.116 0.4722,1.1511 0.3836,0.9349 0.2564,0.6251 0.2398,0.1665 4.5807,3.1803 3.2148,2.7556 0.2297,1.1481 -0.8037,1.1482 -2.0667,0.3444 -0.057,-0.0205 -4.0764,-1.4721 -0.1307,-0.1417 -2.4512,-2.6599 -0.3876,0.3192 -0.4261,0.3509 -0.7721,0.6359 -0.2574,0.2119 -0.5203,0.4285 -0.0437,0.1748 -0.0954,0.3814 0.4083,0.3602 0.7735,0.6825 0.2085,0.5561 -0.0695,1.0427 -0.1939,0.1881 -0.2922,0.2835 -1.7902,1.7368 -1.9613,1.9027 -0.1061,0.1029 -0.3138,0.3045 -1.8073,0.7646 -3.184,0.3899 -0.2223,0.0272 -0.0198,0.1783 -0.0772,0.6952 -0.181,1.629 -0.1913,0.0766 -0.5039,0.2015 -0.8931,-0.141 -0.4276,-0.0676 -0.0948,-0.1822 -0.8089,-1.5556 -1.1123,-1.2513 -0.4969,-0.2692 -1.1714,-0.6345 -1.4219,-0.0592 -0.2465,-0.0103 -0.6353,-0.3177 -0.0598,-0.0299 -0.6256,-0.4171 -0.6203,-1.015 -0.1444,-0.2362 0.2781,-2.7111 0.4471,-0.8942 0.3175,-0.6351 0.139,-2.433 -0.3801,-0.4803 -0.1779,-0.2246 -0.7627,-0.9635 -0.0511,-0.2042 -0.2965,-1.1861 z m -4.507,-15.2661 1.4563,-1.6154 0.9848,0.4444 0.2847,0.1285 4.2131,1.9012 0.5227,0.2359 2.2483,1.0146 0.887,0.4003 1.7388,0.7847 -0.4736,0.7407 -0.0923,0.1444 -0.6313,0.9872 -0.5207,0.1008 -3.04,0.5884 -3.9543,-2.7974 -0.752,-0.5321 -1.5424,-1.3569 -0.9,-0.7917 z m -17.9723,12.761 1.1383,-0.8347 1.1383,-0.3794 0.3852,0.0544 0.3803,0.0538 0.9242,0.1307 5.1598,0.7297 4.3054,2.9014 0.0682,0.8183 0.0553,0.6636 0.0283,0.3394 -1.6322,1.5155 -0.4926,0.4574 -0.5615,-0.0449 -1.3356,-0.1068 -2.2006,-0.9106 -1.5177,-0.7589 -1.2141,-0.3035 -1.4418,-0.4553 -0.8868,-0.0522 -0.4033,-0.0237 -0.0836,-0.1035 -1.5099,-1.8695 z m -24.6385,-2.9764 0.3256,-1.3247 0.0237,-0.0966 2.2347,-2.5119 0.9778,-0.7857 0.3333,-0.2679 0.7694,-0.6183 0.0156,-0.0125 1.5479,-1.895 0.9983,-1.2221 1.7306,-2.1185 0.2639,-0.323 -0.004,-3.9756 v -0.0494 l -9e-4,-0.9007 1.4845,-5.7199 0.6904,-1.1575 0.0181,-0.0302 0.8557,-1.4346 0.4549,-0.1475 0.2276,-0.0738 3.4594,-1.1213 0.6043,-0.1959 2.0258,0.9928 0.6216,1.3569 0.7802,1.7028 0.1028,0.2245 -0.007,0.0175 -0.7052,1.8012 -0.0127,0.0179 -0.0655,0.0922 -1.3138,1.8478 -0.027,0.0379 -2.1955,1.2486 -0.1232,-10e-5 -0.9058,-5e-4 h -0.0598 l -0.7999,0.6838 -0.3813,1.2927 -0.3349,1.135 -0.005,0.0172 0.4412,0.9134 1.0571,2.1881 0.2633,0.5449 -0.7332,1.1819 -1.4815,2.3881 -0.0986,0.1588 -0.9284,0.7501 -2.4352,7.1459 -1.8545,1.8975 -0.2892,0.1811 -2.8916,1.8111 -0.5822,0.3647 -1.1414,0.4063 0.8516,-1.4324 0.0748,-0.1258 -1.5734,-3.2607 -0.0174,-0.0362 -0.7983,-0.6882 -1.2407,-0.4469 z m -11.8734,0.546 -0.3044,-0.1812 -2.4972,-1.8282 -15.1548,0.7539 -9.5103,-7.1237 -3.2202,-2.32 -10.9344,-8.1709 -1.0114,-0.6797 -3.7468,-2.7459 -15.0036,10.8698 -9.2154,-6.6777 -0.4656,0.4569 -1.0608,-0.481 -1.3152,1.2852 0.8713,0.6677 -0.9778,0.954 -4.8942,-0.7465 -13.7792,-2.124 11.7514,-23.3485 -4.6709,-0.6399 9e-4,-2.9106 -5.1584,-0.9824 -3.6491,-0.6017 0.2582,-0.7857 3.9462,-12.8176 -13.4509,-1.9479 -0.1264,-0.0183 -8.0796,-1.1884 -0.2343,-0.0375 -0.5151,-0.0797 -3.3123,-0.5047 -7.4764,-1.1419 -0.0262,0.005 -0.4349,0.1611 -0.2333,0.3307 0.0289,0.3335 -0.2322,0.4036 0.5318,0.2522 0.05,0.1388 -0.776,2.2799 0.807,0.0718 -0.003,0.3665 -0.2636,0.4795 -0.1799,0.5736 -0.216,0.2922 -1.1849,1.1012 -0.2947,0.2569 -1.2569,1.1268 -2.9819,2.7126 -4.641,4.21 9.1757,1.4902 -0.3021,0.6142 -0.2411,0.9884 -0.4705,0.8535 -0.3942,1.4341 0.1454,0.6526 -0.2575,1.4638 -0.1017,0.2646 -0.1645,1.093 -0.2308,0.8425 -0.6904,1.3509 -1.0417,1.6188 -0.2307,1.0745 -0.4788,0.9724 -0.2953,0.8568 -0.9599,1.1398 -1.2175,1.6548 -0.4094,0.4475 -1.2222,0.5558 -0.4414,0.4841 -0.5396,0.7829 -0.3604,0.6956 -0.2104,0.6468 -0.1556,1.2391 0.2056,0.8441 0.3301,0.6348 -0.394,0.4812 -17.2702,-2.7014 -2.6269,-0.4146 -8.9126,-1.4295 -1.8303,-0.3733 -6.9919,-1.2783 -2.9496,-0.3607 -0.4289,0.027 0.1812,-0.6767 -8.1412,-1.1342 -0.1074,0.3602 -6.468,-1.0303 -0.1789,0.6306 0.1484,0.54 -0.3808,0.5819 0.2982,2.2181 -0.1199,0.558 0.0726,0.3208 -0.3111,0.7213 -0.3206,0.2565 -0.1909,0.603 -0.216,0.0749 -0.4964,1.8352 2.7842,0.4331 -1.129,3.805 -2.4586,9.7982 -2.6834,-0.2676 -0.1884,0.7047 -0.1336,0.6694 0.0848,0.9097 -0.1714,0.4811 -0.027,0.6277 0.2136,0.8286 0.2977,0.0373 0.4545,0.2555 0.3631,0.0533 -0.4326,0.4113 2.5843,0.4574 4.5475,0.6439 -0.3289,1.7225 2.8039,0.4281 0.1346,-0.1428 0.2414,0.1273 -0.1465,-0.2897 0.1139,-0.4954 0.3413,-0.2984 0.745,-0.1793 0.2341,-0.2409 7.4627,1.2762 1.3148,0.161 2.7361,-0.6289 2.4169,0.4055 1.7995,0.3037 -0.1347,0.2626 2.5817,0.3977 -0.2926,0.6705 2.7116,0.4551 -0.2374,0.3216 5.6445,0.9148 -0.3607,0.2955 -1.0618,0.697 1.9083,0.5922 -0.2963,0.9257 9.0992,-0.7468 -0.147,0.4358 -0.1768,0.5152 0.6116,0.1177 0.9803,-0.1633 1.4561,0.2583 0.1793,-0.4418 0.7221,0.1175 0.7614,0.3233 0.6599,0.1154 0.7078,0.2091 0.0411,-0.7319 0.4712,-0.9234 -0.1973,-0.6242 4.3461,0.7149 -0.0919,0.443 4.4287,0.7299 -0.2969,1.0454 -0.4962,0.0726 -0.5922,0.387 -0.4169,0.0617 -0.5315,0.2616 -0.6503,0.1015 -0.2602,-0.0402 -0.4464,0.123 -0.2063,0.181 -0.322,-0.1663 -1.0313,-0.1072 -0.3032,-0.169 -0.3646,-0.035 -0.9083,0.7072 -0.6908,0.0846 0.3955,0.7593 -0.0102,1.06 -0.1836,0.5607 -0.2746,1.1548 0.0617,0.4619 0.3546,0.6224 1.1563,1.2452 0.2567,0.5309 0.2405,1.273 -0.293,0.9247 4e-4,0.5518 -0.1656,0.6841 -0.4742,0.804 -0.7605,0.3137 -0.275,0.2781 -0.2687,0.5769 0.0125,0.8254 -0.0706,0.6157 0.1036,0.3798 -17.6446,-2.8267 -0.2641,0.095 -0.5165,0.3855 -1.3875,0.6352 -0.7468,0.8614 -0.5499,0.3586 -0.4119,0.1162 -0.7159,0.4763 -0.5798,0.8439 -1.2777,2.2507 -1.1973,2.6099 0.1237,0.9018 -0.4804,1.0872 -0.3763,0.3793 0.1194,0.6184 -20.7851,-3.2536 -3.8134,14.2054 -0.3895,1.4597 0.1799,0.033 -0.1316,0.3498 0.0735,0.4528 0.2872,0.5144 -0.3642,0.668 -0.4418,0.4889 -0.9367,0.1256 -0.3264,0.3324 -0.1231,0.4642 0.1623,0.3165 0.5491,0.5189 -0.9068,0.4157 0.0299,0.4378 0.2118,0.064 -0.1801,0.2606 0.3044,0.3754 0.2822,0.701 0.1629,0.1828 -0.4318,0.2984 0.7259,0.8053 -0.3719,-0.0655 -0.3084,0.1261 0.4338,0.3011 -0.4937,0.061 -0.3775,0.2144 -0.3335,-0.4157 0.1372,-0.1585 -0.5345,0.2326 -0.2517,-0.2255 -0.1592,0.0554 -0.0656,0.8564 -0.311,0.0923 0.0805,0.1557 -0.2158,0.2124 -0.8919,0.2626 -0.0419,0.2384 -0.0272,0.0994 -0.1382,0.2612 0.6891,0.3115 0.3219,0.7192 1.8389,1.2067 0.5445,0.7197 -8.9946,9.4968 -2.2178,-1.0606 -4.5417,4.8722 -0.514,-0.2426 -15.1456,-7.3312 -0.3613,-0.1069 -0.9232,-0.2749 0.6491,-0.7846 -5.5896,-4.2599 -12.2942,-9.1384 -4.2258,-3.0844 -0.1042,-0.0805 -9.3611,9.9136 -5.4318,-2.8923 -0.692,-0.2488 -0.0909,0.4939 -0.274,0.3534 0.1521,0.1424 -0.503,0.6509 0.1721,0.4358 -0.6825,0.3577 -8.3142,-4.3807 -0.6865,0.6517 -0.2944,-0.1566 -5.7002,-3.098 -0.2816,-0.5663 0.198,-0.5509 -4.3028,-2.0247 -0.5536,0.5746 -0.7253,-0.3596 -3.2153,3.2772 -1.7753,1.8106 -1.7836,1.8234 -2.0734,-2.2561 -0.203,0.2094 -1.537,-1.6871 -1.6443,1.6769 -0.4149,0.1326 -0.2168,-0.1865 -0.5918,-0.0839 -0.5315,-0.2351 -0.2177,-0.0882 -0.4251,-0.5067 0.6077,-0.1918 -0.3758,-0.132 -0.9356,-0.5214 -0.2721,-0.2308 0.0202,-0.2671 -0.2358,0.1092 -0.0496,-0.5057 -0.1249,0.1745 -0.5426,-0.3382 0.3519,0.0195 -0.1625,-0.1872 -0.3727,-0.002 0.2009,-0.1454 -0.2189,-0.1403 0.597,-0.2934 -0.5373,-0.1193 -0.5793,-0.5087 0.1838,-0.1965 -1.1907,-0.41 -0.007,-0.203 0.2786,-0.1465 -0.1446,-0.2396 -0.2835,0.0379 0.1563,-0.4113 -0.1486,-0.4428 0.1407,-0.2905 -0.6184,-0.1129 -0.2066,-0.2006 0.1848,-0.3126 -0.4739,-0.3488 0.0407,-0.6149 -0.2219,-0.4513 -0.6748,-0.199 0.0093,-0.2337 0.2285,0.048 0.1658,-0.4829 -0.3312,-0.2073 0.2461,-0.1285 0.3568,0.0254 0.2919,-0.1563 -0.0133,-0.3318 -0.5721,-0.2276 0.7201,-0.7189 -0.15,-0.4671 -0.0225,-0.4314 0.4508,-0.3426 0.2233,-0.3316 -0.0488,-0.2878 0.2712,-0.5939 0.2727,-0.2947 -0.4852,-0.2374 0.1635,-0.3916 -0.145,-0.5279 -0.2405,-0.2166 0.2868,-0.0353 0.1869,-0.1973 -0.0066,-0.2605 -0.2899,-0.0881 -0.0807,-0.4966 0.244,-0.3545 0.4376,-0.305 0.077,-0.5624 0.5252,-0.5521 0.1121,-0.2985 0.6146,-0.4546 0.3279,-0.5049 0.4976,-0.2625 0.1552,-0.4235 0.3323,-0.3513 0.3133,-0.027 0.0189,-0.3051 -0.1946,0.0635 -0.7351,-1.0081 0.2543,-0.0444 -0.0486,-0.2201 0.1953,-0.4736 -0.4559,-0.1232 0.0307,-0.2219 -0.275,-0.0743 -0.3665,-0.4494 0.2248,-0.342 -0.2216,-0.2177 -0.0698,-0.3308 0.2646,-0.1948 -0.1135,-0.3652 -0.2162,0.056 -0.3175,0.3677 -0.2397,-0.2573 0.4908,-0.3005 -0.4123,-0.8188 -0.2578,0.0739 -0.1982,-0.1995 -0.0931,-0.382 -0.5856,-0.3331 -0.5487,-0.0541 -0.1133,0.0571 -3.1575,-3.2673 -13.818,7.1066 -0.6912,-0.9612 -6.8276,3.3366 -16.7782,8.651 -7.0919,-3.509 -0.0405,0.3519 0.2026,0.299 -0.0189,0.744 -0.1608,0.2643 -0.2127,0.2258 -0.6056,-0.1562 -0.3482,0.8443 -0.3612,0.3378 0.212,0.3319 0.7981,0.2398 0.0648,1.0546 0.3347,0.2874 -0.1633,0.2963 0.3611,0.6076 -0.1714,0.2841 0.2226,0.7176 -0.0952,0.1467 2.0025,1.9529 10.7211,1.8108 -0.0642,1.2108 0.0793,0.3418 0.2808,0.371 -0.1314,0.2768 1.6792,-0.36 0.2353,-0.1523 12.8048,13.4297 -6.1935,3.0716 3.4215,3.3914 -4.382,2.7647 -0.0044,0.3529 -0.3826,0.5124 -0.6651,0.5132 0.1587,0.3009 -0.1168,0.8117 0.1664,0.2528 0.4528,2.1861 0.4721,-0.0446 0.4609,0.2136 -0.0293,0.3473 1.1482,-0.0116 -4.1324,2.7622 -0.193,-1.1004 -2.7416,1.7387 -0.1951,-1.0901 -3.2214,2.0411 0.3623,0.402 0.6506,0.3824 -0.031,0.2879 -0.179,0.0612 -0.3783,-0.1627 -0.4742,-0.0428 -0.414,0.1721 -0.1963,0.2936 0.4541,0.449 0.8005,0.308 -0.0684,0.3912 0.5274,0.4401 0.1003,0.3409 -0.2273,0.3215 -0.2438,0.5816 -0.0128,1.1519 0.0834,0.2285 0.3575,0.2071 0.5692,-0.0801 0.4559,0.1921 0.3015,0.7346 0.756,1.011 0.0181,0.1326 -0.368,1.0494 0.0918,0.6348 -0.5943,0.1332 -0.3325,-0.1539 -0.7495,0.2664 -0.5694,0.5208 -0.5448,0.0903 -0.1548,0.2169 0.3283,0.3886 -0.4071,0.0559 -0.1197,-0.2883 -0.529,-0.321 -0.3988,0.2681 -0.2858,-0.0436 -0.2924,-0.2959 -0.3438,-0.0832 -0.227,0.1173 -0.0168,0.3861 -0.3852,-0.1921 -0.0106,-0.409 -0.3517,-0.1326 -0.3903,0.0157 -0.645,0.3171 -0.3818,0.4387 -0.6941,-0.0374 -0.2995,0.1663 -0.3187,-0.0227 -0.2996,-0.3471 -0.8344,-0.1569 -1.3895,-0.0768 -0.3238,0.1588 -0.0867,0.2828 -0.4652,0.006 -0.9009,0.2343 -0.421,0.3136 -0.3378,-0.1171 -1.0007,0.0328 -0.2799,0.0897 -0.0882,-0.4999 -0.5551,-0.1403 -0.2789,0.2986 -0.9043,-0.1056 -0.5665,-0.2322 -0.6059,-0.0673 -0.4773,-0.4057 -0.3221,-0.0348 -0.4432,0.1768 -0.4217,0.4248 -0.9421,0.1954 -0.8313,0.4493 -0.4061,0.1152 -0.5414,0.2878 -1.3372,0.165 -0.3826,-0.0318 -0.8757,0.1378 -0.3628,0.3719 -0.8132,0.4359 -0.5146,0.1634 -0.418,0.3011 -0.1861,0.4581 -0.4825,0.3175 -0.4575,0.0702 -1.1229,-0.007 -0.695,-0.2297 -0.3868,-0.2168 -0.3363,4e-4 -0.9174,0.2569 -0.2901,0.1747 -0.6797,0.5912 -0.9968,0.3592 -0.5707,-0.0699 -0.6138,-0.4727 -0.3347,0.0294 -0.3404,0.3889 -0.8813,0.1378 -0.5061,-0.2511 -0.8618,-1.0591 -0.7613,-0.353 -0.9172,0.1467 -0.2904,0.146 -0.0058,-0.0553 -0.1664,-9.0328 -0.4337,-9.0759 -0.0921,-1.926 -0.0365,-3.8659 -0.3792,-8.4501 -0.3483,-7.7612 -0.0319,-0.7117 -0.3218,-7.1708 -0.5642,-10.0042 0.0062,-0.0529 -0.1596,-3.3612 -1.2363,-26.0319 -0.038,-2.5 0.0054,-0.0737 -0.1643,-2.7889 -0.3248,-5.5147 -0.2855,-7.5155 -0.4142,-5.9147 -0.0903,-1.2903 -0.4047,-7.1532 -0.6395,-11.3035 -0.4283,-5.0803 -0.707,-11.2123 -0.8462,-18.7813 -0.0033,-0.0469 L 10.193,526.6104 10.0361,522.9221 9.6937,518.6265 8.6603,505.6606 7.7361,495.823 7.1044,489.0999 6.245,477.5598 6.1096,475.7416 5.889,474.8019 3.885,447.9501 3.2648,440.8283 2.4322,428.0939 1,416.8256 l 1.144,-0.1812 0.9002,-0.2868 1.4565,-0.7016 1.3379,-0.4633 3.2388,0.1371 0.8251,0.2163 1.4756,-0.1409 1.7008,-0.3391 1.4447,-0.454 1.0072,-0.4364 1.2521,-1.6979 0.0314,-0.128 -0.5186,-0.5912 -1.1691,-0.6049 -0.3428,-1.6634 0.0315,-0.2823 0.3758,-0.4806 1.1507,0.3534 0.5939,0.3399 1.7451,1.0586 0.4819,0.366 0.1755,0.3131 0.7197,0.4761 3.5528,-0.0411 3.1585,-0.4109 0.2816,0.5779 1.0573,1.3897 0.9069,0.8027 1.7883,0.331 1.6383,0.8869 0.6815,0.375 1.1182,3.0356 -0.3129,0.666 -0.9691,1.1027 -0.2313,0.4015 -0.3375,1.0631 0.0436,0.1104 1.2121,0.7987 1.3928,1.0459 1.8168,2.0873 0.3741,1.0413 -0.3581,1.7408 0.3058,0.397 0.7867,0.5518 1.5041,0.8298 1.2612,0.3094 4.1407,0.7933 2.4343,-1.0332 1.0924,-0.5872 -0.4497,-0.2646 -1.3934,-1.1158 -0.1818,-2.2565 0.1365,-1.337 1.0179,-0.4503 0.4247,-0.2868 0.3933,-0.3838 0.8354,-1.16 0.6136,-0.8521 0.3368,-1.4252 0.0249,-0.6617 2.4246,-1.4298 0.1689,-0.0662 0.75,-0.7501 0.719,-1.8529 0.3001,-2.0957 -0.2439,-0.6485 -0.3752,-0.3706 -0.5318,-0.0529 -0.6879,-0.4895 -0.3003,-0.3928 -0.1753,-0.4763 -0.1503,-0.9751 0.0689,-0.256 0.9691,-2.9162 1.1075,-1.178 0.2191,-0.1501 0.7197,-0.1587 0.2316,-0.1324 -0.0187,-0.3132 -0.6753,-1.9306 -0.2741,-0.3011 -0.9153,-1.009 -1.9035,-1.3851 -0.3445,-0.1104 -0.2129,-0.419 -0.1693,-0.9927 0.0813,-0.3661 2.4734,-2.1355 2.0423,-1.2751 0.6831,-1.1911 0.1252,-0.4941 0.5828,-0.2777 2.613,-0.5818 4.9998,0.5401 0.3069,0.1104 1.9108,1.2928 -0.1371,0.7545 0.1954,1.0147 2.6641,2.4254 1.3971,0.7892 2.0166,0.8992 3.8195,-0.3798 1.0017,-0.1282 0.5198,-0.3528 0.2067,-0.0264 1.0709,0.1632 3.2493,1.6065 0.0743,1.5177 0.144,0.053 1.709,0.1502 1.0081,-0.2996 2.1793,-0.9521 0.6383,-6.3177 -0.7999,-2.2152 -2.7487,-2.8863 -2.5506,-0.7286 -2.3063,-1.1297 -1.1911,-1.1602 -2.0629,-2.475 -2.4837,-1.6102 -0.6399,-0.2513 -1.7568,-1.3231 -1.1812,-3.8359 -0.0442,-0.5381 0.1063,-0.459 0.2382,-0.4412 0.966,-0.6621 2.7356,-2.1359 0.3513,-0.3839 2.5107,-3.3885 -0.1175,-2.8724 0.4879,-0.2776 1.3943,-1.0148 3.7012,-3.1274 1.8738,-2.1747 -0.1633,-0.2162 1.1073,-1.5085 1.8107,-0.6038 3.4951,-1.1905 2.1241,-1.9315 0.9492,-0.1503 1.7416,-0.5212 0.1885,-0.1324 5.1122,-4.7479 0.5346,-1.0502 -0.3335,-0.2602 -0.006,-0.1455 1.0382,-0.7678 1.0749,-0.2233 0.007,-0.002 2.1961,0.2164 3.0079,0.0317 1.2148,-0.6659 0.0129,-0.3353 0.1008,-0.1058 1.6941,-1.3582 2.6188,-1.4858 5.16,-2.8215 3.5448,-0.5391 0.8879,0.0749 1.5489,-0.0662 1.5617,-0.5472 2.5109,-1.0423 0.4789,-0.1987 2.8745,-1.1932 1.935,-1.6802 1.3177,-1.2218 -0.9553,-2.8658 -1.473,-1.262 -1.084,-0.3136 -0.9263,-0.7591 -1.7633,-4.6989 -0.3778,-1.4692 -0.006,-0.1545 0.1451,-0.1368 1.7221,-0.4453 0.3215,0.0178 0.3974,0.2383 0.4668,0.0664 0.429,-0.0617 0.7194,-0.5115 -0.0878,-0.7369 -0.3469,-0.2735 0.2971,-0.8427 1.6799,-2.0377 1.3828,-1.0801 2.6504,-1.9984 4.7443,-3.3196 2.4497,-0.3094 0.6384,-0.1345 1.7924,-0.3776 2.1216,-0.6354 4.2382,-2.3729 4.1592,-3.0533 0.6829,-0.5601 1.0448,-2.3598 -0.0373,-0.6838 -0.7687,-2.2417 -0.1304,-0.0892 -0.4824,-0.3302 -0.3415,0.0925 -0.0948,-0.0618 4e-4,-0.7103 0.2152,-0.2646 1.8669,-1.5389 2.2401,-1.1424 0.1463,-0.3569 -0.003,-0.5376 -2.4679,-2.2206 -2.4024,-1.4395 -1.7207,-0.3094 -1.2525,-0.1768 -1.702,0.388 -4.5045,0.2596 -0.6389,-0.2426 -0.1266,-0.0662 0.0127,-0.0838 0.9294,-1.4773 0.4497,-1.6727 0.4366,-0.4499 1.1899,-0.5427 1.0253,-0.1189 1.5889,-1.1293 0.6144,-0.6879 -0.0697,-0.0442 -1.5318,-0.3444 -1.9621,-0.3047 -0.1141,-0.0971 -2.703,-3.7833 0.006,-0.0795 4.624,-4.3144 2.7001,-1.9979 0.254,-0.9309 0.0318,-0.5119 -0.1391,-0.1897 -1.0203,-0.4061 -0.602,0.0351 -1.0712,0.3662 -2.6808,-0.1284 -0.431,-0.2162 -0.3169,-0.4014 4.0203,-5.7481 1.0086,-0.847 2.2901,-0.6919 1.2237,0.2519 2.3795,0.2688 0.3104,-0.1978 4e-4,-1.0801 -0.5071,-0.4106 -0.006,-0.3574 0.731,-1.4953 1.4771,-2.0936 0.7842,-2.696 0.3125,-0.8909 -0.4472,-0.5208 -5.0176,-3.7201 -0.9519,-0.5254 -0.4636,-0.0797 -0.857,-0.4856 -2.4825,-2.0917 -0.3552,-1.112 1.3916,-1.0407 2.6003,-2.4787 2.2021,-4.1727 0.3949,-0.7983 0.5997,-2.0954 0.1739,-1.503 0.3252,-0.9349 0.8657,-1.5435 3.0378,-3.35 3.5242,-2.1011 1.68,-0.8784 0.5018,-2.8016 -0.242,-0.4101 -0.5159,-0.5293 -0.3256,-1.8749 0.2544,-0.4546 3.0888,-3.2341 0.5159,-0.3708 2.7079,-1.6365 0.5289,-0.1587 2.0521,-0.3262 2.4721,0.3978 1.4216,-0.723 1.5049,-1.2038 0.7012,-0.0923 0.4212,-0.4939 0.002,-1.3132 0.402,-0.5028 1.3245,-0.5561 1.5744,-0.3623 1.9809,-2.3789 -0.083,-0.1675 0.0374,-1.1029 0.7966,-0.8518 1.3584,-0.2385 1.7286,0.026 0.8037,0.2205 3.6802,-1.09 0.1212,-0.1013 v -0.1986 l 5.7734,-27.1429 0.6096,-3.1451 0.6979,-3.6005 4.3739,-19.8926 0.5477,-0.6435 8.5405,-8.4847 1.3277,-1.4497 13.2422,-13.1235 10.8012,-11.0024 L 293.9841,65.5925 318.5324,41.4657 359.9874,1 l 0.8539,0.4877 3.1094,0.9566 4.2337,-0.6576 0.6831,-0.194 2.7118,1.0767 1.5997,4e-4 1.8597,0.4198 4.6391,1.347 2.7386,1.1677 1.873,0.8906 0.2214,0.172 0.1174,0.6394 2.75,0.5862 0.3575,-0.0178 2.6908,-1.1912 1.066,-0.5428 1.1054,0.1502 2.2231,0.8955 0.2403,0.1898 0.6564,0.8649 0.4669,2.7394 -0.4354,0.7545 -0.624,0.5646 0.0712,0.3617 0.2339,0.2295 -0.182,0.1455 -0.2924,0.0264 -0.4159,1.0189 0.2208,0.5117 0.2661,0.2737 0.591,0.2957 0.1039,0.2426 -0.9029,0.2645 -0.4806,-0.0487 -1.4355,1.1689 0.116,9.7105 -0.2594,2.2499 1.0635,1.8221 -0.4283,1.2926 -0.2465,0.2866 -0.0258,0.75 0.0907,0.2558 0.3048,0.1015 0.1167,0.2031 0.1359,1.3146 -0.2075,0.794 0.1683,0.7279 0.3372,0.4943 0.1486,1.3808 -0.1943,0.7807 -0.2399,0.1809 -0.201,0.4412 -0.0714,0.4808 0.0778,0.1369 1.956,2.2237 1.3017,0.7944 0.6541,0.084 1.2046,0.4238 3.807,1.581 2.2121,1.0805 2.2283,0.9033 1.1595,0.617 0.5636,0.4588 1.1071,0.3085 1.0235,1.3761 0.5243,0.0176 0.9774,-0.2428 0.1619,0.1278 0.1432,0.6112 0.2648,0.0857 0.2845,-0.0662 1.2428,-0.6884 1.3075,0.7985 1.1392,0.9617 0.3625,0.0574 0.2912,-0.172 0.3428,0.0133 0.8477,0.5294 0.0967,1.0016 0.5565,0.1015 1.3781,0.587 0.8664,1.037 0.5434,0.4015 0.2779,0.0618 0.4275,-0.547 0.5955,-0.2954 0.4788,-0.0175 0.5887,0.1415 1.4947,-0.2154 0.8678,-0.6262 0.6614,-0.3482 0.6546,-0.1635 1.5919,-0.0536 1.0286,-0.2741 0.7892,-0.4812 0.9506,-0.7942 3.3845,-1.4258 0.8281,-0.4629 2.803,-1.5668 1.6638,-0.1104 4.4354,-1.0755 2.0915,0.0492 1.0103,-0.1893 2.39,-0.8327 1.3247,-0.856 1.9033,-0.9097 3.3802,-0.9894 0.8163,-0.0135 0.5248,0.1278 0.4534,0.3131 0.6284,0.1233 1.4407,-0.6071 0.8523,-0.3591 0.5829,-0.1766 0.5312,-0.044 2.2677,0.3067 2.2856,1.1318 0.4081,0.084 0.6736,-0.1587 0.8811,-0.4497 1.1336,-0.0438 1.7427,-0.3258 2.5974,-0.1847 0.1117,-0.008 1.0066,-0.1594 2.2858,-0.8259 0.5958,-0.3708 1.8128,-1.5981 0.259,-0.3044 0.006,-0.375 -0.1882,-0.375 -0.7004,-0.9086 -0.0133,-0.3881 0.3563,-0.3575 0.8423,-0.578 0.1378,-0.3841 0.231,-0.6439 0.3629,-0.3222 1.1081,-0.728 0.8556,-0.3972 1.4393,0.0969 2.0683,0.6483 1.2511,0.2779 0.4148,0.0047 0.9855,-0.1456 1.3616,-0.4232 2.0299,-1.442 1.0766,-0.41 1.0635,-0.2556 2.0363,-0.1049 0.6613,0.0577 1.4064,0.3619 1.0894,0.07 0.8363,-0.1063 1.4976,-0.433 0.7975,-0.1237 0.8819,0.1409 0.7725,0.3727 0.447,0.5005 0.3974,0.6334 0.3553,0.5662 0.3501,0.2779 1.8155,0.4011 1.0826,-0.1808 2.0614,0.2999 0.713,-0.0046 0.7003,-0.2382 1.8089,-0.8908 0.5252,-0.1322 4.4927,0.3544 1.2965,-0.0039 0.8624,-0.1716 0.3569,-0.1851 0.1893,-0.2982 0.045,-0.4252 -0.1359,-0.3839 -0.1228,-0.2646 -0.3304,-0.3443 -1.0496,-0.7902 -0.1618,-0.2735 0.0458,-0.4191 0.5713,-0.5248 0.0845,-0.2601 -0.6396,-2.5366 0.0658,-0.8956 0.7618,-2.5669 0.3316,-0.5601 0.797,-0.8423 0.8149,-0.684 0.8757,-0.5299 0.8047,-0.3489 1.2329,-0.2828 0.3239,-0.0466 3.3308,-0.4793 1.227,-0.084 1.2918,0.066 2.558,0.7055 1.188,0.1368 0.5907,-0.1102 1.1958,-0.5029 0.3558,-0.1497 0.6493,-0.1411 1.0064,-0.0351 1.1227,0.3445 1.1162,0.7105 0.5387,0.2297 0.8825,0.2297 3.3103,0.0056 1.5092,-0.3287 1.0739,-0.1579 1.3505,0.3833 0.5715,0.4366 0.0911,0.1853 0.007,0.6043 0.2405,0.4189 1,0.7101 0.6101,0.2335 0.6425,0.1013 1.3432,-0.1192 0.37,0.0617 4.5301,1.7524 0.5444,0.2106 2.8416,0.2872 1.1934,0.4501 0.3049,0.2428 0.2139,0.5072 -0.2021,1.4468 0.0452,0.4457 0.1878,0.3573 1.3221,1.1166 1.62,1.5489 1.7048,0.3625 0.5441,0.3927 0.7613,0.7495 0.3437,0.1895 5.2463,2.0448 1.8539,0.9217 0.5252,0.3881 0.5123,0.6261 0.2918,0.8823 0.376,0.4499 2.3584,0.6395 0.0826,0.0363 4.6476,2.043 0.6599,0.3934 2.7392,1.0816 0.6989,0.6929 1.8894,1.5445 1.5717,1.6603 1.216,1.1195 0.3281,0.193 0.7914,0.3281 2.8375,0.4246 0.4439,0.1545 1.0809,0.6755 1.5057,0.6369 0.6562,0.6563 0.193,0.7141 0.0603,0.6286 0.0748,0.7804 0.2316,0.5019 0.9072,1.0615 0.3088,0.1737 0.753,0.9072 0.6369,1.2737 1.7149,1.7998 0.2345,0.2461 1.1583,0.5791 1.8143,0.5983 1.3513,2.0266 0.4246,0.4826 1.5248,1.0036 0.2124,0.251 0.413,0.7653 0.1681,1.1399 -0.007,1.0367 0.1032,0.3352 0.5806,0.8385 0.3486,0.2868 0.4906,0.3708 0.6134,0.287 1.4972,0.2953 1.1182,0.326 3.0044,1.1102 2.3389,1.239 0.8719,0.2866 1.7504,0.238 0.4779,0.1544 0.8653,0.4497 1.0865,0.984 1.1974,0.5211 1.9429,0.6792 0.7587,0.3764 0.1455,0.4202 0.0579,0.6176 -0.0217,2.4068 -0.0167,1.8395 0.1351,2.8373 -0.1158,2.0073 0.0579,2.2776 -0.0976,0.6948 0.0354,7.8791 0.068,15.0993 -0.0112,1.7011 -0.0986,14.9221 0.0809,5.663 0.0185,1.4108 0.0745,13.2735 0.095,16.9183 0.009,0.3647 0.4072,17.1592 0.2034,8.5709 0.1329,5.6016 0.1889,12.4713 0.2733,18.0574 1e-4,0.005 0.1252,17.9911 0.1208,17.3673 0.0775,11.144 -0.005,6.5634 -0.0161,0.7118 -0.1607,7.105 0.0149,1.1068 0.0397,2.9303 0.2144,0.9397 0.4552,0.7636 0.1453,0.0264 0.3795,-0.1808 0.2592,0.0355 3.0967,1.7172 1.37,1.5496 -0.2787,0.5645 -0.7402,0.6348 -0.7651,0.3395 -0.7837,-0.0974 -0.2465,0.1233 -0.7155,1.5043 0.1703,0.6619 -0.1772,0.1191 -2.0097,0.5464 -0.8023,-0.009 -0.3918,-0.0928 -3.4692,2.3026 -0.1139,0.1589 -0.1575,1.7085 0.2019,0.9002 0.5951,0.7824 0.7876,1.0354 1.3191,1.5841 1.2685,1.0108 0.9907,0.5429 1.1424,0.4548 0.5553,0.3885 0.8008,1.024 0.2075,0.7811 0.2206,0.2824 1.4947,0.9361 -1.679,0.6475 -0.341,0.2911 -0.2525,0.0529 -1.1419,-0.1635 -0.9403,0.0305 -0.4733,0.1984 -0.082,0.1104 0.0123,0.2733 -4.1586,2.4436 -0.8896,1.7029 0.5736,2.5283 -0.2363,1.5313 -0.1171,0.7586 -0.6999,0.4368 0.5357,2.3339 2.5526,0.9353 2.16,3.7387 -5.393,0.3696 1.2903,6.3978 -2.8458,0.4675 2.3951,2.5988 0.4188,0.4545 6.6908,0.0588 2.78,1.8896 4.612,0.8786 1.9203,0.1384 0.1448,-0.0573 0.3206,-0.4679 -0.0128,-0.5294 -1.07,-0.4629 -1.3984,-1.513 -0.5549,-1.16 -0.1708,-0.9176 0.9065,-0.005 0.4362,0.105 3.3168,1.7556 0.8438,1.1074 1.5677,2.6823 1.032,1.8089 3.321,3.7458 1.7296,1.2542 3.9849,2.0969 1.0755,-0.4982 -0.7659,-1.3592 0.8618,-0.2994 1.5401,0.6489 4.9392,2.8713 4.4067,0.7798 4.2428,1.4644 0.8546,-0.0309 0.1131,-0.4235 1.9736,-0.1542 2.1619,0.5078 3.0784,1.4136 0.0753,0.0346 3.6935,0.1758 1.6446,-0.8635 0.477,-0.609 -0.1094,-0.4442 -0.3942,-0.3807 0.2447,-0.4368 2.5264,-0.5746 4.1108,-0.098 1.1063,0.3483 3.8522,3.6841 0.823,0.9046 0.3486,1.3382 0.5153,4.2702 -0.8537,1.7823 -0.5673,0.0326 -0.1387,-0.1121 -0.3114,-0.0354 -0.3022,0.0709 -0.4484,0.9865 -0.1382,0.9903 0.0446,0.3857 0.5476,1.696 2.2513,1.7145 0.7965,1.4665 -0.009,0.2641 -0.1844,0.0312 -0.685,-0.5923 -0.3248,-0.1562 -0.3075,-0.009 -0.1604,0.3349 -0.116,0.2422 -0.3132,0.2429 -0.0803,0.0623 -0.3799,-0.0494 -3.9156,-0.6449 -0.195,-0.0567 -2.2976,-0.6686 -1.4542,0.6531 -0.0953,0.1984 0.0343,0.813 -1.1818,0.5457 -2.1513,0.6713 -2.0012,0.4807 -0.2076,0.0499 -0.7032,0.2557 -0.1318,0.2251 0.1185,0.6089 0.6543,1.4123 1.0454,0.9654 1.4368,0.9697 0.8789,1.3895 0.0819,0.4897 -0.564,0.4414 0.1009,0.781 0.2405,0.6869 0.4926,1.4073 0.6427,1.8365 0.7401,1.2086 0.4074,0.3573 0.439,0.2586 1.8971,1.1176 0.1267,0.0747 2.0053,1.5705 3.4945,2.8678 0.2553,0.3563 0.217,0.3029 1.6998,2.3721 -0.0502,0.2381 -0.4813,0.376 -0.4386,0.1191 -0.6697,-0.0442 -0.5509,0.3528 -0.219,0.2075 -0.5885,1.0324 0.1438,0.7941 0.3042,0.3103 0.6385,0.6512 0.165,0.1682 -0.5196,1.2971 -0.0881,0.1683 -0.6541,1.2508 -0.1277,0.2442 -1.3575,1.0678 -0.1712,0.0951 -1.477,0.8204 -0.5599,0.3111 -0.5441,0.3486 -0.0749,0.1544 0.0564,0.331 0.7944,0.8294 2e-4,0.5383 -0.2063,0.4985 -1.3932,2.6785 -1.0189,0.6091 -0.0498,0.5912 -0.0749,0.0662 -2.5499,0.7817 -0.5066,-0.3175 -0.375,-0.088 -0.2751,0.084 -0.1623,0.1544 -0.5675,1.5402 0.0253,0.2646 0.321,0.4633 4.6516,6.7139 0.2874,0.2604 0.3561,0.1587 1.3054,0.1542 2.6043,2.7176 0.5557,0.8471 1.0984,2.4357 0.4491,2.1179 0.0375,1.1297 4.198,2.6613 0.3449,1.7349 0.134,0.674 -0.1374,0.4015 v 0.3884 l 0.143,0.5647 2.3681,0.9796 0.3437,0.1422 1.3403,0.358 5.1183,3.9524 0.7109,0.4452 1.5149,0.5951 0.9133,0.1829 0.009,0.002 0.1809,-0.0307 1.9378,-1.1696 2.194,-1.4957 2.4896,-1.0393 0.0177,-0.007 1.4018,-0.3563 0.3928,-0.2471 0.2496,-0.3308 0.0999,-0.7411 -0.5049,-0.3399 -0.9168,-0.3575 -0.1619,-0.8163 0.6427,-1.4647 0.6423,-0.2824 0.8673,-0.2027 -0.056,-0.5869 -0.343,-0.3133 -0.0498,-0.3574 0.2675,-0.8201 0.3384,-1.0373 0.1561,-0.2073 1.1919,-0.6483 2.4209,0.1816 1.8402,0.6362 0.7232,0.512 2.1421,0.8429 0.5182,0.4808 0.3318,1.1647 0.3185,0.2071 1.4661,0.4979 0.5493,0.5864 0.5553,0.3661 0.8045,-0.009 3.7103,-1.4876 2.464,1.0676 4.4966,0.2472 1.2783,0.3312 0.3554,0.1325 0.287,0.2294 2.3677,2.7673 3.2266,2.7985 1.1893,1.4286 1.9994,2.4017 3.4123,7.1154 0.7622,1.3004 -2.917,0.5664 -0.08,0.0615 -2.1954,1.6865 2.949,1.9267 0.5134,0.3354 2.5454,2.218 0.8661,0.7548 1.382,1.9984 0.0246,0.1244 0.1683,0.8506 0.2242,1.1337 0.8645,1.4119 2.6374,2.7504 0.7409,1.8775 1.0082,2.5547 0.1635,0.4144 0.0193,0.0489 0.1055,0.2673 0.4609,1.1678 0.4619,1.1706 0.188,0.4762 0.9313,1.0635 0.3943,0.2652 0.5093,0.3425 5.1485,3.4624 1.0616,0.095 1.0665,0.0955 0.03,0.003 1.249,1.0187 0.1752,1.7912 -0.4522,1.1826 -0.6435,0.1293 -0.002,0.0257 -0.2086,2.604 -0.005,0.0588 0.5725,1.1998 0.2192,0.4595 0.0974,0.2041 1.4674,3.0754 -0.2802,0.1471 -1.905,1.0005 -0.6749,0.3544 -0.6877,0.8738 1.3709,3.2237 0.5988,1.408 2.1828,0.9963 0.2266,-0.0946 1.4219,-0.594 2.7709,-0.1944 0.4279,0.5117 -0.1301,0.5559 -2.0264,1.4032 -1.729,0.3003 -1.2033,-0.5022 -0.0265,0.007 -0.639,0.177 -0.15,0.1335 -1.7112,1.5225 -1.1201,1.4876 -0.5231,0.4145 -4.2502,3.3674 -0.0126,0.01 -1.1967,0.6231 -3.3198,0.6037 -1.4069,-0.7589 -0.8726,-0.4707 -1.3664,0.3666 -0.0279,0.295 -0.0423,0.4476 -0.0265,0.2798 -0.0706,0.7472 -0.039,0.4123 -0.6074,0.9761 -0.8901,1.4304 -0.4579,0.7359 -1.9374,0.3972 -0.3565,-0.1098 -1.3933,-0.4294 -0.5341,0.1155 -0.699,0.1511 -0.003,0.0118 -0.2667,1.2664 -0.7009,3.3285 -1.369,1.2141 -1.2845,1.1391 -2.1399,1.8976 -2.0106,0.3034 -1.7086,1.879 -1.3623,2.8322 0.1236,0.256 -2.9682,1.1598 -2.1844,-0.2919 -0.1178,-0.0158 -0.9316,0.2025 -0.1765,0.2307 -0.144,0.1884 -0.3401,0.4447 -0.1714,0.2242 -0.2212,0.2892 0.1215,1.4987 0.3882,0.4279 -0.2041,0.0546 -1.5992,0.4278 -1.4426,0.3859 -1.3088,0.3502 -4.0511,0.3849 -0.0504,0.005 -1.502,-0.5163 -0.219,-0.0752 -0.7853,-0.27 -0.7696,0.1621 -1.4828,0.9386 -2.9323,1.8562 -0.1841,0.5262 -0.3829,1.094 0.248,0.4407 0.5209,0.9253 -0.1048,0.0705 -0.9851,0.6624 -0.0844,0.0567 -0.8519,0.4496 -1.7537,0.9256 -0.1435,0.0757 -1.7417,0.3748 -2.2343,-0.1593 -0.1805,-0.0128 -1.5503,-2.1577 0.0925,-0.5914 0.0605,-0.004 0.4602,-0.0295 1.7464,-0.1121 0.0779,-0.0963 1.8263,-2.2566 1.3925,-1.7205 0.002,-0.0249 0.2301,-2.7041 -1.1556,-1.143 -2.1575,-0.9533 -0.0875,0.0137 -2.8037,0.4405 -0.3042,0.0478 -0.2597,-1.9478 -0.006,-0.0424 1.0614,-1.3268 2.462,1.6515 0.0336,-0.6258 0.0102,-0.1901 0.2023,-3.7675 0.0228,-0.4255 1.4987,-1.0531 0.1632,-1.5093 0.0237,-0.2189 -0.4617,-0.0862 -1.3454,-0.2514 -0.2378,0.0483 -0.1242,0.0253 -1.7576,0.3571 -1.3975,0.284 -3.9282,0.7982 -0.1291,0.0263 -1.5797,0.081 -1.507,1.2482 -0.9657,0.7999 -1.5373,1.2733 -0.3163,0.8885 -0.1126,0.3163 -0.4217,1.185 0.405,0.7696 0.0851,0.0426 0.887,0.4435 0.1163,0.1816 0.6641,1.0377 0.5158,0.8059 0.0701,0.3499 0.2606,1.2992 0.1766,0.881 0.1548,0.7717 0.137,0.6833 -0.9865,1.3806 -1.7921,0.9487 -0.7103,-0.5664 -1.0367,-0.8266 -0.405,0.081 -0.3115,0.5955 -1.0657,2.0373 -0.6076,1.9848 -1.2556,1.6202 -1.2204,-0.5245 -1.3719,-1.2577 -0.0518,-0.136 -0.2723,-0.7146 -0.6654,-0.108 -0.8333,-0.1351 -0.7911,0.1734 -2.1657,0.4747 -0.0292,0.0194 -0.6999,0.4667 -0.2026,0.567 -0.0307,0.008 -0.2367,0.0592 -1.3944,0.3486 -0.1204,0.0301 -1.3534,-0.7792 -1.9147,-1.1025 -0.3535,-0.2035 -0.5125,-0.2951 -2.5492,-1.4677 -0.0337,-0.2921 -0.2094,-1.8142 -0.157,-0.1028 -2.1922,-1.4364 -0.0269,0.006 -3.1234,0.6941 -0.1307,0.029 -0.243,1.2557 -1.2962,0.8911 -0.6075,0.081 -0.0399,-0.0305 -0.6252,-0.4794 -0.0948,-0.0726 -0.4553,-0.3491 -0.2827,-0.0188 -0.3249,-0.0217 -0.3551,0.2112 -0.9855,0.5859 -0.158,0.094 -0.0126,0.0231 -0.2305,0.4225 -0.003,0.009 -0.6181,1.608 -0.6081,1.5822 -3.1449,8.1827 1.0076,0.7472 1.4505,3.3494 -1.1268,1.6055 -2.2473,0.1598 -6.6854,0.4754 -0.6099,0.0433 -5.2214,0.3713 -0.7441,0.0529 -0.8911,-0.081 -0.0831,-0.2215 -0.1616,-0.4311 -0.4844,-1.2916 -0.5882,-0.2614 -0.1409,-0.0626 -0.2642,0.004 -2.349,0.0391 -1.1922,0.0199 -1.0552,0.0176 -0.8837,0.2827 -0.7813,0.25 -0.3603,0.1153 -1.1148,1.0406 -0.1003,0.0936 0.4097,1.32 0.0769,0.248 0.2425,0.7813 -0.8911,2.1062 -1.4953,1.3414 -0.5702,0.5115 -1.3516,-0.5113 -0.025,-0.01 -0.2999,-0.1135 -2.1444,0.4385 -0.023,-0.003 -1.7849,-0.2222 0.1088,-1.6904 0.5237,-0.5343 -0.0663,-0.4049 -0.0216,-0.132 -0.3359,-2.0518 -0.1294,-0.7907 -1.4474,-2.2825 -0.5334,-0.8411 -0.1254,-0.1978 -0.9722,-0.5671 -0.7251,-0.145 -0.8951,-0.179 -0.333,0.0416 -0.3559,0.0445 -0.6072,0.0759 -1.0532,0.7291 -0.0795,0.3049 -0.0185,0.071 -0.2322,0.8899 -0.1558,0.5974 0.081,2.5924 -0.6936,-0.005 -1.7983,-0.0124 -0.5393,-0.004 -1.0193,-0.6272 -0.1951,-0.3901 -0.372,-0.7441 v -1.3771 l -0.6481,-1.3772 -10e-4,-8e-4 -0.9077,-0.5809 -2.9578,-1.893 -0.1839,-0.1176 -1.9442,-0.2431 -0.8911,0.4861 -0.1818,0.6663 -0.0613,0.2248 0.0143,0.0498 0.308,1.0782 0.1638,0.5732 -0.1587,0.2232 -1.0751,1.5118 -0.8807,1.2385 -0.4778,0.672 0.3839,3.4556 0.1831,1.648 0.4861,0.9721 -0.081,1.4582 -0.7588,1.2015 -1.0451,0.2124 -1.1209,1.1125 -0.3808,1.2623 v 2e-4 l -0.0191,1.5856 -4e-4,0.0338 1.7473,2.8782 0.916,1.5088 0.6394,1.0532 0.0129,0.8518 -0.6584,0.9357 -0.665,-0.2534 -1.5066,-0.574 -0.4819,-0.1836 -0.106,-0.1198 -1.7573,-1.9865 -0.4588,0.1311 -1.2424,0.355 v 1.2961 l -0.909,3.2201 -0.01,0.02 -1.4452,2.989 -2.3347,-4.8519 -0.324,-2.1063 -1.5392,-0.567 -0.9721,0.243 -0.8101,0.5671 0.5671,1.4582 -0.7406,1.8271 -0.9802,0.1276 -2.0867,-0.9016 -1.6202,-0.081 -0.2611,0.1678 -0.8731,0.5613 v 2.2794 0.3129 l -0.7023,0.4897 -2.6297,1.8333 -1.3109,0.0226 -0.7565,-0.8457 -0.8733,-0.9765 -0.6131,-0.6854 -0.6481,-1.2962 -1.0531,-0.5671 -0.8911,0.4051 -0.1347,0.1603 -0.4665,0.5554 -0.9635,1.147 -0.1366,0.1625 1.07,1.2963 -0.8557,1.2603 -1.4872,2.1902 -0.1689,0.2488 -0.3873,0.5704 -0.7463,1.0991 -0.2599,0.3828 -0.4889,-0.0376 -0.5642,-0.0434 -0.8912,0.5671 -0.081,1.2962 0.3241,1.4581 -0.0634,0.1303 -0.4494,0.9233 -0.1963,0.4032 -0.5063,1.0403 -2.1274,-0.2428 -1.2914,-0.7149 -0.0503,-0.0682 -1.6905,-2.2929 -0.1048,-1.4568 -0.2441,-3.3922 -1.6202,-0.6481 -0.4309,0.5747 -0.2982,0.3975 -0.567,0.081 -2.0913,-2.7335 -1.6352,-3.1803 -0.007,-0.3353 -0.0322,-1.5108 -0.0155,-0.7316 -0.0262,-1.2297 -0.3897,-0.8226 -0.3394,-0.7166 -0.0692,-0.3375 -0.5789,-2.8219 0.0192,-0.6327 0.0461,-1.5217 0.0157,-0.519 0.8101,-1.6202 -0.486,-1.3771 -1.0532,-0.7291 -1.8207,-0.2345 -2.0938,-0.2697 -1.4321,-0.1844 -0.1522,0.0532 -1.2085,0.423 -0.2595,0.0908 -0.0421,0.0264 -0.606,0.3787 -0.0321,0.3208 -0.0489,0.4893 -1.5392,0.5671 -1.1058,-0.079 -2.0743,-0.1482 -1.3565,-0.0969 0.2023,-0.2697 0.7698,-1.0264 -0.081,-1.2152 -0.405,-0.486 -3.9896,-0.9207 -0.223,-0.0515 -1.9442,1.0532 -0.039,0.0828 -0.1833,0.3895 -0.4258,0.9048 0.3476,1.8374 0.1731,0.9149 0.0464,0.2451 -0.9721,0.162 -2.9164,-1.4581 -1.5392,-2.3493 -1.3549,-0.1232 -0.4273,-0.0389 -0.3349,0.6699 -0.7898,1.5795 -0.0905,0.1809 -0.3866,1.8044 -0.0994,0.4639 -0.4058,0.3246 -1.6195,1.2956 -3.3214,0.4051 -0.0704,0.9503 -0.0848,1.1456 -0.007,0.0914 0.8101,0.9721 0.1172,-0.0335 4.9864,-1.4247 2.255,0.7667 0.255,0.0867 1.5405,0.5238 0.5671,0.648 0.0956,1.0516 0.0664,0.7307 -1.2151,0.567 v 0.5671 l 0.2796,0.1978 6.3632,4.5008 1.1341,-0.4861 1.182,0.1195 1.2744,1.1606 2.3944,3.3211 0.0368,0.0957 1.6555,4.2947 0.2079,0.5394 0.202,2.848 0.006,0.0871 -0.0563,0.0669 -2.794,3.3134 -0.6849,0.8124 -0.9256,0.4035 -1.1402,0.4971 -2.3712,1.0337 -1.604,0.6992 -1.9712,0.8594 -0.3155,-0.002 -1.554,-0.0118 -1.1408,-0.009 -2.0448,-0.0155 -1.7082,-0.013 -1.286,-0.01 -0.8574,0.3025 -0.8856,0.3126 -1.0114,0.357 -0.5327,0.4566 -0.5178,0.4438 -0.3229,0.2768 -0.3278,0.281 -0.081,1.8632 0.1908,0.6881 0.003,0.01 0.4585,0.2536 0.8583,2.7115 -2.4932,2.1022 -0.9194,0.7753 -1.7543,1.4792 -0.5462,0.055 -0.3176,0.032 -3.3651,0.3392 -0.7015,-1.2763 -0.1626,-0.0612 -3.0001,-1.1289 -1.1283,-0.4246 -0.3745,-0.4636 -0.2188,-0.2708 -0.2549,-0.3156 -1.5872,-0.8207 -1.4923,0.0625 -0.798,0.0335 -2.2042,-0.9995 -0.9621,-1.1707 -2.2889,-2.7852 -0.297,-0.3614 -0.3188,-1.9023 -0.9274,-2.0525 -0.934,-0.6798 0.018,-2.6992 0.1851,-0.0947 1.8467,-0.9438 1.6137,-0.8248 0.1029,-0.1175 0.4641,-0.5305 -0.0767,-0.3455 -0.0853,-0.3836 -1.3889,-0.7937 -0.8794,-0.5025 0.0269,-0.2971 0.002,-0.0197 0.8411,-1.3412 1.3986,-2.2305 0.0458,-0.005 0.6833,-0.0759 0.9867,-0.7513 0.6702,-0.5103 0.184,-0.1401 0.1998,-1.0848 -0.2027,-0.5337 -0.1137,-0.2993 -0.1697,-0.4466 0.4491,-0.214 3.688,-1.7573 1.7441,-0.831 0.7421,0.3425 0.0309,-0.007 0.6257,-0.136 0.4282,-0.5138 -0.1896,-2.0287 -0.3751,-0.5851 -0.5684,-0.8864 -1.3983,-2.181 -0.2375,-0.3704 -0.1353,-0.1292 -0.621,-0.5935 -0.5283,-0.5047 -1.6556,-0.1713 -0.628,0.6851 -0.1982,1.1351 -0.1158,0.6632 -1.99,1.6766 -2.0041,1.6885 -0.6099,0.5139 -1.0366,0.3014 -1.1757,-0.075 -1.1633,-0.9138 0.2596,-4.8369 0.5614,-2.4208 -1.8595,-1.7191 -0.6841,-0.1141 -0.9999,-0.1666 -1.3683,0.3859 -0.9473,0.8069 -0.7367,1.2982 0.4953,2.4362 0.4642,2.2831 -1.0146,2.7143 -0.0301,1.3505 0.6157,1.0504 v 0.3231 1.0541 l -0.9721,0.243 -0.264,-0.0182 -0.1861,-0.0128 -1.8992,-0.131 -0.9722,-1.9443 0.1081,-0.3961 0.378,-1.3861 1.5392,-1.2961 -1.0009,-3.7811 -0.4573,-1.7276 -0.6489,-0.2163 -0.3232,-0.1078 -1.7822,0.8911 -0.2618,0.8071 -0.7104,2.1903 -0.8502,0.3644 -0.2839,0.1217 -1.7291,-0.3241 -1.4782,1.3711 -1.4913,1.3833 -0.8911,0.243 -1.1662,-0.3332 -2.8033,-0.8009 -1.1341,0.162 -0.5446,0.4901 -0.2655,0.239 -0.001,0.004 -0.2014,0.7382 -0.0406,0.1489 0.1749,0.9617 0.1443,0.7938 0.005,0.0267 1.0531,2.1063 1.7822,0.486 0.8911,3.2404 -1.6287,1.6877 -1.6511,2.3374 -0.1509,0.2137 -0.7193,2.9793 0.1414,0.8871 0.4243,0.9622 1.4995,1.3902 3.4049,0.177 0.1047,-0.0249 1.4131,-0.3364 0.6182,1.2597 -0.9144,1.7193 0.7055,1.9731 1.7554,2.1369 -0.0585,0.9336 -1.9268,2.0488 0.3183,1.608 0.9019,1.0508 -0.3516,1.5953 -1.7938,-0.343 -3.1281,-1.3903 -0.0696,-0.3476 -0.0604,-0.051 -2.164,-1.8259 -1.1724,-0.5443 -0.774,-0.3594 -0.6496,-0.4661 -2.235,-1.604 -1.4025,-1.0065 -0.7391,-0.5304 -0.8826,-0.6334 -2.3635,-0.139 -1.8093,-0.8735 -0.2066,-0.0997 -0.278,-0.7647 -0.1625,-0.116 -0.3241,-0.2315 -0.1175,-0.0288 -8.1644,-1.9995 -1.9368,-0.4743 -0.1039,-0.0545 -2.4843,-1.3033 -4.6799,-2.4553 -0.9692,-0.5084 -1.4181,-1.3119 -2.1818,-0.4576 -0.3583,-0.0752 -1.0305,0.1008 -2.0301,0.1986 -0.806,0.4984 -0.2055,0.2521 -0.669,0.8207 -0.1469,0.1802 -0.6135,0.3296 -3.4919,1.8756 -0.4447,0.2389 -1.3444,-0.1799 -0.8862,-0.1186 -3.9717,-0.5314 -0.2277,-0.8472 0.0151,-0.0923 0.5558,-3.3815 0.7929,-2.9043 0.7072,-0.6753 0.1533,-0.4918 0.2003,-0.6428 0.1938,-0.622 -0.0298,-0.0985 -0.7214,-2.3881 -0.116,-1.2815 -0.2359,-2.6077 -0.2062,-2.279 -0.0333,-0.3678 10e-4,-0.003 1.0086,-2.9965 0.2337,-0.6944 2.6425,-1.2976 1.8825,-3.3266 0.4299,-0.7597 0.7249,-1.281 0.217,-1.1019 0.201,-1.0209 0.0103,-0.0521 -2.418,0.4713 -2.5728,0.5015 -0.1009,0.0197 -3.6854,1.2536 -5.7595,3.3428 -0.3822,0.302 -0.7238,0.5718 -0.9633,0.7611 -2.0376,1.6098 -1.2006,-0.4948 -0.5475,-0.9244 -0.2892,-0.4883 -0.381,-1.0461 0.1403,-0.3204 -0.7669,-0.8488 -0.1438,-0.1592 -0.0603,-0.0667 -0.7393,-0.2739 -0.2712,0.0411 -4.8177,0.7309 -0.0294,0.005 -0.3223,0.6723 -0.5428,1.1322 -2.8044,1.8345 -0.0228,0.0149 -2.1527,0.1748 -4.7701,0.3875 -0.0253,0.0339 -1.5802,2.1205 0.0104,0.0297 1.2177,3.4742 0.027,0.0508 0.2452,0.4624 0.8066,1.521 0.0556,0.0253 2.1669,0.9849 1.1946,1.1639 2.4989,3.7047 -1.2161,6.144 -0.8539,1.8716 -3.8827,3.4792 -0.478,0.0339 -2.4315,0.1719 -1.8091,0.1279 -0.0444,0.003 -0.0788,1.1649 -0.162,2.391 -0.0272,0.4029 -0.6788,0.9624 -1.6335,2.316 -0.1954,0.1345 z"
       id="path167" />
  </g>
</svg>
