<?xml version="1.0" encoding="UTF-8" standalone="no"?>
<svg
   xmlns:dc="http://purl.org/dc/elements/1.1/"
   xmlns:cc="http://creativecommons.org/ns#"
   xmlns:rdf="http://www.w3.org/1999/02/22-rdf-syntax-ns#"
   xmlns:svg="http://www.w3.org/2000/svg"
   xmlns="http://www.w3.org/2000/svg"
   xmlns:sodipodi="http://sodipodi.sourceforge.net/DTD/sodipodi-0.dtd"
   xmlns:inkscape="http://www.inkscape.org/namespaces/inkscape"
   version="1.1"
   id="svg86"
   width="75"
   height="75"
   viewBox="0 0 68.26667 106.66667"
   sodipodi:docname="ME.svg"
   inkscape:version="1.0.1 (3bc2e813f5, 2020-09-07)">
  <metadata
     id="metadata92">
    <rdf:RDF>
      <cc:Work
         rdf:about="">
        <dc:format>image/svg+xml</dc:format>
        <dc:type
           rdf:resource="http://purl.org/dc/dcmitype/StillImage" />
        <dc:title></dc:title>
      </cc:Work>
    </rdf:RDF>
  </metadata>
  <defs
     id="defs90" />
  <sodipodi:namedview
     pagecolor="#ffffff"
     bordercolor="#666666"
     borderopacity="1"
     objecttolerance="10"
     gridtolerance="10"
     guidetolerance="10"
     inkscape:pageopacity="0"
     inkscape:pageshadow="2"
     inkscape:window-width="1440"
     inkscape:window-height="877"
     id="namedview88"
     showgrid="false"
     inkscape:zoom="6.2624997"
     inkscape:cx="34.133335"
     inkscape:cy="53.333336"
     inkscape:window-x="1432"
     inkscape:window-y="-8"
     inkscape:window-maximized="1"
     inkscape:current-layer="g94" />
  <g
     inkscape:groupmode="layer"
     inkscape:label="Image"
     id="g94">
    <path
       style="stroke-width:1.06667"
       d="m 22.801877,100.77106 -3.331457,-4.237724 -7.522417,-17.6 L 4.4255854,61.333335 6.3310862,60.622595 8.2365869,59.911854 8.9544213,58.041207 9.6722557,56.170561 8.6057878,55.511447 7.5393199,54.852335 9.09582,49.680477 l 1.5565,-5.171856 -1.1632412,-9.863284 -1.1632414,-9.863285 1.7296216,-8.363566 1.729622,-8.3635664 1.112602,-1.0941264 1.112601,-1.0941264 1.379117,1.8666668 1.379117,1.8666667 h 1.278289 1.278289 l 4.119336,-3.3103883 4.119336,-3.3103881 3.447468,1.9770548 3.447468,1.9770548 5.170649,10.9774035 5.170649,10.977402 v 2.622598 2.622597 l 1.866667,0.169007 1.866667,0.169007 1.651922,-0.118382 1.651922,-0.118381 1.192078,3.158175 1.192078,3.158175 3.214621,0.642923 3.214621,0.642925 2.308729,2.457529 2.308727,2.457528 -0.716458,2.257358 -0.716457,2.257359 -2.839992,2.633389 -2.839991,2.633389 h -1.344234 -1.344233 v 2.119019 2.119019 l -3.733333,1.559885 -3.733334,1.559887 v 2.116911 2.116911 l -2.888271,0.337518 -2.888271,0.337517 -1.122578,4.635022 -1.122579,4.635021 -2.857644,2.298313 -2.857645,2.298311 -2.2517,1.6 -2.251702,1.6 -0.479064,5.223147 -0.479065,5.223147 -0.973023,1.176853 -0.973023,1.176854 -0.361052,3.17106 -0.36105,3.17106 z"
       id="path98" />
  </g>
</svg>
