<?xml version="1.0" encoding="UTF-8" standalone="no"?>
<svg
   xmlns:dc="http://purl.org/dc/elements/1.1/"
   xmlns:cc="http://creativecommons.org/ns#"
   xmlns:rdf="http://www.w3.org/1999/02/22-rdf-syntax-ns#"
   xmlns:svg="http://www.w3.org/2000/svg"
   xmlns="http://www.w3.org/2000/svg"
   xmlns:sodipodi="http://sodipodi.sourceforge.net/DTD/sodipodi-0.dtd"
   xmlns:inkscape="http://www.inkscape.org/namespaces/inkscape"
   version="1.1"
   id="svg1187"
   width="75"
   height="75"
   viewBox="0 0 136.53333 120.53333"
   sodipodi:docname="MI.svg"
   inkscape:version="1.0.1 (3bc2e813f5, 2020-09-07)">
  <metadata
     id="metadata1193">
    <rdf:RDF>
      <cc:Work
         rdf:about="">
        <dc:format>image/svg+xml</dc:format>
        <dc:type
           rdf:resource="http://purl.org/dc/dcmitype/StillImage" />
        <dc:title></dc:title>
      </cc:Work>
    </rdf:RDF>
  </metadata>
  <defs
     id="defs1191" />
  <sodipodi:namedview
     pagecolor="#ffffff"
     bordercolor="#666666"
     borderopacity="1"
     objecttolerance="10"
     gridtolerance="10"
     guidetolerance="10"
     inkscape:pageopacity="0"
     inkscape:pageshadow="2"
     inkscape:window-width="1440"
     inkscape:window-height="877"
     id="namedview1189"
     showgrid="false"
     inkscape:zoom="5.5420354"
     inkscape:cx="68.266663"
     inkscape:cy="96.354491"
     inkscape:window-x="-8"
     inkscape:window-y="-8"
     inkscape:window-maximized="1"
     inkscape:current-layer="g1195" />
  <g
     inkscape:groupmode="layer"
     inkscape:label="Image"
     id="g1195">
    <path
       style="stroke-width:1.06667"
       d="m 70.930288,118.49421 0.0049,-0.26667 2.63641,-6.4 2.636409,-6.4 0.02532,-5.990016 0.02535,-5.990019 -3.89804,-7.791725 -3.898041,-7.791724 0.361818,-7.55159 0.361818,-7.551589 0.06956,-3.833368 0.06956,-3.833369 1.246051,-1.50409 1.246052,-1.504091 2.7411,-4.795874 2.7411,-4.795874 0.01285,3.597275 0.01285,3.597273 1.668571,-1.38479 1.668572,-1.384792 -0.632822,-2.521363 -0.632822,-2.521363 1.630917,-2.328459 1.630917,-2.32846 v -2.776725 -2.776726 l 2.479234,-2.32912 2.479237,-2.32912 3.6541,1.181921 3.6541,1.181922 3.3612,1.494597 3.361201,1.494597 h 2.75416 2.75416 l 2.68463,5.297873 2.68464,5.297874 v 6.209921 6.209922 l -2.13333,4.184409 -2.13333,4.18441 v 2.86034 2.86034 l 1.68724,0.647455 1.68723,0.647455 h 0.49825 0.49824 l 1.92627,-4.302469 1.92629,-4.302468 2.02157,-1.530274 2.02157,-1.530274 1.70135,-0.03392 1.70134,-0.03392 1.61934,1.866666 1.61934,1.866667 1.94975,5.333333 1.94975,5.333333 1.30754,2.133333 1.30753,2.133334 0.35537,5.333333 0.35536,5.333333 -2.20615,-0.219745 -2.20617,-0.219746 -1.79911,5.019746 -1.79912,5.019745 0.005,2.986306 0.005,2.9863 -1.61941,3.13158 -1.6194,3.13158 -2.91393,0.66015 -2.91393,0.66016 -6.31619,1.56522 -6.3162,1.56521 -1.77089,-0.46309 -1.7709,-0.46311 -13.246241,2.47621 -13.246361,2.47619 -1.866666,0.0436 -1.866667,0.0436 0.0049,-0.26667 z M 43.890669,46.410221 42.125349,44.459565 V 40.74415 37.028736 l -3.156808,-2.333929 -3.156808,-2.333929 -4.043192,-0.08695 -4.043192,-0.08695 -12.718925,-3.913054 -12.7189244,-3.913053 -0.323131,-1.066666 -0.323132,-1.066667 4.145817,-2.933333 4.145817,-2.933333 h 1.7600914 1.76009 l 5.802816,-5.488061 5.802814,-5.4880621 v 1.2213944 1.2213944 h 1.03319 1.033189 L 26.592821,6.4405476 26.06058,5.0535505 29.762071,3.2884323 33.463563,1.523314 l -2.114913,3.58451 -2.114913,3.58451 5.645806,1.87241 5.645806,1.872409 3.304455,2.63252 3.304454,2.632521 4.963039,0.129343 4.963039,0.129342 -8.28e-4,-0.698644 -8.26e-4,-0.698643 4.752601,-2.78521 4.752603,-2.785211 3.514064,-0.668486 3.514065,-0.6684864 2.824897,-1.4189778 2.824897,-1.4189779 0.658014,2.6217393 0.658014,2.6217398 2.762979,0.693464 2.762983,0.693463 3.76435,-1.795094 3.76435,-1.7950954 -0.64604,3.2302014 -0.64604,3.230199 2.10246,1.125206 2.10247,1.125205 v 1.56247 1.562471 h -4.26667 -4.26666 v 1.6 1.6 h -0.38775 -0.38774 l -5.698842,-1.080763 -5.698838,-1.080763 -4.568459,2.14743 -4.568459,2.147429 h -0.989324 -0.989325 l -2.188508,2.933333 -2.188508,2.933333 -0.03379,-1.386423 -0.03379,-1.386422 -4.785189,3.999922 -4.785189,3.999922 -1.700535,5.119833 -1.700536,5.119835 h -0.815622 -0.815622 z"
       id="path1199" />
  </g>
</svg>
