<?xml version="1.0" encoding="UTF-8" standalone="no"?>
<svg
   xmlns:dc="http://purl.org/dc/elements/1.1/"
   xmlns:cc="http://creativecommons.org/ns#"
   xmlns:rdf="http://www.w3.org/1999/02/22-rdf-syntax-ns#"
   xmlns:svg="http://www.w3.org/2000/svg"
   xmlns="http://www.w3.org/2000/svg"
   xmlns:sodipodi="http://sodipodi.sourceforge.net/DTD/sodipodi-0.dtd"
   xmlns:inkscape="http://www.inkscape.org/namespaces/inkscape"
   enable_background="new 0 0 1000 589"
   viewBox="50 0 1e3 589"
   width="85"
   height="85"
   id="svg"
   inkscape:version="1.0.1 (3bc2e813f5, 2020-09-07)"
   sodipodi:docname="MW.svg"
   version="1.1">
  <metadata
     id="metadata106">
    <rdf:RDF>
      <cc:Work
         rdf:about="">
        <dc:format>image/svg+xml</dc:format>
        <dc:type
           rdf:resource="http://purl.org/dc/dcmitype/StillImage" />
      </cc:Work>
    </rdf:RDF>
  </metadata>
  <sodipodi:namedview
     pagecolor="#ffffff"
     bordercolor="#666666"
     borderopacity="1"
     objecttolerance="10"
     gridtolerance="10"
     guidetolerance="10"
     inkscape:pageopacity="0"
     inkscape:pageshadow="2"
     inkscape:window-width="1440"
     inkscape:window-height="877"
     id="namedview69"
     showgrid="false"
     inkscape:zoom="0.80893016"
     inkscape:cx="544.72981"
     inkscape:cy="310.47775"
     inkscape:window-x="1432"
     inkscape:window-y="-8"
     inkscape:window-maximized="1"
     inkscape:current-layer="svg"
     inkscape:document-rotation="0" />
  <defs
     id="defs4">
    <style
       id="style6">path{fill-rule:evenodd}</style>
  </defs>
  <path
     inkscape:connector-curvature="0"
     id="MN"
     data-name="Minnesota"
     data-id="MN"
     d="m 106.09773,54.735476 4.58555,16.278696 9.62965,58.695008 4.58554,23.3863 1.37566,20.63497 5.27341,12.38098 1.14637,10.54675 0.9171,3.43917 -0.22937,0.68784 -9.17108,15.13229 5.96121,10.08821 11.46386,80.70565 0.45856,10.54675 11.46386,-0.68783 45.16766,-2.52205 112.80446,-9.40037 11.23461,-1.1464 v -1.14638 l -3.2099,-17.65435 -13.98591,-7.10761 -11.00532,-11.46385 -17.42506,-10.54678 -5.50267,-0.45854 -8.48325,-6.41978 2.29277,-31.64028 -8.02472,-7.33687 2.75134,-12.83955 14.67376,-13.29809 -2.52207,-27.51327 5.27337,-5.96121 v 0 l 17.88366,-18.80076 20.40567,-26.13762 7.79544,-5.502651 13.75665,-6.649044 14.44445,-10.77604 -9.62964,1.834218 -5.73194,-4.356277 -22.01063,2.980608 -3.43915,-4.126986 -19.71786,8.024702 -15.82015,-6.649044 -4.35625,-5.273374 -12.61027,0.917109 -8.48325,-4.356272 2.75133,-3.209885 -10.77604,-3.43916 h -9.62966 l -15.36158,6.649045 -2.98061,-4.585549 -24.3034,-3.439162 -8.25398,-20.634963 -0.91713,-6.190492 -10.54675,-2.980605 0.91711,17.654359 -27.97184,2.063496 -34.62089,1.375666 -2.29277,0.22927 z"
     style="stroke-width:2.36214" />
  <path
     inkscape:connector-curvature="0"
     id="WI"
     data-name="Wisconsin"
     data-id="WI"
     d="m 427.37965,395.13326 -6.71259,8.3236 -4.02754,12.08265 1.87953,6.71256 z m -154.1209,-63.09829 4.02755,-5.63857 -2.95356,2.68502 z m 6.17556,-8.86062 -1.34249,-1.61104 -2.95356,1.87957 4.29605,-0.26862 z m -58.53371,15.03619 -6.17557,6.98109 2.95354,32.22038 -17.18421,15.5732 -3.22204,15.0362 9.39762,8.5921 -2.68503,37.05346 9.93459,7.5181 6.44411,0.537 20.40622,12.35116 12.88818,13.42514 16.3787,8.32362 3.75904,20.67476 v 1.3425 0 l 7.78661,9.39763 -2.14805,7.24959 2.68504,15.84168 8.05511,11.00865 14.76768,7.78658 -0.26859,1.34254 v 0 l 58.53371,-6.71259 21.74876,-2.68504 36.24795,-5.10155 -1.07401,-4.02757 v -12.61966 l -7.2496,-13.42516 -1.87953,-16.9157 3.49055,-18.79525 -1.87953,-14.49917 6.44411,-17.9897 -2.41654,-2.95356 0.537,-16.64719 3.49053,-12.61967 -4.02753,-4.29604 -7.7866,2.68502 -4.29606,11.27713 -10.20312,5.90708 3.22205,-14.23066 9.12911,-12.08264 0.537,-5.37009 0.2686,-0.2686 -12.88816,-12.88818 v -18.2582 l -14.49917,-11.81417 -19.86925,-1.34249 -20.40626,-5.3701 -44.03454,-13.42514 -8.5921,-4.83307 -0.80551,0.80552 -13.69369,-1.87953 -4.56454,2.68504 1.87953,-19.60075 -22.01726,11.27713 -26.85033,4.29606 -0.26861,-0.53699 z m 52.62664,-14.23068 -0.53699,-1.87952 -1.87951,0.80551 z m -9.66611,-1.87952 0.8055,-1.61102 -0.537,-0.53703 -0.26862,2.14805 z m 19.60074,-4.56454 -0.80551,-3.75907 -0.80551,4.56458 z"
     style="stroke-width:2.76628" />
  <path
     inkscape:connector-curvature="0"
     id="MI"
     data-name="Michigan"
     data-id="MI"
     d="m 795.05586,135.28896 -1.13068,-1.80908 -0.22623,2.26134 1.35681,-0.45226 z m 3.61811,-4.07039 -2.71359,-3.61813 -0.45227,1.58292 z m 2.26131,-16.28156 -2.26131,-2.03519 v 0.45225 z m -5.6533,177.06198 28.04047,-4.52265 7.91464,-1.58294 34.59831,-6.10558 0.6784,2.93971 2.26132,-0.6784 14.92478,-3.16584 14.24637,-3.39201 14.47252,-3.61811 -0.22624,-0.6784 7.46239,-14.69864 -0.67838,-12.21116 8.36689,-21.03035 6.55786,3.84425 2.48745,-4.74877 -0.67838,-18.09063 -6.10561,-11.30665 -9.04531,-23.97008 -7.91462,-8.81918 -4.07042,-1.13063 -14.6986,10.17595 1.58291,2.03518 -7.6885,14.47252 -7.4624,-1.35682 -2.26132,-15.15088 3.16588,-1.13066 6.55784,-15.15092 0.6784,-26.68366 -10.17599,-22.61327 -22.6133,-3.844263 -2.26132,-3.39199 -21.03035,-6.105581 -9.49756,11.758914 0.90452,10.17597 -7.23626,9.0453 1.58297,14.02024 -7.01014,4.97493 v -17.63837 l -6.33172,13.34184 -7.46238,11.75891 -4.97493,3.84424 2.48744,12.43731 -3.16583,12.88956 1.80909,16.05544 -2.26137,7.91464 16.28159,31.20633 2.03519,11.98504 -2.03519,22.161 -10.85439,24.87464 -1.35681,0.90452 z m 48.39242,-203.745653 -5.87947,0.452256 3.61814,2.713599 z m -34.3722,5.879454 h -1.80904 l 2.03519,0.904522 -0.22622,-0.904522 z m 39.57324,-28.718873 -2.26132,-3.618127 -0.90452,0.226219 3.16584,3.391976 z m -204.87632,16.507699 7.23626,4.070398 37.08576,11.306632 17.18612,4.522663 16.73383,1.13066 12.21116,9.94985 v 15.37703 l 10.85439,10.85437 v -0.22623 l 8.81916,-25.55301 10.62825,-7.46238 8.14078,-9.045303 1.3568,8.140773 8.36692,-12.889575 20.1258,-7.688498 1.58295,-3.165877 20.35195,2.487477 7.91466,4.070377 3.84422,-9.949827 3.61815,2.261329 15.8293,-2.487478 -3.84427,-6.331726 -7.01011,-4.070375 1.3568,-14.698625 -13.79409,7.688502 -12.66348,-1.582926 -4.07039,-9.723701 1.35681,-3.165867 -17.18608,8.140769 -11.08051,0.678401 -19.8997,12.211173 -2.26132,4.522649 -12.21117,-2.939723 -7.68852,3.391999 -15.37703,-13.341826 -34.14604,-10.402124 -0.67841,-4.070381 -21.93488,21.030354 -12.43729,3.165852 -17.63837,13.341852 -0.67841,0.452245 z m 80.05102,-51.332142 -26.45753,13.115701 8.81916,8.59304 3.39201,-8.59304 9.04531,-11.080506 z M 694.42674,-0.39071695 676.33612,12.046586 675.43159,18.152169 689.67794,7.7500643 Z"
     style="stroke-width:2.32975" />
  <path
     inkscape:connector-curvature="0"
     id="PA"
     data-name="Pennsylvania"
     data-id="PA"
     d="m 626.38556,85.454317 -20.54236,-8.84904 -3.4764,-7.90097 -17.69806,-13.58965 -96.70769,29.07552 -96.07553,26.231143 -16.75004,-4.10849 -2.21225,-9.481122 -5.37265,4.108492 -8.533,6.00472 -15.48588,15.80187 -1.89623,1.5802 8.84908,38.87265 1.58019,6.95284 7.90093,34.13211 1.58019,6.63679 v 0 l 13.90569,60.04722 44.87737,-11.06132 6.32076,-1.58021 5.68868,-1.58017 22.43871,-6.00472 123.57077,-34.44815 22.43869,-6.95282 5.37273,-1.58021 v 0 l 2.52824,-6.32076 5.68878,-4.42451 h 7.58491 l 0.94797,-2.84435 12.32554,-13.90569 1.2642,-2.21224 0.948,-0.63209 -12.32536,-32.23588 -6.00483,-0.94812 0.31624,-21.17451 -5.68878,-6.95284 13.2737,-29.391513 v 0 l -0.63211,-1.26418 z"
     style="stroke-width:3.256" />
  <path
     inkscape:connector-curvature="0"
     id="OH"
     data-name="Ohio"
     data-id="OH"
     d="m 635.76108,313.01046 -7.10302,-30.68511 -1.4206,-6.25068 -7.95541,-34.9469 -10.22837,6.53479 -21.87733,16.76315 -14.20605,17.33139 -11.08076,1.70473 -20.45672,11.64897 -11.36486,-6.81889 -34.37865,-3.97772 v 0 l -18.18376,4.54595 -17.89965,4.26183 -18.75201,3.97768 -2.84122,0.85237 0.85238,4.54593 7.67128,42.9023 17.04724,100.57896 0.56826,4.83004 2.273,-2.27295 13.92193,-1.70471 7.38714,3.69357 14.49019,12.50131 3.9777,-1.70471 15.34255,6.8189 7.38715,-5.68242 8.52366,3.40947 6.81889,-1.70473 10.79661,-10.5125 5.3983,9.09187 11.9331,6.81893 0.56825,0.56823 v 0 l 12.21721,-5.96653 4.26182,-9.37603 -3.40946,-9.66009 9.6601,-14.7743 7.10303,-1.13651 -0.85235,-12.50132 11.64898,-15.91082 1.98884,2.27299 10.51249,-7.9554 9.09188,-13.63783 1.4206,-62.22254 0.56825,-0.28422 -1.42061,-5.96654 z"
     style="stroke-width:2.92717" />
  <path
     inkscape:connector-curvature="0"
     id="IN"
     data-name="Indiana"
     data-id="IN"
     d="m 824.74732,317.95876 -49.44527,-8.00382 -11.39835,-1.58021 -39.87369,-7.05988 -10.14278,3.63659 -13.7826,1.34466 -4.4608,-1.89521 -4.5259,-4.64885 -1.19048,-2.46302 -30.96597,157.52096 -9.88258,14.65175 2.6276,16.96057 -1.69994,12.72219 -21.00703,23.06729 -8.39474,2.53844 -9.7422,26.99076 1.11177,0.72873 1.32392,0.1196 7.53601,-6.93424 11.26495,3.9235 15.29128,0.20494 14.82282,12.33192 4.26567,-6.3663 12.28765,-3.91373 13.87174,7.22119 13.32403,-12.77032 20.98033,9.35559 2.77058,-8.93538 27.98228,-18.58947 0.98497,-12.62982 13.50226,4.3612 21.00047,-7.36552 1.23804,-16.29698 0.82104,-0.39684 1.19372,-5.38789 19.27091,-114.14079 7.79174,-48.83636 0.78327,-5.18947 0.46516,-4.27608 z"
     style="stroke-width:3.32151" />
</svg>
