<?xml version="1.0" encoding="UTF-8" standalone="no"?>
<svg
   xmlns:dc="http://purl.org/dc/elements/1.1/"
   xmlns:cc="http://creativecommons.org/ns#"
   xmlns:rdf="http://www.w3.org/1999/02/22-rdf-syntax-ns#"
   xmlns:svg="http://www.w3.org/2000/svg"
   xmlns="http://www.w3.org/2000/svg"
   xmlns:sodipodi="http://sodipodi.sourceforge.net/DTD/sodipodi-0.dtd"
   xmlns:inkscape="http://www.inkscape.org/namespaces/inkscape"
   version="1.1"
   id="svg994"
   width="75"
   height="69.333336"
   viewBox="0 0 151.46667 69.333336"
   sodipodi:docname="NC.svg"
   inkscape:version="1.0.1 (3bc2e813f5, 2020-09-07)">
  <metadata
     id="metadata1000">
    <rdf:RDF>
      <cc:Work
         rdf:about="">
        <dc:format>image/svg+xml</dc:format>
        <dc:type
           rdf:resource="http://purl.org/dc/dcmitype/StillImage" />
        <dc:title></dc:title>
      </cc:Work>
    </rdf:RDF>
  </metadata>
  <defs
     id="defs998" />
  <sodipodi:namedview
     pagecolor="#ffffff"
     bordercolor="#666666"
     borderopacity="1"
     objecttolerance="10"
     gridtolerance="10"
     guidetolerance="10"
     inkscape:pageopacity="0"
     inkscape:pageshadow="2"
     inkscape:window-width="1440"
     inkscape:window-height="877"
     id="namedview996"
     showgrid="false"
     inkscape:zoom="2.5582823"
     inkscape:cx="81.862535"
     inkscape:cy="56.778591"
     inkscape:window-x="-8"
     inkscape:window-y="-8"
     inkscape:window-maximized="1"
     inkscape:current-layer="g1002" />
  <g
     inkscape:groupmode="layer"
     inkscape:label="Image"
     id="g1002">
    <path
       style="stroke-width:1.06667"
       d="m 94.25005,61.595853 -10.04738,-6.54704 -11.07439,0.32328 -11.07438,0.32328 -2.45936,-1.61143 -2.45935,-1.61143 -14.81888,4.77458 -14.81887,4.77458 -11.2,2.60728 -11.2000001,2.60728 -1.86667,0.01 -1.86666,0.01 v -2.70014 -2.70015 l 1.6,-0.61397 1.6,-0.61398 v -1.29994 -1.29995 l 2.4,-2.19667 2.4,-2.19667 2.4713301,-0.75045 2.47133,-0.75045 5.77215,-5.772149 5.77214,-5.772147 h 1.43726 1.43725 l 2.5052,-2.666667 2.50521,-2.666667 h 1.1715 1.1715 l 1.78159,-3.466666 1.7816,-3.466667 0.32913,-2.065277 0.32914,-2.065277 12.7985,-2.384326 12.7985,-2.384252 15.46667,-3.897511 15.46666,-3.897512 18.20318,-5.2529604 18.20319,-5.252959 h 1.67414 1.67414 l 1.74727,2.666667 1.74727,2.666666 h -1.51047 -1.51047 l -0.61398,1.5999999 -0.61398,1.6 h -1.43288 -1.43288 l -2.36586,3.1999995 -2.36586,3.200001 0.83193,-0.03779 0.83193,-0.0378 2.66667,-1.524404 2.66667,-1.524405 1.86666,-0.0378 1.86667,-0.03779 0.0842,2.400001 0.0842,2.4 0.53364,-1.6 0.53363,-1.6 0.46144,-1.453466 0.46146,-1.453466 1.58737,1.317407 1.58738,1.317406 v 2.58108 2.581079 l -1.33334,1.631434 -1.33333,1.631434 -1.9235,2.113714 -1.92351,2.113714 -4.47649,-0.663313 -4.4765,-0.663313 -2.63469,0.983505 -2.63469,0.983505 4.87876,0.731613 4.87874,0.731613 -0.51666,2.891361 -0.51668,2.89136 -1.62604,1.866667 -1.62605,1.866666 h 1.69588 1.69588 l 2.73611,-1.040265 2.73611,-1.040266 v 1.417102 1.417102 l -7.44969,4.953707 -7.44968,4.953712 -2.57101,4.00279 -2.571,4.00279 -0.65542,3.79268 -0.65542,3.79268 -5.05722,1.81259 -5.05723,1.8126 -1.06667,-0.0949 -1.06666,-0.0949 -10.04739,-6.54705 z m 55.38073,-41.273628 v -1.422221 l 0.71111,0.71111 0.71111,0.711111 -0.71111,0.711112 -0.71111,0.71111 z m -5.50136,-10.4000005 -1.56534,-1.866666 -1.82458,-2.9333339 -1.82457,-2.933332 h 0.50668 0.50668 l 3.30249,4.7999989 3.30248,4.8000005 h -0.41925 -0.41925 z m -6.23198,-9.33333186 v -0.5333339 h 0.53334 0.53333 v 0.5333339 0.53333296 h -0.53333 -0.53334 z"
       id="path1050" />
  </g>
</svg>
