<?xml version="1.0" encoding="UTF-8" standalone="no"?>
<svg
   xmlns:dc="http://purl.org/dc/elements/1.1/"
   xmlns:cc="http://creativecommons.org/ns#"
   xmlns:rdf="http://www.w3.org/1999/02/22-rdf-syntax-ns#"
   xmlns:svg="http://www.w3.org/2000/svg"
   xmlns="http://www.w3.org/2000/svg"
   xmlns:sodipodi="http://sodipodi.sourceforge.net/DTD/sodipodi-0.dtd"
   xmlns:inkscape="http://www.inkscape.org/namespaces/inkscape"
   version="1.2"
   width="75"
   height="75"
   viewBox="0 0 800 675"
   stroke-linecap="round"
   stroke-linejoin="round"
   id="svg249"
   sodipodi:docname="NE-1.svg"
   inkscape:version="1.0.1 (3bc2e813f5, 2020-09-07)">
  <metadata
     id="metadata255">
    <rdf:RDF>
      <cc:Work
         rdf:about="">
        <dc:format>image/svg+xml</dc:format>
        <dc:type
           rdf:resource="http://purl.org/dc/dcmitype/StillImage" />
      </cc:Work>
    </rdf:RDF>
  </metadata>
  <defs
     id="defs253" />
  <sodipodi:namedview
     pagecolor="#ffffff"
     bordercolor="#666666"
     borderopacity="1"
     objecttolerance="10"
     gridtolerance="10"
     guidetolerance="10"
     inkscape:pageopacity="0"
     inkscape:pageshadow="2"
     inkscape:window-width="1440"
     inkscape:window-height="877"
     id="namedview251"
     showgrid="false"
     inkscape:zoom="0.98962963"
     inkscape:cx="400"
     inkscape:cy="175.82335"
     inkscape:window-x="1432"
     inkscape:window-y="-8"
     inkscape:window-maximized="1"
     inkscape:current-layer="svg249" />
  <g
     id="NE-1"
     transform="translate(1.010479,-1.010479)">
    <path
       d="M 1,73.3852 268.5071,73.0401 388.564,73.1317 388.8546,1 l 178.8575,0.7882 9.6137,6.542 2.918,11.3267 -12.6026,5.6379 3.3888,18.5472 14.4415,13.1441 16.396,8.5336 -4.5084,13.8925 2.9326,11.1339 12.6667,1.4952 20.7606,24.6885 20.9865,1.9258 -4.8922,21.5831 -7.4728,5.1984 17.4653,18.001 3.3011,13.106 14.5423,6.5853 -12.6322,28.9423 10.2194,10.106 -16.0245,2.8529 8.7051,17.9641 -7.3229,8.9677 1.8246,10.3916 10.8153,8.6652 -3.2727,16.2913 13.8115,8.7871 9.6812,-11.7922 13.6512,10.588 -4.5528,15.2048 27.523,3.2757 4.8465,4.6897 -7.0583,22.3794 -203.9793,-0.0169 17.7583,10.397 6.4387,19.7477 21.8576,18.9482 -5.7449,11.6093 16.8435,22.3019 4.0529,23.8999 -11.0135,12.2319 7.9033,14.379 13.3438,8.9148 13.598,1.3411 15.2734,8.7664 24.687,-8.5172 13.353,-11.811 20.5536,-6.4993 19.8661,1.6831 -0.013,-21.9127 7.0867,-11.811 -8.8733,-16.0161 55.3416,0.9202 -6.6324,16.9845 7.4766,21.3169 -6.4794,13.4577 6.788,5.3185 -0.6556,16.1361 13.4815,9.5704 -4.5801,12.4366 10.8087,21.3557 -13.6861,7.6338 4.0617,11.1113 0.1085,22.5706 -12.6824,6.4534 -7.2558,10.6565 17.6769,20.8392 20.4413,6.9418 13.9315,25.5152 -8.2645,7.3865 5.749,19.301 -182.7857,0.1695 -180.4628,-0.1112 -78.7818,-0.2089 -0.3282,-66.8351 -174.4104,-0.2596 0.1081,-133.546 -176.2967,0.1446 -0.1246,-49.4277 23.8745,-22.7738 41.1942,-26.8271 23.1377,-4.7484 -0.1874,-29.8411 -40.2841,0.0783 0.0529,-50.5779 -48.3936,0.2385 -0.9171,-82.8355 z"
       id="path246" />
  </g>
</svg>
