<?xml version="1.0" encoding="UTF-8" standalone="no"?>
<svg
   xmlns:dc="http://purl.org/dc/elements/1.1/"
   xmlns:cc="http://creativecommons.org/ns#"
   xmlns:rdf="http://www.w3.org/1999/02/22-rdf-syntax-ns#"
   xmlns:svg="http://www.w3.org/2000/svg"
   xmlns="http://www.w3.org/2000/svg"
   xmlns:sodipodi="http://sodipodi.sourceforge.net/DTD/sodipodi-0.dtd"
   xmlns:inkscape="http://www.inkscape.org/namespaces/inkscape"
   enable_background="new 0 0 1000 589"
   viewBox="50 0 1e3 589"
   width="85"
   height="85"
   id="svg"
   inkscape:version="1.0.1 (3bc2e813f5, 2020-09-07)"
   sodipodi:docname="NO.svg"
   version="1.1">
  <metadata
     id="metadata106">
    <rdf:RDF>
      <cc:Work
         rdf:about="">
        <dc:format>image/svg+xml</dc:format>
        <dc:type
           rdf:resource="http://purl.org/dc/dcmitype/StillImage" />
      </cc:Work>
    </rdf:RDF>
  </metadata>
  <sodipodi:namedview
     pagecolor="#ffffff"
     bordercolor="#666666"
     borderopacity="1"
     objecttolerance="10"
     gridtolerance="10"
     guidetolerance="10"
     inkscape:pageopacity="0"
     inkscape:pageshadow="2"
     inkscape:window-width="1440"
     inkscape:window-height="877"
     id="namedview69"
     showgrid="false"
     inkscape:zoom="6.4714413"
     inkscape:cx="43.567533"
     inkscape:cy="44.694607"
     inkscape:window-x="1432"
     inkscape:window-y="-8"
     inkscape:window-maximized="1"
     inkscape:current-layer="svg"
     inkscape:document-rotation="0" />
  <defs
     id="defs4">
    <style
       id="style6">path{fill-rule:evenodd}</style>
  </defs>
  <path
     inkscape:connector-curvature="0"
     id="MN"
     data-name="Minnesota"
     data-id="MN"
     d="m 106.09773,44.647219 4.76177,16.904256 9.9997,60.950545 4.76175,24.285 1.42853,21.42793 5.47605,12.85676 1.19043,10.95204 0.95234,3.57133 -0.23819,0.71427 -9.5235,15.7138 6.19028,10.47588 11.9044,83.80702 0.47618,10.95204 11.9044,-0.71426 46.90336,-2.61897 117.13933,-9.76161 11.66634,-1.19045 v -1.19044 l -3.33325,-18.33277 -14.52337,-7.38074 -11.42823,-11.90439 -18.09467,-10.95207 -5.71413,-0.47616 -8.80925,-6.66648 2.38088,-32.85616 -8.33309,-7.61881 2.85706,-13.33295 15.23765,-13.80911 -2.61899,-28.57056 5.47602,-6.19028 v 0 l 18.57089,-19.52324 21.18983,-27.142042 8.095,-5.714108 14.28529,-6.904554 14.99953,-11.190144 -9.99969,1.904704 -5.95221,-4.523681 -22.85646,3.095148 -3.57131,-4.285579 -20.47558,8.333077 -16.42809,-6.904555 -4.52365,-5.47602 -13.09486,0.952352 -8.80925,-4.523676 2.85706,-3.333234 -11.19014,-3.571321 h -9.99971 l -15.9519,6.904555 -3.09515,-4.761763 -25.23733,-3.571322 -8.57117,-21.427927 -0.95237,-6.428381 -10.95204,-3.095144 0.95235,18.332783 -29.04675,2.142793 -35.9513,1.42853 -2.38088,0.23808 z"
     style="stroke-width:2.45291" />
  <path
     inkscape:connector-curvature="0"
     id="WI"
     data-name="Wisconsin"
     data-id="WI"
     d="m 389.20287,418.59256 -7.13685,8.84968 -4.28209,12.84631 1.99832,7.13682 z m -163.86185,-67.08631 4.28211,-5.99494 -3.14024,2.85472 z m 6.56588,-9.42064 -1.42734,-1.71286 -3.14024,1.99836 4.56758,-0.28559 z m -62.23324,15.98653 -6.56588,7.42232 3.14021,34.25681 -18.27031,16.55748 -3.42568,15.98653 9.99158,9.13515 -2.85473,39.39536 10.56249,7.99327 6.8514,0.57094 21.69596,13.1318 13.70275,14.27365 17.41389,8.8497 3.99662,21.98147 v 1.42735 0 l 8.27875,9.99159 -2.28381,7.70779 2.85474,16.84293 8.56422,11.70443 15.70105,8.27872 -0.28557,1.42739 v 0 l 62.23323,-7.13685 23.12335,-2.85474 38.53894,-5.42399 -1.14189,-4.28212 v -13.41727 l -7.7078,-14.27367 -1.99832,-17.98483 3.71117,-19.98317 -1.99833,-15.41556 6.8514,-19.12671 -2.56927,-3.14024 0.57094,-17.69934 3.71114,-13.41728 -4.28208,-4.56756 -8.27874,2.85472 -4.56758,11.98988 -10.84799,6.28043 3.42569,-15.13009 9.7061,-12.8463 0.57094,-5.70949 0.28558,-0.28558 -13.70274,-13.70276 v -19.41217 l -15.41556,-12.56087 -21.12506,-1.42734 -21.696,-5.70951 -46.81766,-14.27365 -9.13515,-5.13854 -0.85642,0.85644 -14.55918,-1.99833 -4.85303,2.85475 1.99832,-20.83958 -23.40883,11.98988 -28.54735,4.56758 -0.28559,-0.57093 z m 55.95282,-15.13011 -0.57093,-1.99831 -1.9983,0.85642 z m -10.27704,-1.99831 0.85641,-1.71284 -0.57094,-0.57097 -0.2856,2.28381 z m 20.83957,-4.85303 -0.85642,-3.99666 -0.85642,4.85308 z"
     style="stroke-width:2.94112" />
  <path
     inkscape:connector-curvature="0"
     id="MI"
     data-name="Michigan"
     data-id="MI"
     d="m 664.76617,42.257181 -1.1588,-1.854072 -0.23185,2.31758 1.39055,-0.463508 z m 3.7081,-4.171621 -2.78108,-3.708114 -0.46352,1.622288 z m 2.31754,-16.686485 -2.31754,-2.085805 v 0.463497 z m -5.79389,181.465535 28.73784,-4.63513 8.11147,-1.62231 35.45878,-6.25742 0.69527,3.01282 2.31756,-0.69527 15.29596,-3.24458 14.60068,-3.47637 14.83245,-3.70809 -0.23186,-0.69527 7.64798,-15.0642 -0.69525,-12.51485 8.57497,-21.55338 6.72096,3.93986 2.54931,-4.86688 -0.69525,-18.54054 -6.25746,-11.58785 -9.27027,-24.56622 -8.11145,-9.038514 -4.17166,-1.158749 -15.06415,10.429027 1.62227,2.085795 -7.87971,14.832458 -7.64799,-1.390565 -2.31756,-15.527688 3.24462,-1.15878 6.72093,-15.527725 0.69527,-27.347286 -10.42907,-23.1756655 -23.17569,-3.939868 -2.31756,-3.4763488 -21.55338,-6.2574268 -9.73376,12.0513556 0.92701,10.4290485 -7.41622,9.270258 1.62233,14.368925 -7.18448,5.098657 V 29.2788 l -6.48919,13.673653 -7.64797,12.051355 -5.09866,3.939847 2.54931,12.746628 -3.24457,13.210125 1.85408,16.454742 -2.31761,8.11148 16.68652,31.98243 2.0858,12.28311 -2.0858,22.71215 -11.12434,25.49327 -1.39056,0.92702 z m 49.59594,-208.8128318 -6.02569,0.4634976 3.70812,2.7810875 z m -35.22704,6.02567294 h -1.85403 l 2.0858,0.92701546 -0.23184,-0.92701546 z m 40.55743,-29.43311314 -2.31756,-3.708111 -0.92701,0.231845 3.24457,3.476335 z m -209.97162,16.918246 7.41623,4.1716298 38.00809,11.5878327 17.61354,4.635139 17.15,1.15878 12.51485,10.1973045 v 15.759459 l 11.12434,11.124319 v -0.231856 l 9.0385,-26.188517 10.89257,-7.64797 8.34324,-9.2702585 1.39055,8.3432325 8.575,-13.210136 20.62634,-7.8797171 1.62231,-3.2446129 20.85811,2.549341 8.1115,4.1716037 3.93982,-10.1972757 3.70814,2.317568 16.22298,-2.549342 -3.93988,-6.489196 -7.18445,-4.171606 1.39054,-15.064182 -14.13715,7.879716 -12.97842,-1.622293 -4.17163,-9.965531 1.39056,-3.244602 -17.6135,8.343231 -11.35608,0.695272 -20.39461,12.514867 -2.31756,4.635128 -12.51487,-3.012834 -7.87973,3.476358 -15.75946,-13.673639 -34.99526,-10.660826 -0.69528,-4.171612 -22.4804,21.553382 -12.74661,3.244587 -18.07704,13.673665 -0.69528,0.463492 z m 82.0419,-52.608778 -27.11553,13.44189 9.03849,8.80675 3.47637,-8.80675 9.27027,-11.356079 z m -30.36014,-31.750673 -18.54053,12.74662 -0.92703,6.25743 14.60066,-10.660807 z"
     style="stroke-width:2.38769" />
  <path
     inkscape:connector-curvature="0"
     id="PA"
     data-name="Pennsylvania"
     data-id="PA"
     d="m 615.47791,101.8158 -20.54236,-8.849044 -3.4764,-7.90097 -17.69806,-13.58965 -96.70769,29.075524 -96.07553,26.23114 -16.75004,-4.10849 -2.21225,-9.48112 -5.37265,4.10849 -8.533,6.00472 -15.48588,15.80187 -1.89623,1.5802 8.84908,38.87265 1.58019,6.95284 7.90093,34.13211 1.58019,6.63679 v 0 l 13.90569,60.04722 44.87737,-11.06132 6.32076,-1.58021 5.68868,-1.58017 22.43871,-6.00472 123.57077,-34.44815 22.43869,-6.95282 5.37273,-1.58021 v 0 l 2.52824,-6.32076 5.68878,-4.42451 h 7.58491 l 0.94797,-2.84435 12.32554,-13.90569 1.2642,-2.21224 0.948,-0.63209 -12.32536,-32.23588 -6.00483,-0.94812 0.31624,-21.17451 -5.68878,-6.95284 13.2737,-29.39151 v 0 l -0.63211,-1.26418 z"
     style="stroke-width:3.256" />
  <path
     inkscape:connector-curvature="0"
     id="OH"
     data-name="Ohio"
     data-id="OH"
     d="m 619.23103,334.36156 -7.94586,-34.32618 -1.58916,-6.99238 -8.8994,-39.09368 -11.44206,7.31021 -24.47328,18.75225 -15.89173,19.38792 -12.39559,1.90701 -22.8841,13.03123 -12.71341,-7.62801 -38.45799,-4.44972 v 0 l -20.34143,5.08537 -20.02361,4.76754 -20.97711,4.44967 -3.17836,0.95351 0.95352,5.08534 8.58155,47.99306 19.07006,112.51358 0.63569,5.40317 2.54271,-2.54265 15.57389,-1.90699 8.2637,4.13184 16.20958,13.98471 4.44969,-1.90699 17.16309,7.62802 8.2637,-6.35669 9.53507,3.81404 7.62802,-1.90701 12.07772,-11.75991 6.03886,10.17071 13.34908,7.62805 0.63567,0.63566 v 0 l 13.6669,-6.67451 4.76752,-10.48859 -3.81402,-10.80635 10.80636,-16.5274 7.94587,-1.27137 -0.95349,-13.98472 13.03124,-17.79878 2.22483,2.5427 11.7599,-8.89938 10.17071,-15.25609 1.58917,-69.60582 0.63568,-0.31795 -1.58918,-6.67452 z"
     style="stroke-width:3.27451" />
  <path
     inkscape:connector-curvature="0"
     id="NH"
     data-name="New Hampshire"
     data-id="NH"
     d="m 921.75782,65.220787 -8.15392,6.092801 -6.82001,-3.245416 -11.79018,30.635322 -0.12056,0.478774 0.63668,45.985602 -3.12847,8.37702 -27.46241,22.10509 -1.00466,26.22373 -7.83923,31.12139 -11.06655,27.76254 1.76658,83.9488 v 0 0 l 21.19825,-1.27953 65.39296,-4.91318 34.76836,-22.81061 v 0 l 1.92966,-7.66065 4.57207,-12.08672 -3.71332,0.59215 0.24473,-2.99337 -20.87738,-44.46489 -0.11339,-3.59273 -28.41938,-180.276185 v 0 z"
     style="stroke-width:5.08685" />
  <path
     d="m 882.62231,478.08484 0.1857,-0.17338 0.1778,-0.0131 0.3144,-0.0262 0.614,0.0131 0.3,-0.26926 -0.065,-0.6843 0.081,-0.0798 0.1752,-0.17313 0.1334,0.005 1.6645,0.0544 0.335,0.0813 0.1857,0.0455 0.5988,0.14593 0.042,0.23693 -0.2301,0.22621 -0.026,0.0269 -0.7199,0.14619 -0.2589,0.0523 -0.1046,0.0209 -0.037,1.9e-4 -0.9378,-0.0235 -0.3983,0.4087 0.05,0.38628 0.4456,0.2317 1.4475,-0.0583 0.6846,-0.0643 0.1569,0.14148 -0.2327,0.21705 -0.5113,0.47855 -0.5688,0.24451 -0.2223,0.0949 -0.5554,0.23667 -0.3572,-0.0819 -1.0176,-0.23301 -0.029,-2.3e-4 -1.011,-0.77139 z m 0.7493,6.57917 0.026,-0.44248 0.3449,-0.23589 0.1988,-0.13625 0.2725,-0.0777 1.1721,-0.33348 0.7704,-0.21941 0.7463,0.24216 0.102,0.0905 0.099,0.086 0.4917,0.42554 -0.026,0.0209 -0.2302,0.50394 -0.7842,1.72298 -0.057,0.12553 -0.055,0.12291 -1.4075,-0.15351 -0.3572,-0.91451 -0.4702,-0.42502 -0.8662,-0.27009 z m -4.5195,0.82282 0.2589,-0.28981 0.3057,-0.0513 1.8426,-0.30937 0.065,-0.0105 0.3159,0.0262 0.1805,0.0131 -0.055,0.39578 -0.1072,0.74343 0.094,0.5337 0.9404,0.15115 0.065,0.0264 0.4492,0.17076 1.079,0.41048 0.1674,0.0646 v 1.36424 0.0528 l -0.1281,0.23144 -0.1334,0.19404 -0.5016,0.28144 -0.3504,0.19666 -0.136,0.0756 -0.5806,-0.52478 -0.2406,-0.32143 -0.5868,-0.78004 -1.312,-1.7443 v -0.0209 l -0.2118,-0.0468 -0.1282,0.0494 -0.4459,0.17417 -0.3849,-0.0573 -0.1125,-0.28547 -0.1804,-0.3923 v -0.0296 l -0.089,-0.23013 z m -16.3433,5.43999 0.1621,-0.68017 0.037,-0.15874 4.0972,2.29902 0.034,0.0157 0.037,0.0209 1.1789,0.77612 0.1281,0.0845 -0.4671,0.58836 10e-4,0.002 -0.5787,-0.15639 -0.068,-0.0183 -0.8583,-0.23196 -2.7935,-1.60458 -0.1987,-0.20764 z m -18.85779,19.76826 -0.0575,-0.21811 -0.1046,-0.33596 0.58213,-1.49479 -0.31094,-0.53757 -0.51022,-0.32979 -0.37109,-0.23877 -0.28426,-0.81453 0.0288,-0.16319 0.19352,-1.12746 0.69222,0.0845 0.1726,0.28175 0.85698,1.39173 0.35174,0.57041 0.11507,0.18855 0.0366,0.34455 0.1386,1.31332 0.0261,0.19796 -0.68857,1.2083 -0.0418,0.073 -0.78925,-0.31447 z m -5.46537,13.9016 -0.19614,-0.75961 -0.0261,-0.13913 0.20136,-0.11925 0.67079,-0.39967 0.26439,-0.005 0.068,-8.9e-4 0.34311,-0.008 0.55885,-0.2181 0.33082,-0.3436 0.0288,-0.0913 0.1543,-0.48255 0.49687,-0.11663 1.20009,-0.28184 0.42052,0.35409 -0.0366,0.15691 -0.7121,0.12056 -0.71027,0.3828 -0.34415,0.35472 -0.18045,0.22517 0.0262,0.33683 0.0288,0.0719 0.19352,0.38158 0.0418,0.10957 -0.47595,0.55046 -0.12553,0.0602 -1.14648,0.55593 -0.66189,-0.003 -0.28688,-0.20293 z m -3.58144,12.76228 v -0.23458 l 0.50943,-0.84827 0.49819,-0.28009 0.31669,-0.36251 0.46889,-0.17181 0.77121,0.37059 0.14645,0.0701 0.76152,0.36567 0.0628,0.23275 -0.33997,0.65313 -0.0471,0.0183 -1.96214,0.76691 -0.29996,-0.12082 -0.64306,-0.2589 -0.21183,-0.0845 z m -2.20221,-5.14492 0.31147,-0.86993 0.36925,-0.53027 0.6347,-0.38082 0.48014,-0.42865 0.71367,-0.63683 0.19875,-0.17862 0.7108,-0.14331 0.0915,0.0209 0.67182,0.14985 0.18306,0.19221 -0.25628,0.14724 -0.26962,-0.10121 -0.35801,0.46445 -0.24583,0.3192 -0.0444,0.0578 0.0366,0.5457 0.0288,0.43144 0.0471,0.70892 -0.55154,0.418 -0.23013,-0.0157 -1.94383,-0.12971 z m -10.36379,-9.60423 v -0.0866 l 0.10983,-1.02684 v -0.0416 l 0.0523,-0.49758 0.62606,-0.64827 0.8575,-0.88813 0.0601,-0.0622 0.88314,1.06128 v 0.0235 0.18672 l -0.13861,2.24614 -0.0261,0.0337 -0.0863,0.44887 -0.16214,0.84552 -0.267,1.39866 -0.0471,0.0379 -0.40091,0.31345 -0.4783,-1.08173 -0.2827,-0.63752 -0.69929,-1.5753 z m 1.58451,10.56607 -0.0418,-0.3441 -0.0942,-0.76411 v -0.0209 l 0.11768,-0.176 0.76493,-0.27616 0.25367,0.26912 -0.19352,0.43581 0.3588,0.0541 0.78454,0.11873 0.78297,0.61607 0.034,0.17025 -0.31303,0.28029 -0.68412,0.11715 -1.147,0.1964 -0.19352,0.0327 -0.0706,-0.0727 -0.32297,-0.33874 z m -2.4109,-5.02969 2.18704,0.50888 1.29188,0.30069 -0.0497,0.063 -0.22491,0.27935 -0.0471,-0.008 -1.84655,-0.22594 -0.50524,-0.062 z m 2.87064,9.37749 0.32297,-0.33068 0.36455,-0.74479 0.43987,-0.89885 0.19875,-0.40493 1.3277,-1.2106 1.19408,-0.31424 0.86038,-0.53942 0.0549,-0.0327 0.69902,0.0429 0.9187,0.55736 2.33977,0.9055 -0.34285,1.04791 -0.11245,0.34535 -0.53035,0.78805 -1.0254,1.52389 -0.10983,0.16423 -0.72335,0.54542 -1.02016,-0.40289 -0.0628,-0.26648 -0.0811,-0.35187 -1.02853,-0.60201 -1.783,0.48017 -0.3146,0.23405 -0.2827,0.102 -0.55781,0.19796 -0.0523,0.0183 -0.5633,-0.25158 z m 0.0288,3.97763 0.20659,-1.09182 0.25367,-0.28304 0.64359,0.008 0.69589,0.34781 0.30701,0.48425 -0.55284,1.07741 -0.41371,0.0484 -0.42967,0.0505 -0.30702,0.0358 z m -7.25335,-15.87957 0.0288,-0.0792 -0.18829,-0.86553 0.19091,-1.24695 -0.35906,-0.64672 -0.1386,-1.09013 0.32532,-0.44891 0.36037,-0.17626 0.55075,0.0356 0.56591,0.8525 1.71972,1.84883 0.85149,0.91522 0.34363,0.36952 -0.63391,0.74665 -0.4893,-0.0183 -1.71893,-0.0648 -0.4124,0.30837 -0.16214,0.12004 -0.92995,-0.28131 z m -11.03693,13.61585 0.17259,-0.49766 0.10199,-0.0455 0.39332,-0.17888 0.28218,-0.28842 0.24059,-0.24687 0.15691,-0.15978 0.0261,-0.53527 0.0314,-0.74385 0.62737,-1.38053 v -0.12579 -0.46333 l -0.14383,-0.36954 -0.0418,-0.10984 -0.34625,-0.18959 0.38155,-0.19248 0.62607,0.0319 0.0889,0.0306 0.75604,0.2589 0.0785,0.0262 0.15429,-0.003 0.65614,-0.0131 2.17449,-0.0439 0.32663,0.12474 0.79866,0.30576 0.0654,0.0261 0.35226,0.37067 0.2861,0.30114 0.1909,0.20136 0.11769,0.0277 2.23097,0.53333 1.64388,0.57497 0.2589,0.40566 -0.13599,0.56011 -0.74035,0.4412 -0.0261,0.002 -1.78195,0.0458 -0.0706,-0.0353 -1.33686,-0.65253 -0.10199,0.18044 -0.10984,0.19823 -0.20136,0.35911 -0.0654,0.11925 -0.13599,0.24216 0.002,0.0766 0.0261,0.1603 0.20921,0.0772 0.39855,0.14566 0.16214,0.18176 0.12814,0.40997 -0.0471,0.10147 -0.0706,0.15246 -0.42627,0.93324 -0.4668,1.02231 -0.0261,0.0547 -0.0732,0.16318 -0.5782,0.56333 -1.16165,0.62549 -0.0811,0.0432 0.0261,0.073 0.0758,0.27789 0.1726,0.6514 -0.0628,0.0581 -0.16214,0.15272 -0.3635,0.0795 -0.1726,0.0382 -0.0628,-0.0554 -0.54264,-0.47501 -0.61325,-0.31306 -0.23013,-0.0288 -0.54369,-0.068 -0.55336,0.1909 -0.0968,0.0345 -0.29107,-0.0269 -0.0262,-0.003 -0.30205,-0.0662 -0.38965,-0.29606 -0.0915,-0.069 -0.29917,-1.08031 0.0366,-0.40946 0.0262,-0.29083 -0.31042,-0.95298 -0.21705,-0.12709 -0.10199,-0.0591 -0.43621,-0.25497 -0.0497,-0.0706 -0.2908,-0.41013 z m -4.01006,-5.17499 0.31617,-0.83671 0.44379,0.0235 0.12814,0.008 1.89859,0.0983 0.23537,0.0131 1.01336,0.0523 0.3996,0.0209 0.78349,0.0405 -0.0706,0.35464 -0.0262,0.0693 -0.0941,0.47266 -0.18568,0.11637 -1.07691,0.68007 -1.93338,-0.48037 -0.36768,-0.0915 -0.79396,-0.28916 -0.46314,-0.16868 z m -4.97739,7.57736 0.3112,-0.49005 0.37945,-0.3157 0.15691,-0.0356 0.1543,-0.0374 0.3737,-0.0881 2.0861,-0.49214 2.08348,0.46766 0.14906,0.30336 0.1203,0.24582 0.0628,0.12527 -0.39855,0.82479 -0.12029,0.24896 -0.22229,0.067 -0.52747,0.15874 -0.97937,-0.0209 -0.69511,-0.0638 -0.51073,0.0651 -0.62031,0.0411 -0.3473,0.11323 -0.15952,0.0505 -0.0471,-0.0272 -0.85803,-0.49042 z m -9.88523,2.54477 -0.0732,-0.55624 -0.002,-0.0418 0.48041,-1.29661 0.25628,-0.4473 0.0889,-0.15246 0.20137,-0.35187 -0.002,-0.005 0.30963,-0.95758 0.19875,-0.61752 0.34625,-1.07053 0.0523,-0.16292 -0.59573,-1.52275 v -0.0183 l -0.13599,-0.34496 -0.28662,-2.41357 0.0915,-0.54675 v -0.0157 l 0.11246,-0.67763 0.15167,-0.12474 0.0758,-0.0625 1.15772,-0.94699 0.20137,-0.16528 0.92445,0.0774 0.44118,0.42698 0.55362,0.53571 0.0732,0.0709 v 0.008 l -7.8e-4,0.79563 v 0.008 0.045 l -0.22752,0.90444 v 0.0183 l -0.65457,0.8068 -0.0471,0.0183 -0.34703,0.13521 -0.0262,0.008 -0.20398,0.3816 0.0471,0.55237 0.0418,0.48495 v 0.008 l 0.30571,0.28395 0.73224,0.68025 0.18306,0.16946 -0.1046,0.56249 -0.21183,1.13657 -0.0261,0.0756 -0.24321,0.42627 0.13599,3.10211 -0.42679,1.00439 -0.0837,0.11298 -0.83684,1.12636 -0.16737,0.22674 -0.37658,0.32642 0.11245,-0.6762 v -0.0594 l -1.09051,-1.014 -0.0261,-0.0105 -0.40875,-0.14435 -0.54238,0.0131 z m -4.46747,1.98515 -0.14383,-0.0235 -1.23016,-0.32695 -5.69368,2.55549 -4.70927,-1.30692 -1.58082,-0.40723 -5.41154,-1.49512 -0.48916,-0.10905 -1.84618,-0.49168 -4.12269,6.40872 -4.52958,-1.18016 -0.10983,0.24477 -0.47844,-0.0262 -0.31157,0.68909 0.43359,0.12553 -0.23196,0.51173 -1.98683,0.44601 -5.59702,1.24713 1.01017,-10.70334 -1.8853,0.45341 -0.43501,-1.11528 -2.12328,0.39512 -1.48807,0.31534 -0.0183,-0.33987 -0.40514,-5.50115 -5.44498,1.26552 -0.0513,0.0105 -3.27337,0.75313 -0.0957,0.0209 -0.20921,0.0465 -1.3446,0.302 -3.03526,0.68072 -0.0105,0.008 -0.14253,0.12658 -0.0405,0.16187 0.062,0.12292 -0.0282,0.18933 0.24138,0.0157 0.0403,0.0455 0.0437,0.98956 0.32002,-0.0931 0.0536,0.14069 -0.0288,0.22307 0.0183,0.24661 -0.039,0.14435 -0.28928,0.59916 -0.0743,0.14226 -0.31304,0.61971 -0.73673,1.4853 -1.14842,2.30715 3.7384,-0.80143 -0.0235,0.2806 0.0554,0.41473 -0.0526,0.3974 0.0635,0.60841 0.15324,0.22831 0.12082,0.59915 6e-4,0.11663 0.10069,0.4433 0.0374,0.35743 -0.0625,0.62084 -0.15717,0.77607 0.0722,0.44627 -0.0379,0.44421 0.0157,0.3726 -0.19718,0.58025 -0.21915,0.81613 -0.09,0.23275 -0.3851,0.3957 -0.0968,0.25131 -0.0897,0.38071 -0.034,0.32044 0.0157,0.27919 0.12605,0.49787 0.20555,0.2925 0.22124,0.19378 -0.079,0.24347 -7.02091,1.54804 -1.06858,0.23405 -3.6285,0.78535 -0.75706,0.13076 -2.87009,0.556 -1.18408,0.30305 -0.16031,0.0737 -0.0314,-0.28656 -3.2889,0.78313 0.0131,0.15429 -2.63226,0.57264 0.0261,0.26849 0.13755,0.18463 -0.0586,0.27977 0.44528,0.80551 0.0371,0.23197 0.0766,0.11193 -0.0105,0.32286 -0.0845,0.14619 0.0157,0.25968 -0.0716,0.0612 0.0842,0.77743 1.13149,-0.25053 0.13651,1.62672 0.52352,4.1218 -1.06815,0.29878 0.0332,0.29815 0.0489,0.27645 0.16842,0.33589 0.005,0.20999 0.0842,0.24426 0.20581,0.28552 0.11977,-0.0298 0.21235,0.0298 0.14671,-0.0348 -0.10408,0.22229 1.05853,-0.21131 1.83865,-0.43346 0.13154,0.70912 1.13829,-0.2555 0.0309,-0.0748 0.11141,0.0131 -0.0989,-0.0894 -0.0303,-0.20686 0.0863,-0.16527 0.25864,-0.18019 0.0539,-0.12736 3.05014,-0.62724 0.52779,-0.13494 0.95429,-0.65017 0.98666,-0.20608 0.73488,-0.15298 -0.0131,0.12108 1.04849,-0.23379 -0.0131,0.30082 1.10712,-0.23118 -0.0429,0.15874 2.29934,-0.49369 -0.0939,0.16711 -0.30265,0.4259 0.81972,-0.0586 0.0261,0.39899 3.37463,-1.64709 0.008,0.18907 0.0105,0.2236 0.25184,-0.0463 0.35111,-0.20921 0.59654,-0.11899 0.003,-0.19614 0.2943,-0.063 0.34008,0.0105 0.27009,-0.0544 0.30247,-0.0261 -0.0949,-0.28612 0.0424,-0.42428 -0.1692,-0.20973 1.77202,-0.37614 0.0306,0.18358 1.80599,-0.38275 0.0429,0.44486 -0.17913,0.10199 -0.16894,0.23694 -0.15037,0.0868 -0.16449,0.17966 -0.23406,0.13599 -0.10513,0.0235 -0.15272,0.11376 -0.0523,0.10042 -0.14802,-0.0157 -0.41126,0.11324 -0.14121,-0.0183 -0.14436,0.0424 -0.24216,0.40683 -0.2521,0.13573 0.2651,0.2317 0.15847,0.40613 0.0131,0.24216 0.0675,0.48354 0.0934,0.16737 0.22909,0.18541 0.62933,0.30412 0.17757,0.16501 0.28272,0.45169 0.0262,0.39823 0.0826,0.21131 0.0384,0.28701 -0.0615,0.37899 -0.24452,0.23379 -0.0638,0.14749 -0.0157,0.26125 0.12343,0.31625 0.0649,0.24635 0.097,0.12971 -7.18321,1.55609 -0.0876,0.0764 -0.14017,0.2249 -0.43662,0.4509 -0.15717,0.4417 -0.15717,0.21967 -0.14043,0.10618 -0.20294,0.28949 -0.096,0.41008 -0.15298,1.05348 -0.0683,1.17901 0.18228,0.32705 -0.0209,0.48846 -0.0874,0.20163 0.13887,0.21888 -8.4503,1.86224 0.66364,6.01299 0.069,0.61757 0.0738,-0.0157 0.002,0.15377 0.096,0.1624 0.18698,0.15403 -0.0398,0.31042 -0.0962,0.2534 -0.34005,0.18829 -0.0753,0.17626 0.0209,0.1964 0.10957,0.097 0.28809,0.11664 -0.28521,0.29493 0.0777,0.16293 0.0908,-0.008 -0.0298,0.12684 0.17286,0.0981 0.21314,0.22647 0.0897,0.0458 -0.12082,0.17887 0.39857,0.20006 -0.1522,0.0306 -0.0994,0.0944 0.21131,0.0507 -0.17966,0.0981 -0.11271,0.1386 -0.18986,-0.10957 0.029,-0.0813 -0.16998,0.16919 -0.13023,-0.0489 -0.0523,0.0458 0.10304,0.3379 -0.10539,0.0818 0.0541,0.0476 -0.051,0.11376 -0.30244,0.23405 0.0183,0.0981 0.005,0.0418 -0.0131,0.12082 0.31062,0.0157 0.23092,0.22752 0.88504,0.18724 0.31617,0.19431 -2.02579,4.9839 -1.00837,-0.0745 -1.01138,2.54602 -0.23301,-0.0157 -6.89939,-0.54361 -0.15429,0.0131 -0.39481,0.033 0.13128,-0.39771 -2.77877,-0.7961 -6.07719,-1.6625 -2.08042,-0.5497 -0.052,-0.0157 -2.10386,5.19843 -2.51377,-0.29575 -0.30229,0.008 0.039,0.20294 -0.052,0.17652 0.0795,0.0319 -0.0955,0.32459 0.13128,0.14121 -0.20791,0.23929 -3.84072,-0.4349 -0.16554,0.35239 -0.13625,-0.0157 -2.64733,-0.3344 -0.19274,-0.17495 -0.008,-0.24059 -1.95142,-0.13233 -0.12631,0.30307 -0.33162,-0.0293 -0.74174,1.73656 -0.4094,0.95923 -0.41063,0.96538 -1.13185,-0.55431 -0.0463,0.11036 -0.84121,-0.41651 -0.3792,0.88844 -0.13912,0.11271 -0.11089,-0.039 -0.23928,0.0565 -0.23876,-0.0105 -0.0968,-9.9e-4 -0.23877,-0.13049 0.20425,-0.1645 -0.16371,0.005 -0.43644,-0.0599 -0.13887,-0.0476 -0.0327,-0.10513 -0.074,0.0772 -0.0952,-0.18594 -0.0209,0.0853 -0.25837,-0.0484 0.13755,-0.0453 -0.0902,-0.0473 -0.14305,0.0549 0.0552,-0.0858 -0.10486,-0.0209 0.18489,-0.20189 -0.2236,0.0348 -0.29802,-0.10826 0.0411,-0.10278 -0.51756,0.0209 -0.0327,-0.0769 0.0847,-0.0978 -0.0913,-0.0704 -0.10304,0.057 -0.002,-0.18096 -0.12317,-0.14724 0.0105,-0.13232 -0.25393,0.0492 -0.10905,-0.0458 0.0235,-0.1475 -0.23379,-0.0628 -0.0774,-0.24138 -0.15246,-0.13965 -0.28832,0.0235 -0.0324,-0.0902 0.0949,-0.0157 -0.008,-0.21 -0.15796,-0.0298 0.0751,-0.086 0.14043,-0.0437 0.0884,-0.10356 -0.0544,-0.12527 -0.25341,-0.002 0.16842,-0.38314 -0.12736,-0.15665 -0.0719,-0.1624 0.12134,-0.19875 0.0358,-0.16057 -0.0625,-0.10277 0.0157,-0.26813 0.0604,-0.15351 -0.2215,-0.0183 0.005,-0.17443 -0.13442,-0.18044 -0.12448,-0.0471 0.10408,-0.0575 0.0421,-0.10356 -0.0413,-0.0989 -0.12422,0.0105 -0.10513,-0.17809 0.0405,-0.17208 0.12187,-0.18227 -0.0547,-0.22673 0.11873,-0.29002 -0.002,-0.13102 0.16763,-0.26614 0.0502,-0.24243 0.15141,-0.17495 -0.003,-0.18541 0.0748,-0.18437 0.11637,-0.0567 -0.0384,-0.11977 -0.0651,0.0536 -0.43241,-0.27632 0.0908,-0.0552 -0.0523,-0.0766 0.005,-0.21078 -0.19299,0.0209 -0.0209,-0.0897 -0.11638,0.0131 -0.20764,-0.11742 0.035,-0.16476 -0.11742,-0.0502 -0.0761,-0.11611 0.0722,-0.11428 -0.0978,-0.12291 -0.0743,0.0544 -0.0667,0.18829 -0.13024,-0.0628 0.14305,-0.18855 -0.28032,-0.2521 -0.0876,0.0667 -0.10592,-0.0468 -0.0928,-0.13259 -0.2742,-0.04 -0.21784,0.0625 -0.0348,0.039 -1.69846,-0.77957 -4.23129,4.78955 -0.40859,-0.26489 -2.11688,2.29957 -5.13451,5.82404 -3.24201,-0.28371 0.0379,0.14043 0.12238,0.0842 0.10409,0.28793 -0.0209,0.12552 -0.0479,0.11821 -0.25524,0.0306 -0.008,0.37562 -0.0879,0.18332 0.13075,0.0955 0.34167,-0.0275 0.18254,0.39439 0.17103,0.0602 -0.0183,0.13808 0.22935,0.17887 -0.0235,0.13468 0.19274,0.24164 -0.0157,0.0706 1.05934,0.44871 4.37853,-0.90973 0.15638,0.47349 0.0816,0.11925 0.16319,0.10016 -0.008,0.12579 0.58956,-0.38903 0.0675,-0.0934 6.91469,3.2303 -1.91358,2.10318 1.81815,0.78762 -1.26538,1.71467 0.0515,0.13573 -0.0701,0.25367 -0.17809,0.29606 0.10591,0.0915 0.0766,0.32848 0.10147,0.0719 0.50041,0.76987 0.17443,-0.0876 0.20869,0.0131 0.0421,0.13677 0.43804,-0.17652 -1.17015,1.67641 -0.2385,-0.39269 -0.79037,1.07621 -0.23772,-0.38846 -0.92897,1.26385 0.19901,0.0996 0.30641,0.0492 0.0309,0.11507 -0.0591,0.0513 -0.1692,-0.005 -0.18829,0.0539 -0.13285,0.12788 -0.0314,0.14201 0.24112,0.10408 0.35273,-0.002 0.0324,0.16005 0.26777,0.0897 0.0894,0.11559 -0.039,0.15743 -0.005,0.25943 0.16737,0.44321 0.0662,0.0753 0.16789,0.0261 0.20608,-0.11585 0.20345,0.005 0.22543,0.23641 0.44086,0.2743 0.0272,0.0479 0.0157,0.45715 0.12997,0.22935 -0.2079,0.13991 -0.15037,-0.0105 -0.2474,0.21418 -0.14043,0.28471 -0.19535,0.11612 -0.0267,0.10617 0.18384,0.0999 -0.14749,0.0829 -0.0889,-0.0926 -0.25079,-0.0439 -0.11271,0.1624 -0.11611,0.0262 -0.15639,-0.0696 -0.14436,0.0183 -0.0693,0.079 0.0528,0.14985 -0.17626,-0.0157 -0.0636,-0.1556 -0.15455,0.002 -0.14776,0.0633 -0.1998,0.21811 -0.0805,0.22516 -0.27166,0.0892 -0.09,0.10826 -0.12501,0.0403 -0.16658,-0.0881 -0.34319,0.0646 -0.54389,0.17835 -0.10016,0.10931 0.0105,0.12135 -0.17731,0.0719 -0.31018,0.22438 -0.11428,0.18306 -0.14697,0.005 -0.37865,0.16188 -0.0939,0.0761 -0.10853,-0.17835 -0.23379,0.0293 -0.0622,0.15638 -0.36228,0.0949 -0.25184,-0.005 -0.24216,0.0649 -0.24373,-0.0839 -0.12814,0.0361 -0.14331,0.13389 -0.0981,0.22569 -0.3317,0.21601 -0.25132,0.29658 -0.13834,0.10487 -0.16423,0.19117 -0.4877,0.26308 -0.15141,0.045 -0.31489,0.18385 -0.0834,0.19692 -0.24634,0.28873 -0.1726,0.13965 -0.11507,0.17783 -0.003,0.2032 -0.1373,0.19378 -0.16501,0.0952 -0.43116,0.16554 -0.30061,0.0157 -0.18045,-0.0262 -0.12892,0.0505 -0.31309,0.23562 -0.085,0.11036 -0.17207,0.3282 -0.3282,0.28675 -0.22909,0.0586 -0.30576,-0.0892 -0.12344,0.0622 -0.0722,0.20005 -0.31706,0.18463 -0.23144,-0.0209 -0.48859,-0.27686 -0.34449,-0.0209 -0.32943,0.19352 -0.0894,0.0994 -0.0105,-0.0209 -1.41484,-3.4359 -1.52361,-3.41252 -0.32339,-0.72411 -0.59282,-1.47551 -1.40907,-3.18087 -1.29433,-2.92153 -0.11873,-0.26792 -1.19577,-2.6993 -1.7124,-3.74864 -0.005,-0.0209 -0.56387,-1.26395 -4.36718,-9.78896 -0.38856,-0.95215 -0.008,-0.0293 -0.47999,-1.04402 -0.94932,-2.06428 -1.23345,-2.8368 -1.04347,-2.20414 -0.22752,-0.48088 -1.22506,-2.6801 -1.93567,-4.23516 -0.92404,-1.8824 -1.94791,-4.19014 -3.1333,-7.06929 -0.008,-0.0157 -2.75023,-5.81205 -0.61182,-1.38965 -0.77379,-1.59456 -2.33524,-4.81322 -1.8255,-3.63093 -1.24771,-2.48138 -2.05529,-4.29293 -0.32383,-0.67638 -0.22516,-0.32702 -4.78398,-9.98827 -1.30271,-2.63593 -2.22368,-4.75453 -2.23411,-4.10315 0.41123,-0.24059 0.302,-0.24452 0.45312,-0.48665 0.44327,-0.37771 1.26144,-0.43178 0.34846,-0.0405 0.54427,-0.2748 0.60093,-0.38421 0.48563,-0.39002 0.32067,-0.31777 0.22569,-0.83781 -0.008,-0.0536 -0.28722,-0.14906 -0.53838,-0.0567 -0.38011,-0.58608 -0.0301,-0.11298 0.0722,-0.24033 0.49377,-0.0366 0.27841,0.0416 0.82693,0.14462 0.23955,0.0682 0.11402,0.0936 0.34697,0.0748 1.35551,-0.54602 1.14872,-0.62977 0.19431,0.17939 0.61296,0.37428 0.46751,0.17182 0.73472,-0.14043 0.76035,0.0947 0.31722,0.0419 0.88248,0.99579 -0.0209,0.30197 -0.20634,0.56743 -0.0288,0.18829 0.0296,0.45781 0.0335,0.0356 0.58386,0.12475 0.69008,0.19247 1.00827,0.52797 0.29899,0.34305 0.12317,0.72053 0.17652,0.10617 0.38396,0.0939 0.70038,0.0928 0.52952,-0.0701 1.70515,-0.31536 0.7781,-0.75996 0.33079,-0.38825 -0.21182,-0.034 -0.70076,-0.21915 -0.40717,-0.83737 -0.1475,-0.53273 0.32266,-0.32469 0.11977,-0.17339 0.0934,-0.20607 0.14671,-0.5694 0.10775,-0.41826 -0.0839,-0.59646 -0.0892,-0.25733 0.71511,-0.91044 0.0549,-0.0507 0.17522,-0.39954 -0.002,-0.81747 -0.19849,-0.84782 -0.19064,-0.21209 -0.19928,-0.0858 -0.2113,0.0602 -0.33678,-0.0847 -0.17364,-0.10565 -0.13861,-0.15613 -0.20372,-0.35105 -0.0131,-0.10853 -0.0649,-1.26225 0.24818,-0.61702 0.0615,-0.0902 0.2521,-0.16868 0.0688,-0.0852 -0.0541,-0.11716 -0.54751,-0.63869 -0.1501,-0.0745 -0.50164,-0.24975 -0.93646,-0.24608 -0.14854,0.0105 -0.14435,-0.12867 -0.21314,-0.35503 -0.0235,-0.15246 0.62826,-1.18814 0.59175,-0.79401 0.0837,-0.55854 -0.0262,-0.2079 0.18175,-0.19352 0.91415,-0.61375 1.99637,-0.54099 0.13389,-0.003 0.92545,0.20947 0.0602,0.30961 0.22673,0.35948 1.38346,0.53079 0.65337,0.0934 0.90711,0.0429 1.40663,-0.7167 0.36458,-0.19902 0.14618,-0.21287 0.0753,-0.0405 0.43466,-0.0978 1.48522,0.12945 0.2555,0.57036 0.0628,-0.002 0.67722,-0.19823 0.34146,-0.26551 0.69256,-0.69074 -0.70033,-2.51603 -0.63783,-0.72912 -1.48483,-0.69471 -1.0862,0.10225 -1.05262,-0.0879 -0.62988,-0.26638 -1.16057,-0.63971 -1.19243,-0.24531 -0.28272,-5.2e-4 -0.87102,-0.24425 -1.02626,-1.29301 -0.0976,-0.19953 -0.028,-0.19169 0.0262,-0.20477 0.27109,-0.39815 0.72863,-1.22749 0.0774,-0.1998 0.45516,-1.67379 -0.4747,-1.08293 0.1454,-0.1794 0.38244,-0.59735 0.95032,-1.75181 0.39263,-1.1135 -0.0949,-0.0583 0.19849,-0.74359 0.60345,-0.50227 1.16104,-0.97884 0.52494,-1.05775 0.34114,-0.19979 0.5893,-0.46024 0.0523,-0.0787 1.24855,-2.58373 0.0478,-0.48234 -0.16684,-0.0497 -0.0235,-0.0549 0.28296,-0.44947 0.37844,-0.24634 0.002,-0.002 0.87385,-0.2453 1.1572,-0.43772 0.36586,-0.43684 -0.0452,-0.13023 0.0235,-0.0557 0.44593,-0.77374 0.78115,-0.96096 1.55498,-1.85283 1.27753,-0.73676 0.35142,-0.10408 0.58354,-0.25707 0.51646,-0.44335 0.80615,-0.77489 0.15377,-0.14749 0.92288,-0.88708 0.49005,-0.93319 0.32213,-0.66521 -0.79466,-0.9551 -0.75311,-0.26322 -0.4622,0.0421 -0.46842,-0.15221 -1.37841,-1.5366 -0.36445,-0.50642 -0.0262,-0.0583 0.035,-0.074 0.59322,-0.4281 0.12605,-0.0408 0.18803,0.0319 0.18881,-0.0445 0.15482,-0.0887 0.19927,-0.30346 -0.14383,-0.26923 -0.17391,-0.0528 -0.0131,-0.36727 0.33887,-1.03199 0.36826,-0.62065 0.7166,-1.16209 1.3212,-1.98146 0.89225,-0.48503 0.22464,-0.14697 0.63025,-0.4128 0.71786,-0.56069 1.26889,-1.54304 1.13691,-1.79194 0.17783,-0.31675 0.0473,-1.06041 -0.1169,-0.25628 -0.6298,-0.74388 -0.0633,-0.0157 -0.23431,-0.0544 -0.11716,0.0863 -0.0458,-0.0105 -0.10617,-0.27221 0.0432,-0.13363 0.48511,-0.8688 0.68741,-0.77278 0.003,-0.15847 -0.0816,-0.20529 -1.27767,-0.48168 -1.13576,-0.19222 -0.70556,0.13861 -0.50635,0.11951 -0.5941,0.40317 -1.68706,0.77312 -0.28099,0.003 -0.0583,-0.005 -0.008,-0.034 0.13521,-0.70501 -0.0779,-0.70813 0.0999,-0.23771 0.3747,-0.38602 0.37506,-0.19902 0.43987,-0.67031 0.13233,-0.35542 -0.0335,-0.008 -0.63846,0.097 -0.7973,0.17679 -0.0581,-0.0209 -1.60148,-1.04525 -0.0105,-0.0314 1.12631,-2.34463 0.73569,-1.16933 -0.0421,-0.3946 -0.0643,-0.20084 -0.0816,-0.0518 -0.45168,-0.003 -0.2249,0.10461 -0.35564,0.30053 -1.04634,0.35176 -0.19744,-0.0183 -0.18123,-0.10643 0.68061,-2.80364 0.25969,-0.47535 0.77395,-0.60763 0.5065,-0.0866 0.95191,-0.25289 0.0892,-0.12212 -0.16135,-0.4139 -0.25576,-0.0813 -0.0557,-0.13599 0.0565,-0.68226 0.25289,-1.02307 -0.10278,-1.15024 -0.0131,-0.38804 -0.24923,-0.13267 -2.47883,-0.67485 -0.44327,-0.0588 -0.1896,0.0389 -0.401,-0.0579 -1.264,-0.43012 -0.30252,-0.37289 0.37754,-0.60688 0.62552,-1.33861 0.21967,-1.92808 0.0319,-0.36493 -0.0837,-0.89252 -0.15795,-0.6019 -0.0157,-0.40689 0.10094,-0.72084 0.66286,-1.7379 1.03599,-1.33211 0.5123,-0.58785 -0.22673,-1.14843 -0.15403,-0.121 -0.27676,-0.12582 -0.40516,-0.66964 0.0296,-0.21222 0.6997,-1.7011 0.142,-0.21915 0.79276,-1.03202 0.17887,-0.14002 0.73747,-0.4319 1.00667,-0.21724 0.43655,-0.48963 0.39653,-0.68632 0.25498,-0.1402 0.0873,-0.25223 -0.19562,-0.50342 0.0787,-0.2528 0.42425,-0.41126 0.549,-0.37433 0.40317,-1.20776 -0.057,-0.0516 -0.15037,-0.42827 0.17783,-0.44548 0.48477,-0.29452 0.6661,-0.24881 0.34094,-0.0357 1.24703,-0.96803 0.0311,-0.0568 -0.0296,-0.076 -1.84773,-11.26304 -0.23667,-1.29621 -0.27116,-1.48389 -1.29944,-8.27586 0.1135,-0.32841 2.00312,-4.52823 0.29187,-0.75401 3.11076,-7.00876 2.4928,-5.831 11.43114,-25.76756 5.79688,-12.9156 9.8307,-21.70439 0.40006,0.0592 1.3344,-0.0986 1.52379,-0.88519 0.23275,-0.17647 1.20006,0.007 0.61302,-0.23913 0.77525,-0.11732 1.97888,-0.17777 1.22396,0.0378 0.85076,0.0611 0.11114,0.0326 0.1407,0.22738 1.14138,-0.18672 0.13415,-0.0605 0.8528,-0.85885 0.32726,-0.36741 0.44604,-0.10785 0.98572,0.0105 0.12082,0.0366 0.38076,0.23325 0.58878,0.97967 -0.0541,0.35423 -0.15455,0.30962 0.0813,0.12793 0.12422,0.0529 -0.0481,0.083 -0.10827,0.0547 -0.008,0.45258 0.16187,0.16276 0.14279,0.0651 0.27054,0.0248 0.0764,0.0772 -0.30639,0.23636 -0.19143,0.0531 -0.37514,0.66255 1.49745,3.70289 0.2372,0.90083 0.68001,0.53904 0.0293,0.55925 -0.0518,0.14684 0.0999,0.29211 0.0727,0.0846 0.13233,-0.007 0.0753,0.0602 0.2487,0.48333 0.0392,0.33521 0.1726,0.25396 0.20293,0.13899 0.2633,0.50689 0.0421,0.32821 -0.0654,0.10539 -0.0105,0.19909 0.0447,0.19486 0.0499,0.0409 1.08201,0.55944 0.61757,0.10968 0.26319,-0.0657 0.52498,-0.0178 1.69503,0.0363 1.00913,0.0831 0.98889,0.0128 0.53647,0.063 0.28469,0.0914 0.47033,-0.0474 0.5979,0.37417 0.20372,-0.0714 0.33813,-0.23921 0.0808,0.0248 0.14593,0.21288 0.11454,-0.007 0.0991,-0.0678 0.37318,-0.44962 0.62042,0.11036 0.58033,0.19807 0.14749,-0.0323 0.0855,-0.10939 0.13312,-0.0466 0.40393,0.0761 0.18646,0.36938 0.22856,-0.0444 0.61576,0.0188 0.48707,0.26773 0.26834,0.0725 0.11559,-0.0181 0.0818,-0.27348 0.18411,-0.20223 0.18071,-0.0787 0.24687,-0.0339 0.54036,-0.30601 0.23903,-0.36976 0.20136,-0.23233 0.22621,-0.16049 0.6018,-0.25879 0.35312,-0.25882 0.23039,-0.30241 0.24556,-0.44651 1.08343,-1.05246 0.24818,-0.30124 0.83959,-1.01954 0.62094,-0.29108 1.53856,-1.07547 0.80871,-0.29408 0.35866,-0.22362 0.79127,-0.67655 0.37948,-0.52608 0.59319,-0.63324 1.14703,-0.88462 0.31102,-0.12675 0.22019,-0.0295 0.22046,0.0522 0.25916,-0.0467 0.4612,-0.44809 0.27281,-0.26506 0.19692,-0.15489 0.19718,-0.0963 0.9147,-0.22166 1.04493,0.0918 0.16842,-0.0287 0.23458,-0.16164 0.27011,-0.30402 0.42781,-0.18638 0.61901,-0.38549 0.96752,-0.45925 0.0424,-0.0207 0.3618,-0.21162 0.75248,-0.65841 0.17365,-0.23147 0.4555,-0.88342 0.0544,-0.15555 -0.056,-0.14365 -0.12919,-0.11514 -0.40435,-0.24331 -0.058,-0.1487 0.0829,-0.19023 0.2364,-0.34744 -0.003,-0.16811 -0.008,-0.28094 0.0908,-0.17764 0.31572,-0.44469 0.2685,-0.28019 0.56579,-0.17806 0.88943,-0.061 0.52099,-0.0806 0.15926,-0.0594 0.35584,-0.20315 0.45828,-0.36575 0.56218,-0.85614 0.3511,-0.31809 0.36934,-0.25699 0.76433,-0.34475 0.26224,-0.0768 0.59278,-0.0716 0.42802,-0.13612 0.30445,-0.16577 0.5092,-0.38995 0.28675,-0.16651 0.35895,-0.0779 0.352,0.0272 0.2453,0.12519 0.24582,0.18371 0.22098,0.16368 0.17548,0.0542 0.75551,-0.11781 0.38785,-0.23118 0.83462,-0.19339 0.27263,-0.10779 0.23275,-0.19606 0.55985,-0.61186 0.18253,-0.12958 1.77435,-0.53618 0.49625,-0.19509 0.30471,-0.19462 0.10879,-0.12414 0.0285,-0.14274 -0.0392,-0.17241 -0.10853,-0.12712 -0.0858,-0.0832 -0.17809,-0.0824 -0.52039,-0.14577 -0.10173,-0.081 -0.0382,-0.17007 0.14069,-0.28666 -0.008,-0.11203 -0.62471,-0.87611 -0.10957,-0.35265 -0.0921,-1.09741 0.0429,-0.26405 0.17939,-0.44198 0.20974,-0.38388 0.25654,-0.33408 0.25603,-0.25395 0.43003,-0.29281 0.11742,-0.0663 1.20432,-0.68176 0.45763,-0.21572 0.5049,-0.16792 1.08554,-0.11227 0.47554,-0.12521 0.21,-0.13068 0.38301,-0.37155 0.11402,-0.11065 0.22752,-0.15118 0.38042,-0.16394 0.48148,-0.0358 0.53406,0.10523 0.24138,0.007 0.37252,-0.0439 1.26916,-0.49272 0.52914,-0.35171 0.38785,-0.22111 0.57476,-0.0552 0.28455,0.0817 0.0617,0.0577 0.0905,0.23152 0.15534,0.12435 0.4894,0.12247 0.26881,-0.002 0.26151,-0.0573 0.49667,-0.24653 0.15063,-0.0315 1.99781,-0.006 0.24112,-10e-4 1.13165,-0.31494 0.52459,-0.006 0.15325,0.0474 0.15874,0.16201 0.14096,0.58382 0.091,0.16125 0.12658,0.10837 0.67347,0.23011 0.85238,0.35112 0.70734,-0.11608 0.26824,0.0687 0.4037,0.17333 0.15978,0.0212 2.31587,-10e-4 0.84824,0.0758 0.26021,0.0697 0.29096,0.16284 0.24399,0.2943 0.21104,0.11627 0.99943,-0.10779 0.0371,0.002 2.08635,0.0876 0.31147,0.0521 1.21125,0.005 0.37135,0.16096 0.95513,0.30913 0.85044,0.40104 0.63313,0.24711 0.15429,0.0246 0.35252,0.007 1.15066,-0.26175 0.19352,-0.007 0.51518,0.0971 0.6721,0.0188 0.34964,0.15333 0.18044,0.24506 0.11769,0.23134 0.14644,0.28759 0.16476,0.15712 0.50655,0.27099 0.14383,0.0209 0.42444,0.23489 0.43437,0.39282 0.92629,0.43308 0.12552,0.0591 0.53035,0.0487 0.78454,-0.0422 0.8209,0.57439 0.23536,0.12118 0.73433,0.15647 0.1203,0.0639 0.27302,0.23141 0.23274,0.41201 0.1543,0.3972 0.0889,0.11321 0.34727,0.23473 0.17783,0.0575 0.2432,0.0689 0.27695,0.0186 0.61769,-0.11083 0.477,-0.0423 1.31751,-0.0241 1.08136,0.12493 0.37711,-0.0207 0.70582,-0.17059 0.2066,-0.012 0.39881,0.0429 0.56356,0.2145 0.53662,0.0207 0.846,-0.0304 0.34703,0.0307 0.1203,0.13912 0.11768,0.22713 0.35984,0.92214 0.27538,0.70478 0.47543,1.06712 0.25367,0.78715 0.36507,0.86312 0.0654,0.28143 1.20296,3.0093 2.28511,5.77468 0.25367,0.65176 2.19515,5.73153 0.87868,2.15736 0.21183,0.54052 2.0147,5.07421 2.56676,6.4678 0.0549,0.13984 2.72236,6.51353 1.35987,3.25342 0.88915,2.12623 1.93834,4.74973 2.80552,6.8776 7.9e-4,0.002 2.73962,6.87409 2.6439,6.63606 1.69618,4.25828 0.98173,2.51471 0.10722,0.27272 1.00159,2.746 0.16476,0.42405 0.46262,1.11321 0.2249,0.3277 0.28949,0.22407 0.0602,-0.012 0.1203,-0.12626 0.1046,-0.0243 1.4433,0.1948 0.75682,0.38876 -0.0261,0.25817 -0.18829,0.35381 -0.24321,0.24449 -0.31486,0.08 -0.0758,0.0843 -0.0497,0.68337 0.16476,0.2279 -0.0497,0.0724 -0.68831,0.50987 -0.30858,0.11757 -0.16476,0.0233 -0.98486,1.40107 -0.0262,0.078 0.19352,0.67838 0.21183,0.31447 0.34598,0.21036 0.45634,0.27899 0.74244,0.4096 0.63731,0.19754 0.46079,0.0599 0.50576,0.003 0.26989,0.0661 0.46026,0.27251 0.19614,0.26789 0.12552,0.0758 0.71237,0.13518 -0.54631,0.49924 -0.0889,0.16293 -0.0889,0.0575 -0.4621,0.10819 -0.3554,0.15283 -0.15168,0.14637 -0.0261,0.0545 0.0418,0.10476 -1.22781,1.55819 -0.0863,0.78548 0.5973,0.8831 0.1386,0.62189 0.068,0.30872 -0.20398,0.27207 0.55389,0.81433 1.11797,-0.0235 1.38655,1.10949 -2.01105,0.94816 1.45141,2.25821 -1.02069,0.60471 1.30652,0.63745 0.22752,0.1114 2.57199,-0.9788 1.34758,0.30821 1.89859,-0.35323 0.75656,-0.23408 0.0471,-0.0438 0.0549,-0.22781 -0.0784,-0.20293 -0.47936,-0.0173 -0.76205,-0.37048 -0.38547,-0.3617 -0.20398,-0.32591 0.3465,-0.13797 0.18306,-0.0254 1.53326,0.17663 0.48903,0.29798 1.00186,0.79327 0.66581,0.53872 1.83269,0.93848 0.85045,0.22176 1.84027,0.20741 0.33735,-0.35181 -0.49661,-0.40626 0.28531,-0.2436 0.68752,0.0183 2.32172,0.36138 1.80471,-0.36027 1.84472,-0.0735 0.32297,-0.14009 -0.0262,-0.17937 0.73328,-0.35415 0.90454,-0.12879 1.3908,0.0813 0.034,7.7e-4 1.4412,-0.4852 0.501,-0.57686 0.091,-0.30471 -0.1072,-0.15411 -0.2066,-0.087 0.026,-0.20351 0.8821,-0.59815 1.5602,-0.65233 0.476,-0.032 2.0269,0.83541 0.4506,0.22344 0.3342,0.46042 0.8361,1.55905 -0.06,0.81049 -0.2118,0.0968 -0.071,-0.022 -0.1256,0.032 -0.1072,0.0729 -0.026,0.44548 0.094,0.40035 0.081,0.13837 0.4632,0.56801 1.119,0.32015 0.5246,0.44273 0.039,0.1011 -0.065,0.0397 -0.351,-0.12461 -0.149,-0.0115 -0.1203,0.0442 v 0.15215 0.11088 l -0.084,0.13965 -0.026,0.0367 -0.1543,0.0376 -1.5966,0.33853 -0.084,0.008 -0.9801,0.0874 -0.4592,0.46771 v 0.0903 l 0.1464,0.302 -0.3708,0.38571 -0.7241,0.57902 -0.6946,0.48344 -0.073,0.0509 -0.2302,0.20311 -0.026,0.1062 0.136,0.21628 0.4621,0.44324 0.5448,0.21353 0.6956,0.15659 0.5445,0.40096 0.1046,0.17522 -0.1517,0.25369 0.1543,0.28401 0.1961,0.22705 0.4006,0.465 0.5207,0.60759 0.4642,0.35236 0.2092,0.0761 0.2066,0.0335 0.8941,0.14444 0.06,0.009 1.0032,0.30178 1.7678,0.57611 0.1517,0.0984 0.1282,0.0839 1.0063,0.65454 v 0.10087 l -0.1282,0.21624 -0.1517,0.11117 -0.263,0.0831 -0.1596,0.21795 -0.052,0.11198 -0.073,0.48399 0.1726,0.28333 0.1622,0.0732 0.3423,0.15393 0.089,0.0396 v 0.57497 0.0779 l -0.063,0.57708 v 0.11256 l -0.3604,0.61215 -0.052,0.0622 -0.4432,0.53524 -0.1674,0.20281 -0.1543,0.21433 v 0.0706 l 0.073,0.11742 0.4284,0.19901 0.081,0.20634 v 0.22236 l -0.1334,1.23459 -0.2995,0.38583 0.063,0.23606 -0.026,0.0368 -0.8601,0.68084 -0.2432,-0.0455 -0.1569,0.0225 -0.091,0.073 -0.039,0.0839 0.026,0.67476 0.039,0.10134 0.1935,0.12908 2.7865,1.8766 0.149,0.0571 0.1596,0.008 0.523,-0.13627 1.4043,0.65169 0.3387,0.24182 0.785,0.76898 0.4896,0.74392 0.1935,0.42334 2.0066,0.39171 0.391,0.61334 0.1516,0.23829 v 0.17394 l 0.058,0.14885 0.1387,0.1954 1.0539,0.0212 0.1516,0.003 0.567,-0.0633 2.5521,0.74878 0.3389,0.0642 0.6698,10e-4 0.3771,-0.0664 2e-4,7.8e-4 0.065,-0.0397 0.5678,-0.73798 0.6166,-0.90116 0.7984,-0.77061 -7e-4,-0.002 0.4838,-0.34611 0.115,-0.15372 0.044,-0.16376 -0.071,-0.29914 -0.2432,-0.0552 -0.4046,2.2e-4 -0.183,-0.28897 0.026,-0.65732 0.204,-0.20422 0.302,-0.20743 -0.1124,-0.21533 -0.1779,-0.0687 -0.079,-0.12741 -0.026,-0.35418 -0.026,-0.44782 0.029,-0.1032 0.3599,-0.42669 0.9548,-0.29237 0.8002,-0.0316 0.3536,0.088 0.9469,0.003 0.2715,0.10618 0.301,0.39679 0.1516,0.0319 0.6366,-0.0286 0.29696,0.14281 0.2668,0.0576 0.3075,-0.12283 1.1991,-1.12488 1.1038,0.0404 1.7598,-0.57778 0.5392,-0.0642 0.1569,-0.003 0.1438,0.0451 1.3212,0.70611 1.6549,0.58958 0.6692,0.36953 1.1253,0.6211 2.3714,2.21591 0.4867,0.38421 -1.033,0.65337 -0.026,0.0367 -0.589,0.97453 1.4182,0.29714 0.2485,0.0516 1.307,0.46912 0.4446,0.15966 0.8285,0.55892 0.026,0.0478 0.1909,0.30117 0.2536,0.40108 0.5424,0.41162 1.4219,0.65931 0.5646,0.60857 0.7686,0.82797 0.1255,0.13411 v 0.0196 l 0.081,0.0861 0.3502,0.37897 0.3527,0.37906 0.1439,0.15393 0.5157,0.26824 0.1909,0.0426 0.2458,0.0552 2.4904,0.55655 0.4213,-0.12228 0.4226,-0.12294 5e-4,10e-4 0.6308,0.20351 0.336,0.65964 v 0.52064 l -0.2275,0.14592 v 0.01 l 0.3091,1.02906 v 0.022 l 0.3988,0.3741 0.1517,0.14381 0.068,0.0639 1.0223,0.95882 -0.086,0.0981 -0.5803,0.66827 -0.2066,0.23667 -0.1334,0.43762 1.0074,1.03007 0.4396,0.45007 0.9854,0.0552 0.073,-0.0706 0.4558,-0.44018 1.0327,-0.48898 0.2406,0.13233 0.034,0.23196 -0.5667,0.84077 -0.6174,0.37357 -0.5361,-0.0131 v 0.002 l -0.2197,0.16318 -0.039,0.074 -0.4279,0.83923 -0.2066,0.73752 -0.1386,0.23693 -1.125,1.92594 10e-4,0.002 -0.3653,0.41771 -1.1818,0.7278 -0.6525,-0.0803 -0.4048,-0.0497 -0.4686,0.34491 0.044,0.11298 0.042,0.18097 0.042,0.10722 0.084,0.29676 0.037,0.16737 -0.086,0.46432 -0.1282,0.68119 -0.065,0.35043 -0.6828,0.44201 -0.1543,0.0105 -0.5978,0.0439 -0.1883,0.12422 -0.2458,0.1624 v 0.005 l 0.086,0.52518 0.2301,1.38017 -0.3428,0.66992 -0.3219,0.62852 -0.5362,1.04715 -0.7249,0.41691 -0.3734,0.97545 -0.099,1.28892 0.086,0.0792 -0.9637,0.88828 -0.8808,0.21497 -0.044,0.0131 -0.3263,0.21706 -0.034,0.11507 -0.029,0.0939 -0.063,0.22072 -0.031,0.11166 -0.042,0.1441 0.2704,0.55611 0.2118,0.10591 -0.068,0.0523 -0.5487,0.40313 -0.495,0.36366 -0.449,0.32992 -1.4948,0.75337 -0.026,0.0131 -0.653,0.0269 -0.094,0.003 -0.3413,0.0131 -0.2707,0.1773 -0.4276,0.5814 -0.8459,1.14977 v 0.22935 l 0.026,0.47622 0.1621,0.1318 0.3381,0.2765 -0.031,0.0431 -0.2782,0.40108 -0.026,0.0343 -0.2589,0.29967 -0.5333,0.61691 -0.042,0.0499 -0.6111,0.40396 -0.88,0.27302 -0.071,0.0209 -0.9166,-0.59486 -0.052,-0.24086 0.026,-0.0105 0.17,-0.0805 0.6522,-0.30401 0.026,-0.0484 0.3619,-1.13771 0.2762,-0.86744 v -0.0105 l -0.3167,-1.07028 -0.6138,-0.26514 -0.9692,-0.0426 -0.031,0.0183 -1.0081,0.5881 -0.1098,0.0651 -0.3913,-0.70729 v -0.0183 l 0.2093,-0.66715 1.1901,0.26452 -0.068,-0.24922 -0.029,-0.073 -0.4856,-1.47392 -0.063,-0.16293 0.4166,-0.62763 -0.1622,-0.603 -0.034,-0.0839 -0.1909,0.0363 -0.5528,0.10512 -0.084,0.0547 -0.044,0.0288 -0.6198,0.39975 -0.493,0.31768 -1.3857,0.89334 -0.044,0.0288 -0.5932,0.26724 -0.3907,0.70363 -0.251,0.45091 -0.3986,0.71783 v 0.38795 0.1373 l 0.026,0.51677 0.271,0.23406 0.039,0.005 0.4058,0.0371 0.071,0.0526 0.4096,0.29828 0.318,0.2317 0.078,0.12344 0.2942,0.45877 0.1987,0.31091 0.1726,0.27287 0.1543,0.2419 -0.1726,0.67656 -0.5444,0.63145 -0.357,-0.11088 -0.521,-0.16161 -0.1438,0.0918 -0.031,0.27485 -0.1046,0.93993 0.063,0.85178 -0.238,0.80849 -0.546,-0.0183 -0.7137,-0.27663 -0.045,-0.0426 -0.2118,-0.23301 -0.2712,0.0581 -0.3392,0.073 -0.2775,0.18489 -0.7586,0.5059 v 0.008 l -0.1988,0.28353 v 0.24765 l 8e-4,0.002 -0.084,0.058 -0.48216,0.34206 -0.042,0.0303 -0.635,-0.0962 -0.8988,-0.13599 -0.1673,-0.0235 -0.2406,-0.0361 -1.1962,-0.18097 -0.068,-0.10251 -0.3517,-0.6637 -0.076,-0.0157 -1.055,-0.22255 v 0.002 l -1.0931,0.73319 -0.044,0.0288 0.094,0.51725 -0.3635,0.53532 -0.2223,0.12213 -0.029,-0.003 -0.3107,-0.0905 -0.047,-0.0131 -0.2275,-0.0654 -0.1124,0.0356 -0.1282,0.0413 -0.1046,0.13415 -0.29,0.37201 -0.047,0.0599 v 0.008 l -0.026,0.19614 8e-4,0.002 v 0.70833 0.69751 l 0.026,3.6055 0.4976,0.13546 1.0568,1.06638 -0.1909,0.78365 -0.8368,0.39724 -2.4904,1.18217 -0.2275,0.10827 -1.9455,0.92333 -0.2772,0.13075 -0.3535,0.10225 -0.065,-0.0724 -0.1255,-0.14148 -0.3782,-0.42258 -0.2633,-0.0131 -0.063,-0.003 -0.099,0.0403 -0.8947,0.36601 -0.4537,0.18568 -0.4014,0.16501 -0.2963,0.2406 -0.2621,0.21261 -0.1203,0.0983 -0.2714,0.56539 -0.026,0.051 0.3533,0.44487 0.065,0.0837 0.2092,0.26319 -0.026,0.94032 -0.3724,0.7376 -0.1438,0.28147 -0.5942,0.005 -8e-4,-0.002 -0.1307,10e-4 -0.7561,0.48885 -5e-4,-0.001 -0.7173,0.18202 -0.2118,-0.66383 0.1203,-0.28262 -0.084,-0.14566 -0.026,-0.0505 -0.436,-0.73572 -0.1674,-0.28393 -0.8959,-0.65807 -0.3306,-0.24242 -0.078,-0.0567 -0.4573,-0.0719 -0.2995,0.0531 -0.37,0.0651 -0.1203,0.0664 -0.1308,0.0703 -0.2223,0.12056 -0.2947,0.43693 0.026,0.12919 v 0.0272 l 0.044,0.37519 0.031,0.25158 0.4192,0.98089 -0.2662,0.1012 -0.6912,0.26418 -0.2066,0.0798 -0.484,-0.0879 -0.1334,-0.12004 -0.2537,-0.22987 -0.2066,-0.52763 -0.4542,-0.43074 -5e-4,-1.3e-4 -0.4349,-0.0868 -1.4164,-0.28288 -0.089,-0.0183 -0.7814,0.19771 -0.2686,0.31959 0.029,0.28286 v 0.0957 0.0183 l 0.2806,0.36653 0.1491,0.19483 -0.029,0.10931 -0.1857,0.73996 -0.1517,0.60632 -0.081,0.3288 0.663,1.2669 0.3172,0.60384 0.3329,0.29925 0.1857,0.57104 -0.1125,0.57389 -0.3685,0.23772 -0.2631,0.59392 0.042,0.54066 v 8e-5 l 0.238,0.60752 v 0.0131 l 1.1002,0.84131 0.5764,0.44115 0.4027,0.30785 0.1282,0.32637 -0.1125,0.45702 -0.2924,0.002 -0.6632,0.005 -0.2118,0.002 -0.06,-0.0296 -0.9705,-0.49826 -0.1569,0.11873 -0.4229,0.32174 0.1936,0.49661 0.1333,1.36966 v 0.008 l -0.1072,1.36139 -1.6203,-1.50977 -0.4394,-0.7585 -0.6744,0.0131 -0.3361,0.23824 -0.2249,0.33855 0.4349,0.47408 v 0.81072 l -0.3567,0.19561 -0.9344,-0.0332 -0.6326,0.2113 -0.076,0.1033 -0.251,0.34567 0.341,0.87332 0.047,0.11978 -0.1961,0.29266 -0.7333,1.09571 -0.4995,0.20346 -0.4161,-0.21104 -0.4809,-0.24347 -0.3363,-0.17129 -0.4422,-0.39973 -0.4885,-0.0596 -0.28063,0.28842 -0.0262,0.0813 -0.0942,0.28233 -0.19875,0.58352 -0.0262,0.0824 0.60388,0.33662 -0.1387,0.61076 -0.24315,1.0617 -0.0288,0.12082 -0.0628,0.27652 -0.12291,0.53276 -0.0418,0.18567 -0.19352,0.0586 -0.22228,0.0675 -0.25629,0.35064 0.16214,0.50898 0.34232,0.51014 v 0.0594 l -0.034,0.42125 -0.0262,0.18384 -0.0392,0.47465 -0.85149,0.22517 -0.60148,-0.0808 -0.034,-0.0157 -0.99062,-0.62562 -0.25628,-0.54296 -0.59991,-1.26355 -0.71786,-0.005 -0.0785,0.28486 -0.0549,0.19692 -0.20398,0.11559 -1.21003,-0.73451 -1.10228,-0.97393 -0.0497,-0.12841 -0.22491,-0.57883 -0.10983,-0.28032 -0.18306,-0.47114 -0.27171,-0.25707 -0.23537,-0.22412 -0.0758,-0.11899 -0.64384,-0.99464 -0.0942,-0.24242 -0.20398,-0.59251 -0.0785,-0.19875 0.068,-0.74202 -0.39358,-0.45441 -0.51257,-0.12187 -0.73276,0.18254 -0.8426,0.21 -0.57611,0.14357 -0.0497,0.0424 -0.39985,0.3428 -0.0863,0.0737 -0.0261,0.0183 -0.17522,0.23562 0.0471,0.12291 0.0497,0.19719 -0.50498,0.44752 -0.43542,0.13521 -0.81697,0.2534 -0.53427,0.16554 0.0366,-0.13363 0.14121,-0.50844 -0.21444,-0.4532 -0.22751,-0.12527 -1.66637,0.244 -0.0915,0.0131 -0.5871,0.69424 v 0.0411 0.17705 l -0.0288,0.41036 0.40875,0.6517 0.20137,0.32488 0.0601,0.0842 -0.34807,0.20738 -1.33555,-0.12239 -0.94119,-0.66986 -0.53741,0.15534 -0.16999,0.0492 -0.0288,0.30707 -0.0654,0.7234 v 0.0826 l 0.1203,0.74934 0.0314,0.193 -0.10722,0.18541 -0.42679,0.73862 -1.21186,0.65196 0.11507,0.37456 0.1386,0.4513 0.0262,0.035 0.45582,0.25131 0.0418,-0.0303 1.69723,-1.29167 0.97884,-0.0434 0.10984,-0.005 0.66869,-0.0296 0.31356,0.1637 0.19352,0.38864 0.13337,0.27046 -0.3805,0.39902 0.0837,0.21731 0.13599,0.034 3.11123,0.77267 0.36193,-0.356 0.47073,-0.13102 0.66163,0.25419 1.41427,0.91431 0.0392,0.0272 1.27645,1.39792 0.16214,0.17521 0.50394,1.06076 0.0261,0.0335 -0.0261,0.035 -0.57507,1.68734 -0.14122,0.41372 -0.29446,0.29326 -0.36246,0.36102 -0.75395,0.75067 -0.50995,0.50781 -0.62659,0.62411 -0.12291,0.0468 -0.5973,0.22751 -0.43803,0.16816 -0.78533,0.30097 -0.65666,0.25053 -0.49374,0.18986 -0.28295,0.24426 -0.29264,0.25236 -0.33421,0.28821 -0.13599,0.25472 -0.13337,0.24791 -0.0837,0.15456 -0.0837,0.15717 0.24582,0.72619 0.17522,0.23511 0.002,0.002 0.21444,0.0288 0.73407,0.91057 -0.64071,1.17833 -0.23536,0.43458 -0.45085,0.8291 -0.20137,0.10382 -0.11768,0.0596 -1.23853,0.6331 -0.45974,-0.38409 -0.0732,3.7e-4 -1.31829,0.0157 -0.49583,0.005 -0.21444,-0.12134 -0.12291,-0.0714 -0.14383,-0.0829 -0.73067,-0.0771 -0.56226,0.24765 -0.301,0.13154 -0.99428,-0.0531 -0.54369,-0.30467 -1.29344,-0.72486 -0.16737,-0.0936 -0.40639,-0.68127 -0.66242,-0.64767 -0.45922,-0.12082 -0.40377,-1.03418 0.0575,-0.0638 0.56618,-0.63778 0.49504,-0.55739 0.0262,-0.0602 0.0994,-0.2726 -0.0811,-0.12082 -0.0915,-0.13363 -0.65091,-0.0962 -0.41188,-0.0609 -0.0445,-0.11376 -0.002,-0.008 0.12291,-0.63969 0.20137,-1.06371 0.0262,-0.0131 0.25105,-0.13154 0.26544,-0.43534 0.18044,-0.29596 0.0497,-0.0811 -0.0837,-0.44606 -0.1569,-0.17391 -0.0889,-0.0975 -0.13337,-0.1454 0.14122,-0.14958 1.14987,-1.22488 0.54395,-0.57926 0.33579,0.0209 -7.9e-4,-0.002 0.21967,-0.14541 0.0863,-0.26046 -0.37632,-0.74874 -0.23013,-0.1679 -0.34938,-0.25497 -0.86195,-0.62651 -0.14645,-0.10696 -0.0706,-0.0296 -0.32741,-0.13416 -0.27773,-0.11454 -0.6598,0.18201 -0.1386,0.35666 0.0941,0.46439 0.0549,0.27119 -0.51152,0.94004 -0.51544,0.94668 -0.15691,0.28814 -0.352,0.27048 -0.46183,0.14697 -0.58239,-0.176 -0.62372,-1.89218 -0.14644,-1.0112 -0.96944,-0.38058 -0.27929,0.0586 -0.40796,0.0858 -0.46654,0.35252 -0.24321,0.45074 -0.0889,0.60763 0.55441,0.85923 0.51937,0.80531 0.0262,1.19174 0.20137,0.51743 0.39331,0.31021 0.0497,0.1237 0.15691,0.40385 -0.33605,0.23824 -0.10199,0.0317 -0.0732,0.0235 -0.74741,0.23406 -0.66346,-0.59955 -0.0261,-0.16789 -0.0602,-0.58815 0.39593,-0.72682 -0.94877,-1.29899 -0.43385,-0.59343 -0.28113,0.0131 -0.14122,0.008 -0.54944,0.60799 0.0262,0.34823 0.0549,0.9454 -0.27145,0.26683 -0.0915,0.0894 -0.71105,0.13442 -0.36115,0.74642 -0.36456,0.7531 -0.30518,0.22621 -0.49662,0.0468 -1.19381,0.11245 -0.41031,0.23171 -0.13599,0.26959 -0.0654,0.13154 2.6e-4,0.001 0.0314,0.31324 -0.002,0.0664 0.21183,0.34185 0.17521,0.28225 v 0.0105 l 0.71864,0.64952 0.75552,-0.0806 0.82612,1.1082 -0.37187,0.89027 -0.28296,1.1425 -0.0262,0.10461 0.16998,1.24906 0.18568,0.31897 0.30727,0.30493 0.78245,0.3084 1.33111,-0.44162 0.034,-0.0262 0.49112,-0.34018 0.4247,0.39039 -0.0942,0.7955 0.56514,0.65049 0.99218,0.55616 0.11507,0.36719 -0.43176,1.07315 0.36245,0.56853 0.50263,0.26777 0.10461,0.66354 -0.73852,0.13677 -1.40668,-0.0649 -0.0785,-0.12291 -0.0314,-0.0105 -1.10254,-0.37585 -0.53035,-0.0332 -0.35043,-0.0209 -0.31852,-0.0813 -1.09601,-0.28037 -0.68804,-0.17574 -0.36246,-0.0926 -0.43306,-0.11062 -0.92629,0.30014 -0.82377,-0.0641 -0.0941,-0.008 -0.22229,-0.25105 -0.0811,-0.0209 -0.15952,-0.0403 -0.0471,0.008 -3.42714,0.45506 -0.81305,0.108 -0.0497,-0.005 -1.14673,-0.12788 -2.16037,-0.24085 -0.44745,-0.05 -0.73956,-0.29054 -0.90432,0.15089 -0.14906,0.0235 -0.37972,0.19273 -0.74819,0.37964 -0.23536,0.31152 -0.0419,0.12736 -0.13337,0.4145 -0.0288,0.091 -0.18568,0.21784 -1.0573,1.24089 -0.13337,0.15795 -0.54212,0.13207 -0.35723,0.0871 -1.60125,0.39036 -0.21444,-0.29036 -0.0262,-0.0353 -0.29263,-1.3787 -0.13076,-1.23137 0.16998,-0.3645 -0.0262,-0.2113 -0.0261,-0.27634 -0.0262,-0.26735 -0.0261,-0.033 -0.63339,-0.80711 -0.23798,-0.47339 -0.48014,-0.96402 -0.42025,-0.8422 -0.068,-0.13625 v -10e-4 l -0.0628,-1.29892 -0.0261,-0.30116 0.81854,-0.89241 0.2249,-1.55609 0.0497,-0.35537 0.0863,-0.59918 -0.0811,-0.45451 -0.0758,-0.42122 v -0.0183 l -0.85567,0.54212 -0.91086,0.57703 -0.0366,0.0235 -1.22467,1.03154 -1.70664,2.14216 -0.10199,0.17286 -0.1909,0.32726 -0.25629,0.43566 -0.54002,0.92155 -0.53401,-0.0105 -0.34808,-0.27229 -0.18567,-0.14357 -0.30231,-0.34387 v -0.14357 l -0.42078,-0.21052 -0.0785,-0.0392 -0.0314,-0.0183 -0.32401,0.005 -0.0994,0.0552 -1.73642,1.0006 v 0.008 l -0.0262,0.30579 -0.0392,0.51502 -0.80023,1.12232 v 0.0105 l -0.79867,0.38897 -1.76966,0.86182 v 0.0157 l -0.28845,1.04878 v 0.0131 l 0.98617,1.14896 0.0261,0.0157 0.16214,0.14069 0.53662,0.46215 0.0262,10e-4 0.97753,0.0533 0.63182,0.26727 1.51153,1.04566 0.45294,2.53593 -0.0471,0.84477 -0.96734,1.91378 -0.17783,0.0837 -0.90612,0.42948 -0.67392,0.31952 -0.0262,0.008 0.14384,0.45784 0.29603,0.94014 0.0471,0.15926 -0.11506,0.47031 -0.27956,1.13167 -0.0549,0.0806 z"
     id="ME-2"
     style="stroke-width:0.411299" />
</svg>
