<?xml version="1.0" encoding="UTF-8" standalone="no"?>
<svg
   xmlns:dc="http://purl.org/dc/elements/1.1/"
   xmlns:cc="http://creativecommons.org/ns#"
   xmlns:rdf="http://www.w3.org/1999/02/22-rdf-syntax-ns#"
   xmlns:svg="http://www.w3.org/2000/svg"
   xmlns="http://www.w3.org/2000/svg"
   xmlns:sodipodi="http://sodipodi.sourceforge.net/DTD/sodipodi-0.dtd"
   xmlns:inkscape="http://www.inkscape.org/namespaces/inkscape"
   version="1.1"
   id="svg1138"
   width="75"
   height="75"
   viewBox="0 0 72.533333 85.333336"
   sodipodi:docname="OH.svg"
   inkscape:version="1.0.1 (3bc2e813f5, 2020-09-07)">
  <metadata
     id="metadata1144">
    <rdf:RDF>
      <cc:Work
         rdf:about="">
        <dc:format>image/svg+xml</dc:format>
        <dc:type
           rdf:resource="http://purl.org/dc/dcmitype/StillImage" />
        <dc:title></dc:title>
      </cc:Work>
    </rdf:RDF>
  </metadata>
  <defs
     id="defs1142" />
  <sodipodi:namedview
     pagecolor="#ffffff"
     bordercolor="#666666"
     borderopacity="1"
     objecttolerance="10"
     gridtolerance="10"
     guidetolerance="10"
     inkscape:pageopacity="0"
     inkscape:pageshadow="2"
     inkscape:window-width="1440"
     inkscape:window-height="877"
     id="namedview1140"
     showgrid="false"
     inkscape:zoom="7.8281248"
     inkscape:cx="36.266666"
     inkscape:cy="42.666668"
     inkscape:window-x="-8"
     inkscape:window-y="-8"
     inkscape:window-maximized="1"
     inkscape:current-layer="g1146" />
  <g
     inkscape:groupmode="layer"
     inkscape:label="Image"
     id="g1146">
    <path
       style="stroke-width:1.06667"
       d="m 46.783231,81.079325 -2.13333,-1.206307 -0.866886,-1.452731 -0.866885,-1.452732 -2.558474,2.012496 -2.558472,2.012495 -5.641309,-0.318719 -5.641308,-0.318719 -1.815493,-0.390672 -1.815495,-0.390672 -1.917838,-1.674565 -1.91784,-1.674566 -2.144686,-1.104622 -2.144687,-1.104621 -2.655313,0.505188 -2.6553144,0.505189 -4.611202,-27.370875 -4.61120302,-27.370876 0.344536,-0.276269 0.344535,-0.276267 10.46325642,-2.381884 10.463255,-2.381884 5.536745,0.684461 5.536744,0.68446 2.408532,1.191745 2.408532,1.191745 4.641635,-2.318145 4.641635,-2.318144 h 1.13919 1.13919 l 2.47731,-3.132999 2.47731,-3.1329994 5.00268,-3.800335 5.00267,-3.80033502 h 1.02359 1.02358 l 1.79173,8.26666702 1.79172,8.2666674 1.24868,5.333334 1.24868,5.333333 -0.30089,11.92383 -0.30088,11.92383 -3.14692,3.009504 -3.14691,3.009504 -2.68553,2.361885 -2.68553,2.361884 v 2.2535 2.2535 l -3.16411,3.164103 -3.1641,3.164102 0.60378,3.018879 0.60377,3.018879 -2.47701,1.734968 -2.47701,1.734967 -0.56266,-0.03244 -0.56266,-0.03244 z"
       id="path1150" />
  </g>
</svg>
