<?xml version="1.0" encoding="UTF-8" standalone="no"?>
<svg
   xmlns:dc="http://purl.org/dc/elements/1.1/"
   xmlns:cc="http://creativecommons.org/ns#"
   xmlns:rdf="http://www.w3.org/1999/02/22-rdf-syntax-ns#"
   xmlns:svg="http://www.w3.org/2000/svg"
   xmlns="http://www.w3.org/2000/svg"
   xmlns:sodipodi="http://sodipodi.sourceforge.net/DTD/sodipodi-0.dtd"
   xmlns:inkscape="http://www.inkscape.org/namespaces/inkscape"
   version="1.1"
   id="svg1287"
   width="75"
   height="75"
   viewBox="0 0 88.533333 66.133331"
   sodipodi:docname="SC.svg"
   inkscape:version="1.0.1 (3bc2e813f5, 2020-09-07)">
  <metadata
     id="metadata1293">
    <rdf:RDF>
      <cc:Work
         rdf:about="">
        <dc:format>image/svg+xml</dc:format>
        <dc:type
           rdf:resource="http://purl.org/dc/dcmitype/StillImage" />
        <dc:title></dc:title>
      </cc:Work>
    </rdf:RDF>
  </metadata>
  <defs
     id="defs1291" />
  <sodipodi:namedview
     pagecolor="#ffffff"
     bordercolor="#666666"
     borderopacity="1"
     objecttolerance="10"
     gridtolerance="10"
     guidetolerance="10"
     inkscape:pageopacity="0"
     inkscape:pageshadow="2"
     inkscape:window-width="1440"
     inkscape:window-height="877"
     id="namedview1289"
     showgrid="false"
     inkscape:zoom="10.100807"
     inkscape:cx="44.266666"
     inkscape:cy="17.226347"
     inkscape:window-x="-8"
     inkscape:window-y="-8"
     inkscape:window-maximized="1"
     inkscape:current-layer="g1295" />
  <g
     inkscape:groupmode="layer"
     inkscape:label="Image"
     id="g1295">
    <path
       style="stroke-width:1.06667"
       d="m 50.071422,61.066665 -3.609153,-4 -2.450757,-3.971081 -2.450758,-3.971081 -4.752008,-3.207091 -4.75201,-3.207092 -8.31595,-6.961038 -8.315949,-6.961037 -2.283194,-3.088185 -2.283194,-3.088185 -4.8463901,-1.850853 -4.8463902,-1.850853 0.023718,-1.721751 0.023718,-1.721752 1.8429484,-2.267294 1.8429485,-2.267293 16.6814374,-5.2913027 16.681436,-5.29130238 2.736328,1.43370678 2.736327,1.433707 8.315569,0.075689 8.315569,0.075689 1.860533,-0.7292339 1.860532,-0.7292338 11.694911,7.2695003 11.694912,7.2694987 -2.468207,3.242268 -2.468206,3.242267 -2.287237,4.490839 -2.287238,4.490839 v 2.700122 2.700121 l -2.133333,1.33229 -2.133333,1.332289 v 1.282932 1.282933 l -2.335646,1.635949 -2.335645,1.63595 0.643706,0.643706 0.643705,0.643705 -4.037341,3.647496 -4.037341,3.647495 h -2.436039 -2.436039 l 1.834805,2.027438 1.834805,2.027437 -1.229093,0.759621 -1.229093,0.759621 -1.187058,-1.187058 -1.18706,-1.187059 h -0.639145 -0.639147 l 0.435847,3.733333 0.435845,3.733333 h -1.059247 -1.059246 z"
       id="path1299" />
  </g>
</svg>
