<?xml version="1.0" encoding="UTF-8" standalone="no"?>
<svg
   xmlns:dc="http://purl.org/dc/elements/1.1/"
   xmlns:cc="http://creativecommons.org/ns#"
   xmlns:rdf="http://www.w3.org/1999/02/22-rdf-syntax-ns#"
   xmlns:svg="http://www.w3.org/2000/svg"
   xmlns="http://www.w3.org/2000/svg"
   xmlns:sodipodi="http://sodipodi.sourceforge.net/DTD/sodipodi-0.dtd"
   xmlns:inkscape="http://www.inkscape.org/namespaces/inkscape"
   enable_background="new 0 0 1000 589"
   viewBox="50 0 1e3 589"
   width="85"
   height="85"
   id="svg"
   inkscape:version="1.0.1 (3bc2e813f5, 2020-09-07)"
   sodipodi:docname="SE.svg"
   version="1.1">
  <metadata
     id="metadata34">
    <rdf:RDF>
      <cc:Work
         rdf:about="">
        <dc:format>image/svg+xml</dc:format>
        <dc:type
           rdf:resource="http://purl.org/dc/dcmitype/StillImage" />
        <dc:title />
      </cc:Work>
    </rdf:RDF>
  </metadata>
  <sodipodi:namedview
     pagecolor="#ffffff"
     bordercolor="#666666"
     borderopacity="1"
     objecttolerance="10"
     gridtolerance="10"
     guidetolerance="10"
     inkscape:pageopacity="0"
     inkscape:pageshadow="2"
     inkscape:window-width="1440"
     inkscape:window-height="877"
     id="namedview69"
     showgrid="false"
     inkscape:zoom="6.4714413"
     inkscape:cx="68.335378"
     inkscape:cy="42.099136"
     inkscape:window-x="1432"
     inkscape:window-y="-8"
     inkscape:window-maximized="1"
     inkscape:current-layer="svg"
     inkscape:document-rotation="0" />
  <defs
     id="defs4">
    <style
       id="style6">path{fill-rule:evenodd}</style>
  </defs>
  <path
     inkscape:connector-curvature="0"
     id="VA"
     data-name="Virginia"
     data-id="VA"
     d="m 750.74281,533.95979 1.20965,0.12352 1.25072,-0.27984 v 0 l -0.60057,-2.09838 -1.85978,2.25458 v 0 z m -9.0977,-46.5595 -0.20586,2.01603 2.1396,-1.00378 z m 8.69886,-13.37123 -0.074,-3.2669 v 0 z m -2.91325,4.59144 -1.34171,5.15943 -1.41552,1.8925 z m 4.69934,-10.1129 0.65038,-2.37809 -1.05348,2.33693 0.40347,0.0412 z m 3.531,-10.63964 1.49787,-2.69893 -2.75722,7.05189 z m 1.02095,-6.00697 2.5187,-8.70594 -2.22195,1.81019 -0.29663,6.89576 z m 11.33402,-39.17671 1.17699,-3.54651 -0.48569,0.76521 -0.69155,2.78128 z m -0.66586,-9.43854 -5.44756,1.48082 -8.43476,2.80542 -3.19308,3.34063 1.16847,0.52689 -15.81206,59.09017 2.64073,10.04763 8.19778,-24.42263 13.81846,-31.58952 7.02083,-20.87608 0.0412,-0.40337 z m 8.39357,-2.40219 -1.25083,0.27985 -0.56803,1.57165 -3.29235,12.29368 2.06565,-4.27065 3.04542,-9.87436 z m -437.12465,111.40255 -3.23421,3.74389 -21.86574,22.61948 -16.55723,10.53171 -4.2962,10.15408 -26.51544,28.25589 -31.88778,13.04034 -3.15186,2.93744 7.38134,-0.46845 70.39007,-7.07158 27.99475,-2.84513 23.64179,-4.10444 6.57489,-0.55084 0.32101,0.84763 106.00469,-8.73117 105.49498,-15.70923 165.97802,-29.49632 v 0 l -1.00365,-2.13955 -0.27994,-1.25082 2.53428,3.11069 v 0 0 l 3.30808,-0.47705 -0.36215,-0.44455 -1.42258,-13.99739 1.97489,0.60924 5.21609,12.75508 v 0 0 l 1.25086,-0.27984 0.84761,-0.32102 -1.28347,-3.39036 -13.93763,-27.09041 -20.93435,1.52901 -10.05614,6.714 -8.04715,-8.97004 -29.21141,-13.16834 -20.88458,-2.94749 41.0948,0.52969 21.01519,17.62778 7.48071,-9.4215 -15.79754,-24.83581 12.8204,2.12398 -4.96058,-19.24764 -16.21077,-0.84054 -35.1346,-34.95876 -4.83852,-0.49409 51.31271,32.12921 -1.73489,-18.91822 4.24652,-5.67761 -26.34777,-13.28332 -23.62472,-4.04211 -10.62256,-11.67753 -10.29469,5.05997 -0.78787,-28.19208 3.94975,1.21814 1.49937,-22.66213 -0.7241,-0.88877 -0.84762,0.321 -0.76521,-0.4857 -1.85138,-1.81871 -1.08611,-1.33315 -12.3263,-6.96251 -12.31775,-11.03583 -18.05358,-6.73249 -1.16844,-0.52689 -0.0412,0.40337 -4.14859,16.68778 -35.85159,-19.95765 -1.58168,23.46856 -24.55764,37.01155 -13.89945,12.43274 -10.49348,22.96594 -23.73118,-10.97905 -17.69603,53.60139 -11.57106,17.55953 -4.08329,24.02794 -8.45185,10.95197 -27.83859,5.30552 -23.94707,15.07346 -10.64816,0.5423 -10.9861,7.84129 -24.45527,-11.86782 -3.15889,-12.95245 -0.76525,-0.48571 z"
     style="stroke-width:4.1757" />
  <path
     inkscape:connector-curvature="0"
     id="NC"
     data-name="North Carolina"
     data-id="NC"
     d="m 762.89923,150.20468 -5.2711,2.32688 0.42306,0.95838 z m 10.52492,-18.96036 -2.7974,2.09378 -0.37989,3.03054 z m 33.16776,-24.08887 -6.51869,1.44619 -4.36883,3.07371 z m 52.9828,-4.49387 -1.5368,-2.18443 -4.35583,-2.085262 5.89269,4.269552 z m -8.52175,-5.68552 -3.10828,-1.204468 -6.25103,0.755444 z m 9.23409,7.94764 19.65114,-20.984967 -10.92207,7.684253 z m 27.56424,-27.054682 7.03242,-4.822102 -2.41751,-0.936792 z m 39.44898,-15.696613 7.25702,-41.279316 -1.2002,22.5737 z m -8.27544,-103.703509 -0.82459,0.07786 -1.16996,-0.056 v 0 l 0.34548,0.133877 6.54883,39.4791801 9.09593,20.6051709 -13.99564,-60.239778 v 0 z m -7.01945,-0.336733 -3.03058,-0.379895 v 0 l 0.55685,0.613155 5.87114,2.275088 0.11223,-2.339859 v 0 l -1.16993,-0.05596 -1.03608,-0.401485 v 0 l -0.26765,0.690705 -0.82463,0.07782 -0.21161,-0.479365 v 0 z m -349.97221,-45.049095 -3.73426,4.51129 -5.40914,14.984401 -3.66511,-1.817617 -16.0723,14.824623 -10.41697,-2.844934 -25.74244,11.077386 -7.0842,-6.320145 -16.86235,11.737954 -38.22291,14.582812 -15.15278,-1.899558 -19.72448,7.848284 -4.17027,8.711745 -15.45492,1.9555471 -5.54297,15.329824 -1.33827,3.453591 4.89116,0.703684 52.23163,8.7205299 14.19437,2.322611 4.8912,0.703684 1.03608,0.401481 128.71196,8.168139 15.45923,17.509903 38.49051,16.504068 30.80625,5.581985 58.14578,78.539764 1.78291,-0.50079 41.19304,-0.72083 7.70606,-18.86099 21.7449,-18.18755 18.89992,-7.77061 36.02557,-7.887092 6.47556,-5.435093 6.25964,6.397833 12.28632,-21.455536 -7.22241,6.337361 -16.37875,-0.78575 -13.94837,-5.007664 21.74057,-5.875384 -3.03916,-7.533232 10.68894,-10.157917 -30.45653,-17.760301 -0.7123,-2.26211 29.63635,5.525857 7.23962,7.969255 11.79841,3.380239 12.00131,-3.293851 12.12657,-10.792499 6.88561,0.682073 6.3245,-19.396338 -4.99907,-10.6760079 -10.75371,4.174552 -5.36613,18.9732529 2.82772,-24.7235689 -4.0882,-2.77586003 -39.67777,0.910802 20.95058,-8.96208897 2.96579,-5.6034761 17.35871,2.35716 9.03988,-10.002547 8.29731,10.365215 -4.83934,-21.339076 -5.26674,-9.985292 v 0 l -153.40104,-14.160223 -96.76596,-11.677811 -95.52705,-17.950454 -0.0778,-0.82461 z"
     style="stroke-width:3.81591" />
  <path
     inkscape:connector-curvature="0"
     id="SC"
     data-name="South Carolina"
     data-id="SC"
     d="m 278.15267,95.624548 v 0 l -11.42345,22.438872 2.03993,8.1596 37.12613,15.50324 19.17505,24.47877 78.74007,66.09268 18.35904,8.56757 33.45435,47.73361 24.47876,22.84688 v 0 l 4.07979,-18.76706 -6.52767,-17.95112 17.54314,13.05536 9.79149,-7.75162 -16.72715,-13.8713 20.39897,-1.22397 31.82241,-26.92659 -3.6718,-6.93572 19.58303,-15.09521 -2.03993,-7.34363 14.27932,-8.97559 0.81595,-20.80694 22.43888,-41.6139 15.09522,-19.17506 1.63196,-0.81596 -90.97948,-57.525122 -33.86231,6.52765 -46.10171,-1.63189 L 414.8258,52.786697 279.3766,95.624548 Z"
     style="stroke-width:4.20323" />
  <path
     inkscape:connector-curvature="0"
     id="GA"
     data-name="Georgia"
     data-id="GA"
     d="m 401.08526,397.42527 -0.34471,-10.33734 -2.41204,8.959 2.75661,1.37834 z m 3.79038,-15.85057 -1.37831,-7.92526 -1.03374,4.8241 z m -161.26206,-217.08351 -4.47948,1.03374 -13.09394,2.75659 -48.2408,9.99274 -4.47949,1.03374 -4.82407,0.68916 -26.87702,5.16865 -7.23611,1.37831 -29.28906,5.51325 -6.202375,0.68912 0.344702,0.68916 46.173333,140.58741 25.4987,45.48422 -6.20239,6.89152 -3.79034,26.87699 7.5807,13.7831 0.68915,25.1541 9.30359,17.57345 v 0.34468 l -0.34471,0.34473 11.7156,18.26255 162.64033,-20.33005 4.8241,12.40479 5.16863,-26.53246 9.3036,-7.23608 23.77582,1.37831 v 0 l -2.06746,-37.21434 4.47952,-7.92528 -2.41206,-14.81678 4.82408,-14.12767 7.2361,-7.92527 -5.16864,-4.82408 12.0602,-14.8168 h -0.34472 l -20.67458,-19.29634 -28.25533,-40.3155 -15.50596,-7.23613 -66.50336,-55.82146 -16.19513,-20.67462 -31.35648,-13.09393 -1.72292,-6.89154 9.64816,-18.95173 v 0 z"
     style="stroke-width:3.55003" />
  <path
     inkscape:connector-curvature="0"
     id="FL"
     data-name="Florida"
     data-id="FL"
     d="m 856.9127,635.47329 -0.57473,-0.16455 0.20516,0.36977 0.36978,-0.20516 z m -2.50394,-1.02796 -0.0823,0.28748 0.28748,0.0823 z m 0.65703,-0.12291 0.0823,-0.28748 z m -40.31535,-6.87917 v 0 l -0.0823,0.2875 z m -0.65702,0.12294 0.0823,-0.28748 z m 0.3698,-0.20518 z m -2.95594,-0.53527 -0.2875,-0.0823 -0.0823,0.28745 z m 86.79415,5.26264 -0.28751,-0.0823 0.12298,0.657 z m 8.33474,0.20992 0.16455,-0.57475 -0.82154,0.69754 0.65702,-0.12292 z m -2.70912,-1.39752 -0.82032,-1.47854 -0.36984,0.20515 1.19003,1.27347 z m -1.52022,2.05211 -2.21426,-5.29777 0.94195,4.31164 z m 32.15362,-9.13815 -0.32911,1.14945 0.73938,-0.41014 z m 4.84585,-1.72172 1.27352,-1.18999 -1.47854,0.82036 0.2052,0.36978 z m 1.68489,-2.6268 -0.28741,-0.0823 -0.0823,0.28747 z m -4.92569,-2.34303 -0.2051,-0.36978 z m 3.8203,-3.57 -0.20511,-0.36976 -0.16455,0.57474 0.36971,-0.20519 z m -7.67637,-2.5089 -0.20521,-0.36977 z m 11.66258,-3.81195 -0.65692,0.12294 0.77981,0.53432 -0.12296,-0.65703 z m 1.14942,0.3291 -0.41005,-0.73927 0.0407,0.94443 0.36972,-0.2052 z m -1.84678,-1.15062 -0.20532,-0.3698 -0.16453,0.57468 0.36991,-0.20511 z m 11.20827,1.03268 0.0823,-0.28745 -0.90391,0.98485 0.82164,-0.69753 z m -12.39839,-2.30616 -0.57461,-0.16452 0.49231,0.45197 z m 7.02196,-1.72055 -0.86212,-0.24683 -0.36971,0.20517 1.23173,0.0416 z m 2.71023,-0.7786 v 0 l -0.28741,-0.0823 z m -24.46745,-5.76175 0.16454,-0.57471 -0.45206,0.49238 z m 2.83297,-0.12162 -0.86211,-0.24684 0.36846,1.971 z m -6.97896,-1.68716 0.49366,-1.72417 -1.51904,-0.12389 1.02535,1.84817 z m -3.20022,-4.02549 1.02546,1.8482 0.16455,-0.57473 z m 41.74862,13.8188 -5.83073,0.81793 1.64172,0.78108 4.18898,-1.59888 z m -39.49024,-14.10492 -1.72425,-0.49368 -0.16455,0.5747 z m 49.51706,-1.36844 0.69879,-1.35453 1.35711,-3.65339 -2.05581,5.00795 z m 4.89487,-16.00999 -0.32666,-3.20271 -0.90393,0.98488 z m -68.43755,-11.82176 -0.82155,0.69754 1.35453,0.69884 -0.53302,-1.39628 z m -4.71944,-4.14953 -2.83305,0.12163 1.92925,0.86339 0.90377,-0.98492 z m -5.91175,-1.07077 0.24683,-0.86209 -0.36978,0.20515 0.12292,0.65706 z m -5.95229,-2.01529 -2.0533,0.6558 1.96981,1.80763 z m 7.9638,2.59122 -0.0406,-0.9444 -1.35452,-0.69885 1.39507,1.64308 z m -29.58131,-38.93967 -1.971,0.36843 3.11922,2.13679 z m -4.26383,-11.17018 -1.31162,-4.10655 0.12162,2.83308 z m 7.26266,8.2978 -1.39022,-10.34744 -2.62678,-1.68485 z m -8.20341,-14.78555 -0.20388,-2.54569 -0.16335,-1.60138 z m -14.71838,-38.72605 -4.10292,-5.21668 1.43561,2.58748 z m 134.82542,17.77107 -10.93979,-41.06432 -1.14942,-0.32911 z m -129.07396,-97.58507 -0.77977,-0.53429 0.69753,0.82152 0.0823,-0.28747 z m -1.14824,-2.50519 -0.36977,0.20517 0.20516,0.36978 0.16454,-0.57471 z m -1.18877,-3.44953 0.0823,-0.28749 -0.36979,0.20517 z m 1.47854,-0.82038 0.69754,0.82158 0.16456,-0.57474 z m 2.05331,-0.65577 -1.23174,-0.0416 0.28744,0.0823 0.94441,-0.0407 z m -1.92924,-0.86341 -0.61525,-1.10893 0.20517,0.36979 0.41016,0.73929 z m -1.10649,-3.73694 -0.57472,-0.16455 0.77976,0.53429 -0.20513,-0.36977 z m 2.99885,-2.87239 -1.14947,-0.32912 -0.36977,0.20517 1.51913,0.12392 z m 0.98489,0.90382 -1.02543,-1.84817 0.4924,0.45201 0.53299,1.39627 z m -7.38188,-15.48305 -0.49243,-0.45203 -0.0823,0.28748 z m -12.35656,-3.53788 -0.53295,-1.39624 -0.12392,1.51908 0.65705,-0.12291 z m -101.88459,-39.4315 10.5132,-4.14104 -11.293,3.60689 0.77977,0.53427 z m 21.19099,-8.85675 1.10889,-0.61528 -3.8597,0.44952 z m -103.68503,-50.5182 -34.20208,1.08955 18.64041,0.0514 z m 91.86203,-26.55466 -8.74488,-0.94923 -129.89963,-15.42797 4.45682,33.30069 0.77979,0.53431 -6.5343,10.87678 10.34743,-1.39021 12.60823,-6.02858 17.40626,4.36189 21.88487,-1.50699 12.93006,5.87852 -4.55966,3.9801 22.32712,15.40924 18.30283,16.43348 1.59408,12.89314 16.7922,1.07685 46.07836,-19.76443 13.62882,4.52399 44.14603,58.65567 12.15265,0.99213 7.46176,19.54788 -5.0237,26.23342 -8.34318,15.02266 -0.57953,8.5398 4.29831,22.99501 -0.0727,-17.12131 13.01361,3.41493 -2.14161,11.8236 -11.9978,15.84181 14.47153,39.58819 8.82591,2.83803 -4.59172,-12.19687 8.86645,3.78228 6.44721,-1.88508 -7.56458,17.73296 9.55916,13.30817 1.91594,24.80026 9.23251,10.10544 13.29845,7.84948 12.58768,30.96493 8.7819,8.42182 -14.04025,-3.08717 4.26504,8.99413 24.8408,-0.9716 13.01724,-3.11316 20.71174,-33.24569 10.9536,-57.80388 0.49611,-6.07636 -14.42265,-53.8764 -14.01951,-40.0806 -5.40248,-31.0841 8.49205,12.69172 2.79251,-1.06596 -1.94369,25.24976 7.46049,21.72393 -5.44539,-27.67626 3.86577,-11.32995 -24.15233,-55.72943 -4.87666,-16.63129 -4.95294,-27.22436 -2.28679,-22.41906 -4.26507,-8.99414 1.19605,-9.60695 -0.20516,-0.36977 -19.49886,-6.82651 -9.48658,3.81312 -10.64567,20.89272 -1.06113,-11.49688 -140.48906,-21.88002 -5.40967,-18.02756 0.36979,-0.20514 z"
     style="stroke-width:3.07952" />
</svg>
