<?xml version="1.0" encoding="UTF-8" standalone="no"?>
<svg
   xmlns:dc="http://purl.org/dc/elements/1.1/"
   xmlns:cc="http://creativecommons.org/ns#"
   xmlns:rdf="http://www.w3.org/1999/02/22-rdf-syntax-ns#"
   xmlns:svg="http://www.w3.org/2000/svg"
   xmlns="http://www.w3.org/2000/svg"
   xmlns:sodipodi="http://sodipodi.sourceforge.net/DTD/sodipodi-0.dtd"
   xmlns:inkscape="http://www.inkscape.org/namespaces/inkscape"
   enable_background="new 0 0 1000 589"
   viewBox="50 0 1e3 589"
   width="75"
   height="75"
   id="svg"
   inkscape:version="1.0.1 (3bc2e813f5, 2020-09-07)"
   sodipodi:docname="SW.svg"
   version="1.1">
  <metadata
     id="metadata82">
    <rdf:RDF>
      <cc:Work
         rdf:about="">
        <dc:format>image/svg+xml</dc:format>
        <dc:type
           rdf:resource="http://purl.org/dc/dcmitype/StillImage" />
      </cc:Work>
    </rdf:RDF>
  </metadata>
  <sodipodi:namedview
     pagecolor="#ffffff"
     bordercolor="#666666"
     borderopacity="1"
     objecttolerance="10"
     gridtolerance="10"
     guidetolerance="10"
     inkscape:pageopacity="0"
     inkscape:pageshadow="2"
     inkscape:window-width="1440"
     inkscape:window-height="877"
     id="namedview69"
     showgrid="false"
     inkscape:zoom="9.152"
     inkscape:cx="50.167271"
     inkscape:cy="20.591814"
     inkscape:window-x="1432"
     inkscape:window-y="-8"
     inkscape:window-maximized="1"
     inkscape:current-layer="svg"
     inkscape:document-rotation="0" />
  <defs
     id="defs4">
    <style
       id="style6">path{fill-rule:evenodd}</style>
  </defs>
  <path
     inkscape:connector-curvature="0"
     id="NM"
     data-name="New Mexico"
     data-id="NM"
     d="m 686.56067,191.0073 2.15461,-5.94731 2.15459,-5.94733 2.15457,-5.94733 -7.33684,-2.59834 -50.44156,-18.66068 -50.37729,-19.66104 -113.4666,-47.464883 -6.95737,-2.987481 -3.58886,8.04136 -74.61295,173.702864 -7.02008,16.38827 -28.3022,66.24787 0.85237,0.52754 30.99778,13.21692 8.18776,-15.24977 7.26889,-2.78283 62.99591,26.49807 0.46316,0.14794 -2.16575,-13.19684 28.74613,11.47704 72.0824,27.6134 45.18897,16.72805 77.24699,-214.71571 1.54713,0.74939 2.22854,-6.17894 z"
     style="stroke-width:2.50467" />
  <path
     inkscape:connector-curvature="0"
     id="CO"
     data-name="Colorado"
     data-id="CO"
     d="m 498.30217,489.6735 10.89058,-55.45531 -13.53013,-2.95682 -68.83611,-14.69923 -6.76505,-1.47852 -5.62925,-1.27944 -83.38783,-20.1765 -55.42599,-14.39749 -68.94144,-19.10783 -6.66551,-2.04631 -2.14586,7.23345 -41.26305,145.25091 -14.45305,50.73349 -6.20337,22.034 -1.8619,7.28319 8.65318,2.39469 140.92147,37.57746 62.34033,15.0241 62.25551,13.83846 9.03663,1.87669 5.62923,1.27943 11.87617,2.37434 5.62923,1.27946 17.78935,3.70336 4.54323,0.79631 0.99538,-5.67905 29.45135,-149.66263 3.22042,-16.7033 0.94561,-5.39508 0.93107,-3.64157 z"
     style="stroke-width:2.97001" />
  <path
     inkscape:connector-curvature="0"
     id="AZ"
     data-name="Arizona"
     data-id="AZ"
     d="m 962.81229,-95.82273 -91.47058,-8.65151 -49.1558,-5.57754 -70.09898,-9.01551 -7.06317,-0.87292 0.0161,0.54087 -10.34078,52.81588 -6.2278,-0.0859 -9.71385,-8.10208 -11.60159,10.35906 1.00635,43.00568 -4.05375,9.32292 0.0241,0.81129 0.008,0.27052 -0.34011,6.7766804 10.21979,25.1389196 8.72049,11.10891 -14.87884,9.37375 -5.62009,11.26412 -9.02862,24.08652 -4.8355,1.22627 0.3157,19.74906 8.56791,5.97087 -3.97346,12.02717 -9.71924,0.82997 v 0 l -5.36575,10.71523 19.83201,11.59092 37.38818,19.46016 115.36945,56.93195 96.62478,9.0398 1.08169,-0.0321 5.20286,-80.00033 1.30671,-19.79727 14.06619,-209.91149 0.79264,-9.76743 -7.05524,-0.60248 z"
     style="stroke-width:2.78732" />
  <path
     inkscape:connector-curvature="0"
     id="NV"
     data-name="Nevada"
     data-id="NV"
     d="m 357.70451,176.96415 51.7256,-137.40661 26.1047,-68.76845 2.7462,-6.75775 -6.1437,-2.39278 -23.8717,-9.65669 -59.6328,-24.93246 -5.8795,-2.56766 -5.8796,-2.56772 -29.5727,-13.10252 -52.86753,-24.47105 -5.8349,-2.78722 -3.6729,7.9411 -55.62542,120.60895 18.31582,42.59339 19.23867,42.552394 33.58023,77.707006 24.29583,54.78417 12.7861,27.06461 4.1455,8.84541 0.1339,-0.65871 5.0312,-6.75024 7.3198,-34.86429 11.3126,-6.15859 6.3,8.36902 5.0051,1.24673 18.3235,-40.62844 0.089,-0.43911 2.5267,-6.80245 z"
     style="stroke-width:2.30827"
     inkscape:transform-center-x="-26.428077"
     inkscape:transform-center-y="87.707563" />
  <path
     inkscape:connector-curvature="0"
     id="TX"
     data-name="Texas"
     data-id="TX"
     d="m 836.50381,703.70189 -3.84026,-33.48573 -0.88452,6.05557 z m 6.31376,-56.92354 -7.72059,10.5142 -1.25869,3.63615 z m 6.03155,-7.66849 6.79201,-6.64793 -4.46061,1.89513 z m 22.77944,-15.22695 -14.37251,4.99492 3.84428,-0.16608 z m 2.14522,-2.23333 4.18249,-2.48145 -1.47682,0.1481 z m -167.57832,-329.71442 -1.22073,-0.36029 -30.45811,166.17786 -35.03063,-6.75402 -55.991,-11.45281 -22.38517,-4.9069 3.17787,9.37752 0.15215,0.20421 16.42566,22.04498 9.14337,14.61463 13.01764,12.99768 7.57246,20.38802 1.03058,20.34199 7.56444,6.74397 5.52325,8.26489 8.94526,4.7628 12.43932,10.73033 5.89547,3.22594 9.79778,-7.3003 3.99838,-8.69312 5.72738,-8.07676 14.69868,-3.49203 4.95286,3.45203 15.31305,3.51009 12.79557,10.78236 9.35749,3.18589 -3.4,4.59671 5.00093,4.36857 4.25452,6.98813 0.10608,6.74596 2.73352,4.94691 5.07899,20.02381 6.87406,7.73457 4.59865,10.8584 6.51382,8.95528 3.22796,1.56294 -0.11613,20.72019 7.69459,5.85347 -0.58035,6.46381 2.21523,-0.22214 12.00311,19.94377 7.06814,2.66958 8.45493,6.87406 14.24844,2.08125 9.49761,7.20823 12.67948,-0.87649 -4.76679,-5.97151 -2.80165,-15.68925 -0.06,-13.28783 -2.22535,-4.69079 2.52157,-8.54501 -3.68825,-0.90255 -3.79023,-8.92126 4.81486,6.88807 6.92812,-1.35278 4.94091,-8.91926 -5.71933,-10.65828 10.50411,2.80765 6.10567,-6.93007 -0.32219,-2.77564 5.31108,-5.22707 -1.82303,5.00896 5.55926,-3.18988 -0.94454,-7.23227 5.91741,4.32055 8.86924,-3.434 -6.79195,-9.54164 4.70078,2.6876 9.18342,1.88712 12.50131,-0.90253 14.86284,-7.10616 9.1814,-5.57128 1.97516,-4.80483 5.74133,-4.43661 -1.42276,-8.93927 1.31476,-5.26509 9.47756,-2.61754 -2.09123,9.33551 5.34314,0.78047 -6.60593,4.12841 25.50906,-9.00727 3.94434,0.39416 4.15843,-11.03449 0.71247,0.10406 3.63415,-6.19965 4.21249,-20.12185 2.79969,-7.95868 -2.49749,-15.28103 -4.24251,-10.80637 0.52428,-4.83487 -4.68076,-9.05132 1.45891,-34.89456 0.44616,-4.30055 0.29443,-4.50464 1.2207,-15.82932 -10.73826,-1.20471 -2.2553,-3.23991 -0.50837,-0.25623 -0.17816,-0.026 -6.76398,-2.26134 -7.26024,-6.33573 -8.35889,-5.04096 -17.44434,2.36335 -4.29647,-1.71901 -5.83347,1.33077 -7.57449,4.53265 -16.91798,-11.20259 -6.84398,7.0041 -7.92864,-4.2505 -8.07276,-7.00013 -5.40722,3.39399 -4.65672,-0.49823 0.49424,-3.38398 -11.60879,-7.69855 -5.3252,1.58692 -2.07714,-3.2139 -13.50602,-3.42803 -9.10333,-11.15257 -2.07121,2.97176 -7.60644,-1.47489 -6.13565,-7.80861 -1.645,-11.15459 8.36303,-60.98991 -45.5168,-7.19428 -42.94533,-7.36439 -1.0686,-0.15613 z"
     style="stroke-width:1.85441" />
</svg>
