<?xml version="1.0" encoding="UTF-8" standalone="no"?>
<svg
   xmlns:dc="http://purl.org/dc/elements/1.1/"
   xmlns:cc="http://creativecommons.org/ns#"
   xmlns:rdf="http://www.w3.org/1999/02/22-rdf-syntax-ns#"
   xmlns:svg="http://www.w3.org/2000/svg"
   xmlns="http://www.w3.org/2000/svg"
   xmlns:sodipodi="http://sodipodi.sourceforge.net/DTD/sodipodi-0.dtd"
   xmlns:inkscape="http://www.inkscape.org/namespaces/inkscape"
   version="1.1"
   id="svg1096"
   width="75"
   height="75"
   viewBox="0 0 242.13333 227.2"
   sodipodi:docname="TX.svg"
   inkscape:version="1.0.1 (3bc2e813f5, 2020-09-07)">
  <metadata
     id="metadata1102">
    <rdf:RDF>
      <cc:Work
         rdf:about="">
        <dc:format>image/svg+xml</dc:format>
        <dc:type
           rdf:resource="http://purl.org/dc/dcmitype/StillImage" />
        <dc:title></dc:title>
      </cc:Work>
    </rdf:RDF>
  </metadata>
  <defs
     id="defs1100" />
  <sodipodi:namedview
     pagecolor="#ffffff"
     bordercolor="#666666"
     borderopacity="1"
     objecttolerance="10"
     gridtolerance="10"
     guidetolerance="10"
     inkscape:pageopacity="0"
     inkscape:pageshadow="2"
     inkscape:window-width="1440"
     inkscape:window-height="877"
     id="namedview1098"
     showgrid="false"
     inkscape:zoom="2.9401409"
     inkscape:cx="121.06667"
     inkscape:cy="45.576047"
     inkscape:window-x="-8"
     inkscape:window-y="-8"
     inkscape:window-maximized="1"
     inkscape:current-layer="g1104" />
  <g
     inkscape:groupmode="layer"
     inkscape:label="Image"
     id="g1104">
    <path
       style="stroke-width:1.06667"
       d="m 168.19321,225.94012 -2.66667,-1.52441 -4.8,-0.0717 -4.8,-0.0717 -2.07053,-1.56606 -2.07054,-1.56608 h -1.6435 -1.6435 l -5.6193,-6.0863 -5.61929,-6.08628 v -1.25771 -1.25769 l -2.51987,-1.65109 -2.51988,-1.65109 -0.57185,-5.07339 -0.57184,-5.07339 -1.52446,-1.13153 -1.52446,-1.13153 -4.05582,-5.33003 -4.05582,-5.33004 -1.82836,-1.28064 -1.82838,-1.28064 -1.92864,-5.12265 -1.92865,-5.12267 -1.43765,-2.10401 -1.43765,-2.104 v -1.80118 -1.80117 l -3.19467,-2.68814 -3.19467,-2.68814 0.64212,-1.67335 0.64213,-1.67334 h -2.53318 -2.533177 l -3.71428,-2.51619 -3.71428,-2.51618 -7.03412,-1.21949 -7.03413,-1.21948 -3.50152,1.22064 -3.50153,1.22064 -2.98642,6.58641 -2.98643,6.58642 -1.66097,1.37848 -1.66097,1.37848 -4.55028,-2.45384 -4.55029,-2.45392 -5.06667,-2.50416 -5.06667,-2.50416 v -0.96489 -0.96491 l -3.16822,-1.87151 -3.16822,-1.87152 -1.20448,-5.92212 -1.20448,-5.92212 -3.22112,-5.68542 -3.22112,-5.68542 -3.87285,-2.84792 -3.87284,-2.84787 -9.8666663,-10.40068 -9.86666597,-10.400687 v -1.74662 -1.74662 l 6.66666597,0.63798 6.6666663,0.63797 25.40613,1.32116 25.40613,1.32115 0.81197,-1.31379 0.81197,-1.31379 1.28649,-41.831369 1.28648,-41.831371 0.59551,-5.0666663 0.59551,-5.06666701 h 26.03324 26.033237 l 0.0255,16.26666731 0.0254,16.266666 0.95214,4.103099 0.95215,4.103098 2.46041,2.618994 2.46042,2.618994 2.89724,-0.303901 2.89722,-0.303902 3.22157,2.381809 3.22157,2.381809 h 3.18024 3.18025 l 0.68605,1.110056 0.68604,1.110056 1.99027,-0.631683 1.99025,-0.631682 3.15694,1.632517 3.15694,1.632518 0.45516,1.355776 0.45516,1.355776 2.65438,-1.413593 2.65439,-1.413591 4.53851,2.365606 4.53852,2.365606 2.19851,-2.19851 2.19852,-2.198512 4.68945,2.278314 4.68946,2.278314 2.36034,-1.493644 2.36034,-1.493644 4.8,-0.876151 4.8,-0.876152 3.89629,-0.655225 3.8963,-0.655226 4.1037,2.190866 4.10371,2.190866 3.73333,1.62644 3.73334,1.626439 2.12784,-0.224102 2.12783,-0.224101 1.61339,17.230069 1.61339,17.230067 1.85877,2.05392 1.85878,2.05392 v 1.445907 1.4459 l 2.4,4.87011 2.4,4.87011 -0.20959,10.13333 -0.20959,10.13333 -1.83948,5.33334 -1.83948,5.33333 -6.50059,3.32154 -6.50061,3.32154 -1.31699,-1.40985 -1.31701,-1.40986 v -1.64501 -1.64503 h -1.46939 -1.46939 l -1.30939,1.57772 -1.30938,1.57772 1.08248,3.10524 1.0825,3.10523 -1.09392,1.09392 -1.09391,1.09391 -1.22253,2.4898 -1.22252,2.4898 -6.75069,4.53333 -6.75067,4.53333 h -6.46858 -6.46859 l 1.85383,2.04845 1.85381,2.04844 -2.14455,1.14773 -2.14457,1.14774 -1.59239,-0.61107 -1.5924,-0.61106 -0.35154,2.48156 -0.35153,2.48155 h -1.58539 -1.58539 l -0.39606,2.13333 -0.39606,2.13333 -1.08249,1.33334 -1.08249,1.33333 h -3.14681 -3.14681 l 2.1824,2.77446 2.1824,2.77448 -1.59904,3.09219 -1.59904,3.0922 -2.37261,0.0339 -2.37261,0.0339 1.97348,1.49511 1.97349,1.4951 -0.76597,1.23935 -0.76596,1.23935 1.03594,2.29828 1.03593,2.2983 1.78266,7.41153 1.78265,7.41153 1.61994,1.79001 1.61994,1.79001 -1.73329,0.66512 -1.73328,0.66514 -1.77944,-0.0378 -1.77942,-0.0378 z"
       id="path1108" />
  </g>
</svg>
