<?xml version="1.0" encoding="UTF-8" standalone="no"?>
<svg
   xmlns:dc="http://purl.org/dc/elements/1.1/"
   xmlns:cc="http://creativecommons.org/ns#"
   xmlns:rdf="http://www.w3.org/1999/02/22-rdf-syntax-ns#"
   xmlns:svg="http://www.w3.org/2000/svg"
   xmlns="http://www.w3.org/2000/svg"
   xmlns:sodipodi="http://sodipodi.sourceforge.net/DTD/sodipodi-0.dtd"
   xmlns:inkscape="http://www.inkscape.org/namespaces/inkscape"
   version="1.1"
   id="svg60"
   width="75"
   height="75"
   viewBox="0 0 135.46667 86.400002"
   sodipodi:docname="VA.svg"
   inkscape:version="1.0.1 (3bc2e813f5, 2020-09-07)">
  <metadata
     id="metadata66">
    <rdf:RDF>
      <cc:Work
         rdf:about="">
        <dc:format>image/svg+xml</dc:format>
        <dc:type
           rdf:resource="http://purl.org/dc/dcmitype/StillImage" />
        <dc:title></dc:title>
      </cc:Work>
    </rdf:RDF>
  </metadata>
  <defs
     id="defs64" />
  <sodipodi:namedview
     pagecolor="#ffffff"
     bordercolor="#666666"
     borderopacity="1"
     objecttolerance="10"
     gridtolerance="10"
     guidetolerance="10"
     inkscape:pageopacity="0"
     inkscape:pageshadow="2"
     inkscape:window-width="1440"
     inkscape:window-height="877"
     id="namedview62"
     showgrid="false"
     inkscape:zoom="7.7314813"
     inkscape:cx="67.733337"
     inkscape:cy="38.026348"
     inkscape:window-x="1432"
     inkscape:window-y="-8"
     inkscape:window-maximized="1"
     inkscape:current-layer="g68" />
  <g
     inkscape:groupmode="layer"
     inkscape:label="Image"
     id="g68">
    <path
       style="stroke-width:1.06667"
       d="m 5.9405035,80.883744 4.3405035,-2.183917 3.551953,-5.205124 3.551953,-5.205124 4.672258,-5.078123 4.672257,-5.078121 0.790328,1.266601 0.790329,1.266602 3.085321,1.173036 3.085319,1.173037 1.106304,-1.106305 1.106305,-1.106305 h 1.75468 1.75468 l 1.894301,-2.093178 1.8943,-2.093179 3.87102,-1.245833 3.87102,-1.245832 1.333333,-1.058264 1.333333,-1.058262 v -3.122364 -3.122363 l 1.49654,-2.893988 1.49654,-2.893989 1.32649,-6.742418 1.326489,-6.742417 3.576971,0.671044 3.576971,0.671044 v -1.413931 -1.413932 l 4.792813,-7.434402 4.792811,-7.434403 0.0072,-3.4666672 0.0072,-3.4666667 h 1.100927 1.100926 l 3.801929,1.5885475 3.80193,1.5885475 0.554884,-2.1218808 0.554885,-2.1218809 h 0.569018 0.56902 l 5.706574,2.8895029 5.706571,2.889503 v 6.2912857 6.291285 l 1.52201,-0.584051 1.52201,-0.584051 1.27527,1.536596 1.27526,1.536597 h 2.91022 2.91022 l 3.24772,1.132161 3.24771,1.13216 0.46005,3.134506 0.46005,3.134506 -0.61526,-0.0378 -0.61526,-0.0378 -2.66667,-1.524404 -2.66666,-1.524404 -1.06667,-0.0325 -1.06667,-0.0325 3.2,2.623008 3.2,2.623008 1.90014,0.03836 1.90015,0.03836 0.69176,1.802699 0.69176,1.802698 -1.26451,0.421504 -1.26451,0.421504 2.16986,2.758539 2.16987,2.758538 -1.04248,1.042489 -1.0425,1.04249 -2.78034,-1.821753 -2.78035,-1.821752 -3.40776,0.329856 -3.40775,0.329864 6.17394,2.292017 6.17394,2.292018 3.07388,-1.160261 3.07388,-1.16026 1.73944,1.443607 1.73944,1.443608 -0.32059,2.717761 -0.3206,2.717762 -17.6,5.073558 -17.599997,5.073558 -19.2,4.824315 L 57.066668,72.515333 45.333334,74.587041 33.600001,76.658748 18.36074,79.929375 3.1214776,83.200002 2.3607388,83.133831 1.6,83.067661 Z M 127.09335,35.200001 l 0.0456,-3.733334 1.23049,-5.787309 1.23047,-5.78731 1.33333,-0.434913 1.33334,-0.434913 -0.0415,1.422223 -0.0414,1.422222 -2.56807,8.533334 -2.56807,8.533333 0.0458,-3.733333 z"
       id="path72" />
  </g>
</svg>
