<?xml version="1.0" encoding="UTF-8" standalone="no"?>
<svg
   xmlns:dc="http://purl.org/dc/elements/1.1/"
   xmlns:cc="http://creativecommons.org/ns#"
   xmlns:rdf="http://www.w3.org/1999/02/22-rdf-syntax-ns#"
   xmlns:svg="http://www.w3.org/2000/svg"
   xmlns="http://www.w3.org/2000/svg"
   xmlns:sodipodi="http://sodipodi.sourceforge.net/DTD/sodipodi-0.dtd"
   xmlns:inkscape="http://www.inkscape.org/namespaces/inkscape"
   version="1.1"
   id="svg1110"
   width="75"
   height="75"
   viewBox="0 0 89.599998 94.933334"
   sodipodi:docname="WI.svg"
   inkscape:version="1.0.1 (3bc2e813f5, 2020-09-07)">
  <metadata
     id="metadata1116">
    <rdf:RDF>
      <cc:Work
         rdf:about="">
        <dc:format>image/svg+xml</dc:format>
        <dc:type
           rdf:resource="http://purl.org/dc/dcmitype/StillImage" />
        <dc:title></dc:title>
      </cc:Work>
    </rdf:RDF>
  </metadata>
  <defs
     id="defs1114" />
  <sodipodi:namedview
     pagecolor="#ffffff"
     bordercolor="#666666"
     borderopacity="1"
     objecttolerance="10"
     gridtolerance="10"
     guidetolerance="10"
     inkscape:pageopacity="0"
     inkscape:pageshadow="2"
     inkscape:window-width="1440"
     inkscape:window-height="877"
     id="namedview1112"
     showgrid="false"
     inkscape:zoom="7.0365168"
     inkscape:cx="44.799999"
     inkscape:cy="24.728144"
     inkscape:window-x="-8"
     inkscape:window-y="-8"
     inkscape:window-maximized="1"
     inkscape:current-layer="g1118" />
  <g
     inkscape:groupmode="layer"
     inkscape:label="Image"
     id="g1118">
    <path
       style="stroke-width:1.06667"
       d="m 37.882049,93.279439 -3.39859,-2.072268 -1.166844,-2.180268 -1.166844,-2.180266 -0.137276,-4.010144 -0.137277,-4.010145 -1.310899,-2.133334 -1.3109,-2.133333 L 28.55141,70.556386 27.849401,66.553092 23.688888,64.430557 19.528376,62.308021 18.490947,60.45424 17.453519,58.600457 10.16708,54.7812 2.8806386,50.961941 l 0.341082,-7.234912 0.341082,-7.234912 -1.800838,-1.989904 -1.80083799,-1.989904 0.70743,-2.818626 0.70743099,-2.818628 3.220893,-2.710202 3.220892,-2.710203 -0.703175,-6.56616 -0.703176,-6.5661591 1.434608,-1.133966 1.434609,-1.133966 5.0700794,-0.660755 5.070079,-0.660754 4.399026,-2.2442153 4.399026,-2.24421581 -0.700233,3.73255611 -0.700231,3.732557 1.96426,-0.513666 1.96426,-0.513666 15.692708,4.8720541 15.692708,4.872053 h 3.750684 3.750683 l 3.156809,2.333929 3.156807,2.333929 v 3.900751 3.900751 l 2.133334,1.93064 2.133329,1.93064 v 1.373709 1.37371 l -2.228165,3.776464 -2.228168,3.776465 0.428168,1.284506 0.428169,1.284506 2.382846,-2.6 2.38285,-2.6 1.4061,-1.6 1.40611,-1.6 1.317356,-4.071469 1.31735,-4.071468 0.55035,0.550352 0.55036,0.550353 -1.29629,3.521115 -1.29629,3.521117 -0.39504,8.850085 -0.395046,8.850085 -0.56592,0.915691 -0.56593,0.915691 -0.58285,10.19028 -0.58286,10.190279 1.65012,3.190974 1.650116,3.190974 v 3.134261 3.13426 l -3.466666,0.631024 -3.466666,0.631025 -17.538873,2.154352 -17.538875,2.154354 -1.127792,-0.004 -1.127793,-0.004 z"
       id="path1122" />
  </g>
</svg>
