<?xml version="1.0" encoding="UTF-8" standalone="no"?>
<svg
   xmlns:dc="http://purl.org/dc/elements/1.1/"
   xmlns:cc="http://creativecommons.org/ns#"
   xmlns:rdf="http://www.w3.org/1999/02/22-rdf-syntax-ns#"
   xmlns:svg="http://www.w3.org/2000/svg"
   xmlns="http://www.w3.org/2000/svg"
   xmlns:sodipodi="http://sodipodi.sourceforge.net/DTD/sodipodi-0.dtd"
   xmlns:inkscape="http://www.inkscape.org/namespaces/inkscape"
   enable_background="new 0 0 1000 589"
   viewBox="50 0 1e3 589"
   width="75"
   height="75"
   id="svg"
   inkscape:version="1.0.1 (3bc2e813f5, 2020-09-07)"
   sodipodi:docname="WS.svg"
   version="1.1">
  <metadata
     id="metadata82">
    <rdf:RDF>
      <cc:Work
         rdf:about="">
        <dc:format>image/svg+xml</dc:format>
        <dc:type
           rdf:resource="http://purl.org/dc/dcmitype/StillImage" />
      </cc:Work>
    </rdf:RDF>
  </metadata>
  <sodipodi:namedview
     pagecolor="#ffffff"
     bordercolor="#666666"
     borderopacity="1"
     objecttolerance="10"
     gridtolerance="10"
     guidetolerance="10"
     inkscape:pageopacity="0"
     inkscape:pageshadow="2"
     inkscape:window-width="1440"
     inkscape:window-height="877"
     id="namedview69"
     showgrid="false"
     inkscape:zoom="9.152"
     inkscape:cx="50.167271"
     inkscape:cy="38.074331"
     inkscape:window-x="1432"
     inkscape:window-y="-8"
     inkscape:window-maximized="1"
     inkscape:current-layer="svg"
     inkscape:document-rotation="0" />
  <defs
     id="defs4">
    <style
       id="style6">path{fill-rule:evenodd}</style>
  </defs>
  <path
     inkscape:connector-curvature="0"
     id="NM"
     data-name="New Mexico"
     data-id="NM"
     d="m 432.77157,208.38248 0.25932,-6.73941 0.2593,-6.73942 0.2593,-6.73942 -8.29467,-0.25931 -57.28507,-2.59207 -57.54424,-3.62894 -130.64102,-11.40514 -8.03546,-0.77763 -1.03684,9.3315 -19.44063,200.62728 -1.81447,18.9222 -7.25784,76.46648 1.03686,0.25931 35.77075,3.36973 3.36972,-18.1446 6.48021,-5.18418 72.57834,6.48022 h 0.51842 l -6.48021,-12.70122 32.91945,2.33288 82.16905,4.66575 51.32326,2.33288 8.8131,-243.13745 1.81446,0.25931 0.2593,-6.99865 z"
     style="stroke-width:2.67051" />
  <path
     inkscape:connector-curvature="0"
     id="CO"
     data-name="Colorado"
     data-id="CO"
     d="m 503.48075,549.4009 1.00108,-49.05164 -12.01266,-0.50053 -61.06429,-2.25238 -6.00633,-0.25036 -5.00528,-0.25035 -74.32826,-4.75501 -49.55216,-4.00421 -61.81509,-6.00635 -6.00632,-0.75079 -0.75079,6.50688 -13.51422,130.38725 -4.75501,45.54797 -2.0021,19.77083 -0.50053,6.50685 7.75817,0.75079 126.1328,11.01158 55.55848,3.50372 55.30825,2.50262 8.00842,0.25037 5.00527,0.25035 10.51107,0.25034 5.00527,0.25037 15.76659,0.50054 h 4.00422 v -5.00529 l 2.75292,-132.3894 0.25034,-14.76553 v -4.75501 l 0.25037,-3.25342 z"
     style="stroke-width:2.57835" />
  <path
     inkscape:connector-curvature="0"
     id="AZ"
     data-name="Arizona"
     data-id="AZ"
     d="m 840.7871,435.90122 -86.90159,-8.21936 -46.70044,-5.29894 -66.59751,-8.56518 -6.71036,-0.82932 0.0153,0.51385 -9.82425,50.17771 -5.91672,-0.0816 -9.22864,-7.69738 -11.02208,9.84162 0.95608,40.85753 -3.85127,8.85724 0.0229,0.77076 0.008,0.25701 -0.32312,6.43818 9.70931,23.88322 8.28489,10.55402 -14.13563,8.90552 -5.33937,10.70148 -8.57763,22.88338 -4.59397,1.16502 0.29993,18.76259 8.13994,5.67262 -3.77498,11.42641 -9.23376,0.78851 v 0 l -5.09773,10.18 18.84139,11.01195 35.52063,18.48812 109.6067,54.08817 91.79833,8.58826 1.02766,-0.0305 4.94297,-76.00428 1.24144,-18.80838 13.36358,-199.42633 0.75305,-9.27954 -6.70283,-0.57239 z"
     style="stroke-width:2.64809" />
  <path
     inkscape:connector-curvature="0"
     id="NV"
     data-name="Nevada"
     data-id="NV"
     d="m 847.54891,75.038467 -35.88514,-142.367037 -17.78106,-71.37497 -1.59862,-7.11714 -6.41118,1.53877 -25.11586,5.68371 -63.20244,13.53324 -6.29392,1.24444 -6.29392,1.24442 -31.76396,6.10494 -57.38237,10.05359 -6.38248,1.03863 1.51245,8.61764 23.10108,130.793904 39.33826,24.53908 40.07292,23.979056 71.90393,44.67478 51.20341,31.14167 25.93912,14.93785 8.45013,4.90111 -0.26564,-0.61743 0.28239,-8.41421 -13.87293,-32.81219 5.77939,-11.51093 9.94824,3.28093 4.82216,-1.83066 -8.12234,-43.82294 -0.17709,-0.4116 -1.80444,-7.028615 z"
     style="stroke-width:2.30827"
     inkscape:transform-center-x="-43.324882"
     inkscape:transform-center-y="58.798058" />
  <path
     inkscape:connector-curvature="0"
     id="MT"
     data-name="Montana"
     data-id="MT"
     d="m 859.92702,205.04716 -76.89079,-5.11057 -55.98398,-5.34287 -55.75173,-6.50437 -34.61249,-4.64596 -55.28704,-8.59505 -27.64353,-4.64598 -61.79149,-11.84723 -6.50436,-1.39379 -9.98884,47.38893 4.41368,8.59506 3.48448,13.24101 -2.09069,1.85839 4.41368,12.07953 6.03977,5.11057 17.19009,28.80504 1.62608,4.87826 6.96896,-0.46458 -8.13045,38.09698 -3.25218,0.92918 -4.41368,12.77643 22.99758,1.62609 1.85839,10.68575 13.00872,31.82492 2.32298,1.85838 9.05964,18.58389 2.32296,-1.85837 19.28087,-0.2324 24.39129,2.55531 6.03978,-7.89817 7.20131,13.00871 1.39378,0.6969 0.23234,-1.39377 3.25224,-22.76527 79.44608,9.75653 63.41754,6.03976 33.45106,2.78761 59.70071,3.48447 3.01989,0.2324 h 0.69694 l 0.23234,-3.25218 0.69693,-16.02862 0.92919,-21.13917 0.23234,-5.34289 0.46459,-9.29193 3.71683,-72.94179 3.01989,-56.68086 0.23234,-9.29195 -4.41366,-0.23229 z"
     style="stroke-width:2.39328" />
  <path
     inkscape:connector-curvature="0"
     id="AK"
     data-name="Alaska"
     data-id="AK"
     d="m 78.366178,130.32458 -1.368549,0.5474 1.09485,0.27381 0.273814,-0.82113 z m 10.127152,1.64225 v 0 0.27381 z m -4.926727,-4.65304 v 0.82113 l 0.547422,-0.27381 -0.547422,-0.54742 z m -2.463368,-1.36852 v -0.27381 0 z m 5.200426,2.73708 v -0.54743 l -0.273802,0.27381 0.273802,0.27382 z m -0.547418,-0.54743 v -0.27381 h -0.547399 z m -213.491163,-179.825262 -0.27371,1.915969 0.54741,5.474125 -0.27368,-7.390094 z m -1.36853,-7.390073 0.2737,2.463368 0.27368,-0.821119 -0.5474,-1.642249 z m 214.859693,183.930875 0.273813,-1.64223 -1.094819,0.54738 0.821088,1.09485 z m 31.202577,13.41161 -0.27382,-0.27382 0.5474,1.09484 -0.27381,-0.82112 z m -20.254297,-9.57972 -3.010756,-2.73708 v 6.56896 z m 6.842677,6.02154 -0.27382,-1.91594 -4.653002,-0.27382 4.926742,2.18967 z m 16.42237,3.83189 -0.27381,0.54741 h 0.54743 l -0.27381,-0.54741 z m 1.09485,0.27381 h -0.54743 l 1.09482,0.2738 z m 3.28446,1.09484 h -0.27381 -0.27382 0.5474 z m -241.68295,-185.573113 1.09482,0.273813 0.82113,-0.273813 z m 235.66143,181.741203 -2.18967,-0.27382 0.82113,0.82114 1.36854,-0.54744 z m -250.44159,-203.090316 -3.83189,-1.642237 -0.2737,0.821118 4.1056,0.821119 z M 125.17,136.61995 l -0.54739,-0.27381 v 0.27381 z m 16.6961,3.28448 -10.67455,0.82113 -2.46337,1.09481 z m -293.4135,-249.89417 h -3.01077 l 0.54741,0.82113 z m 326.53201,262.48466 v -1.09481 h -0.5474 z m 14.23274,0.27381 0.54743,-0.54739 -0.54743,-0.54742 z m 10.67458,3.01079 0.5474,-0.27382 h -0.27381 l -0.27382,0.27382 z m -8.75861,-4.92672 -0.27381,-1.09482 h -0.54739 l 0.82112,1.09482 z m 18.33832,4.1056 -0.27381,0.27381 h 0.27381 z m -359.3768,-278.90705 -4.1056,0.54742 5.20042,4.653 z m 344.87037,274.80145 0.54742,-1.64225 h -0.27382 l -0.2738,1.64225 z m 46.25643,-4.10558 0.2738,-0.54743 -0.54742,-0.27382 0.27381,0.82112 z m -6.84268,-2.46338 -9.57973,8.48489 6.84267,-0.54739 7.93749,-6.29525 z m 17.24352,3.01077 -1.91596,-0.54739 1.36854,1.09481 z m 3.83189,0.27382 -3.01079,-0.82111 -0.5474,0.27382 3.55819,0.54738 z m -10.40085,-3.83189 h -3.01076 l 5.20043,1.36855 z m 12.59048,2.73706 -0.27381,-0.5474 -1.09481,0.27382 1.36851,0.27379 z m -8.21119,-3.28449 -1.09481,-0.54739 v 3.01075 z m 35.03446,6.84267 -0.27382,-0.2738 h -0.54743 l 0.82114,0.2738 z m 0.54742,-0.2738 v -0.27381 l -0.54742,-0.27381 0.54742,0.54742 z m -4.65303,-1.64226 0.54742,1.09483 v -0.27381 l -0.54742,-0.82112 z m 2.46336,0 -2.46336,-0.82111 3.01078,2.18967 z m 3.55818,-2.73705 v 0 0.2738 z m 32.57109,4.10561 -0.54739,-1.09485 h -0.27382 l 0.82112,1.09485 z m 294.50835,-18.33835 -0.54743,-0.54742 0.27381,0.54742 h 0.27381 z m -331.73244,8.48489 v -0.27381 l -0.2738,0.27381 z m 339.66992,-13.41162 0.82113,1.09482 h 0.54742 z m -299.16135,20.52802 -0.2738,0.2738 v 0.82112 l 0.2738,-1.09482 z m -33.93962,-4.92673 0.54743,-2.18967 h -0.27382 l -0.27381,2.18967 z m 348.97596,-21.89653 -2.46336,1.36854 2.18966,1.09482 0.27381,-2.46336 z m -344.04923,20.52798 -0.27381,-0.5474 z m -20.52799,-6.02154 -6.84268,1.36853 -6.02153,7.93749 z m 48.99346,10.40084 -1.64221,1.36855 1.64221,-0.27382 v -1.09484 z m 315.58376,-26.27583 -0.5474,-1.09482 -0.27381,0.54742 0.82112,0.5474 z m -341.85959,19.15947 -1.91594,-0.27381 1.91594,1.91594 v -1.64224 z m 323.79497,-15.60129 -0.54742,0.54742 0.54742,1.91594 z m -319.41566,15.3276 -0.8211,0.2738 1.09481,0.82112 -0.2738,-1.09482 z m 20.25431,5.74781 h -0.82112 l -0.54742,-0.5474 z m -22.44395,-5.74781 -1.36856,-0.82113 0.54743,0.82113 z m 18.33834,3.01075 -2.46338,0.82112 -1.64223,4.3793 z M 613.18895,121.2925 v 1.91594 l 1.09481,-1.36854 z m -329.54281,10.40083 2.18967,-0.5474 H 285.562 l -1.91594,0.5474 z m -2.73706,-1.64224 -0.54742,-0.5474 v 0.2738 l 0.54742,0.27382 z m 332.27987,-10.67456 -0.54744,-0.27381 -0.27381,0.82112 0.82112,-0.54743 z m -300.25621,16.4224 -0.5474,-0.27381 -0.54742,0.82113 1.09482,-0.54743 z m 297.51914,-15.87497 0.2738,-1.36855 -0.54742,-0.27381 0.27382,1.64224 z m -2.18967,-1.36855 -0.82112,1.09485 1.36855,0.2738 -0.54743,-1.36853 z m -283.83376,13.41164 -0.54742,-0.54743 h -0.27382 l 0.82112,0.54743 z m 283.01264,-18.33835 2.18966,0.82112 0.82113,-1.09483 -3.01079,0.27381 z m 3.28448,-1.91593 -0.82112,0.54739 1.36855,0.82112 z m -6.29524,1.64222 -0.54742,-1.09483 -0.54743,0.54742 z m 27.37066,-10.12713 -3.55819,10.12713 3.55819,-2.18964 z m -324.34237,21.07541 h -0.27381 v 0 z m 300.25616,-17.24353 -2.46334,2.46336 0.54741,2.73706 z m -254.82086,21.89652 v -1.09482 l -0.2738,0.54743 z m 251.81011,-24.63359 7.93748,12.04311 17.79094,11.22196 -4.10559,-9.57973 -16.96982,-14.50646 z m -262.75837,20.25428 -0.27379,-0.82112 -0.5474,0.27382 0.82112,0.5474 z m 272.0644,-24.907283 -1.09485,4.105613 1.91598,-1.36855 z m 5.74782,0 -0.2738,2.737063 2.46335,0.82113 -2.18965,-3.558193 z m -269.05363,21.349113 -1.36851,-0.27382 -1.36854,0.54743 2.73705,-0.27381 z m 28.19182,2.18966 -1.09486,1.91594 0.54743,-1.64225 0.54743,-0.2738 z m 4.10557,0.27381 -2.46336,0.27381 1.36854,1.64225 1.09482,-1.91595 z m -165.8662,-35.034463 2.73706,1.36856 -0.54739,-0.54743 z m 108.66152,27.096963 0.27382,-0.2738 z m 0.82111,-0.2738 h 0.27382 v -0.27381 z m 283.01268,-21.075413 1.36852,5.20043 2.73707,-1.64223 z m -275.6226,18.064623 0.27381,-0.27381 v 0 z m 263.8532,-15.874983 1.36855,12.590503 2.73706,-2.73707 z m 1.36855,-4.1056 6.29525,8.758603 -0.82112,-5.747813 z m -19.43318,2.18967 -1.64224,5.20042 2.18965,-3.55819 z m -218.9653,13.411613 -0.27381,-0.27382 z m 26.00214,0.54741 -0.54744,-0.82111 0.54744,1.09482 v -0.27382 z M 580.34413,90.363627 591.2924,108.42827 589.65017,96.111477 Z m -178.18302,9.57974 -0.82111,0.821123 1.36853,0.54741 z m -3.55819,0.547413 0.27382,-0.821113 h -1.09481 l 0.82111,0.821113 z m -2.73706,0 -7.11636,4.65301 -8.75862,11.49568 4.37931,4.65303 20.25429,-15.05389 z m 172.7089,-17.790923 -1.91595,-1.09485 v 1.64225 z m -174.35114,14.50644 0.27381,1.09483 1.91597,1.09484 -2.18966,-2.18967 z m 179.55156,-19.70687 -5.47412,2.73707 5.20039,1.64224 0.27382,-4.37931 z m -3.55818,0 -0.54743,-0.54742 -0.2738,0.54742 h 0.82111 z m 16.6961,-4.3793 -2.18966,-0.821121 -0.54741,1.642241 z m -11.7694,1.91594 -1.91594,-0.27381 v 0.54742 l 1.91594,-0.27381 z m 6.02154,-2.18967 11.22199,16.4224 -3.01076,-15.05385 z m -180.64637,17.79096 -6.56895,4.9267 3.01077,3.28449 8.75861,-6.56897 z m -74.44821,-10.40086 -0.27381,-0.27381 v 0.27381 z m -3.01075,-1.36855 -0.27382,-1.36852 v 0.5474 z m 84.02792,3.55819 -0.54741,0.2738 v 0.27382 l 0.54741,-0.54742 z m -2.73704,-0.5474 h -0.27382 l -0.54741,0.82112 0.82113,-0.82112 z m 6.56893,-2.18967 -0.82112,-0.54742 v 0.27381 l 0.82112,0.27381 z m 2.18968,-0.27381 -0.82113,-0.54742 v 0.27381 l 0.82113,0.27381 z m -3.55819,-0.82112 h -1.09485 v 0.27381 z m 54.46762,-5.47413 0.2738,-0.821115 -0.54742,0.547385 0.27382,0.27382 z m 16.69609,-8.758607 3.28447,-4.105607 -1.09482,0.821119 z m -33.3922,-0.54742 1.09483,-0.82113 0.2738,-1.094818 -1.36851,1.915948 z m 0,-3.010767 -1.09485,0.821099 1.91597,-0.5474 -0.82112,-0.273813 z m -44.88791,0 -0.2738,-1.09485 h -0.27382 l 0.54739,1.09485 z m 43.79306,-0.273813 -1.09482,1.094829 -0.54739,1.094838 z m 30.10775,-3.284478 h 0.27382 0.27381 -0.5474 z m 1.36852,0 -0.54739,-0.273812 v 0.273812 z m -3.28446,-0.273812 0.27382,0.273812 V 56.97111 Z m -22.44395,1.642238 1.09482,-1.094819 -1.36852,1.094819 h 0.2738 z m 16.6961,-3.284487 z m -13.41162,0.821129 -6.56897,10.674551 8.48491,-9.853431 z m -8.48491,1.368539 -0.82112,-1.094819 -0.27381,0.5474 1.09481,0.547419 z m 20.80171,-2.463368 -0.54742,-0.273802 0.27382,0.273802 h 0.27379 z m 7.11637,0.547429 v -1.915968 l -0.54743,0.821119 z M 273.7927,34.52718 l -13.13791,-0.547421 9.03231,9.579732 z m 186.94165,19.433162 0.54741,1.915949 1.36852,-2.189669 -1.91593,0.273813 z m -10.9483,-0.273803 -0.82112,6.021544 1.36855,-3.831885 z M 212.20873,8.2512613 l 0.27381,-1.09485 v 0 z M 447.049,49.854653 l 0.27381,0.82112 0.54739,-0.273815 -0.82113,-0.547419 z m -1.36853,1.094819 -0.54742,-1.642239 -0.82112,0.54742 z m 12.8642,-3.284458 v -1.094849 l -0.82112,0.54742 z m -12.3168,-1.642248 v 2.737067 L 447.049,46.843896 Z M 425.4262,42.738279 v -0.821119 0 z M 282.55132,8.7986493 l 0.5474,-1.642238 -0.27382,0.273813 -0.27381,1.368508 z m 0.82112,-2.737057 -0.2738,-0.273814 -0.27382,0.273814 h 0.54743 z m 12.04308,-6.56894395 v -0.273814 0 z m 0,-1.09484905 -0.27381,-0.5474 v 0 z m 4.92672,-7.116374 v 0 h -0.2738 z m 1.64226,0.54743 -1.09482,-0.54743 v 0.273813 l 1.09482,0.273813 z m -1.64226,-1.094818 v -0.547431 l -0.54741,0.547431 z m -43.79306,-12.8642303 -0.54739,-1.368539 -0.27381,-0.821098 0.82112,2.189637 z m 4.10561,-4.926726 h 0.27381 l 0.27382,0.273812 -0.5474,-0.273812 z m -7.39009,-1.368518 -2.18964,-2.737068 1.64224,2.189647 z m -4.37929,-4.379306 H 248.338 l 0.82113,0.273813 -0.27381,-0.273813 z m 0.5474,-3.010788 z m -0.5474,-0.273813 v 0 l 0.5474,0.273813 z m 72.53225,21.622831 -3.01076,0.273813 1.64224,0.821119 1.36852,-1.094819 z m -75.54301,-26.549557 -2.18967,8.211213 6.84266,1.094819 9.03233,9.306043 5.47412,-2.46337 z m 47.89865,3.284487 v -0.5474 0.273814 0.273803 z m -13.68534,-29.012904 -0.54743,-0.273816 0.27381,0.273816 h 0.27381 z m 7.9375,2.737057 0.82112,-0.273803 h -0.27382 l -0.54743,0.273803 z m 5.47412,-1.642242 h 0.82112 l 2.46336,-1.094815 z m 9.85345,-3.010759 0.5474,-0.547422 -0.82112,0.547422 h 0.2738 z m 1.36852,-0.273805 1.64225,-0.821119 -1.36856,0.273795 -0.2738,0.547433 z m 4.1056,-1.642258 -1.36853,0.273816 v 0.273816 l 1.36853,-0.547403 z m 1.64226,-0.273795 z m 174.07739,-49.267201 -1.09481,-0.82112 -1.91593,-0.82112 z m -143.42225,-6.02154 2.46333,-3.28446 -1.36851,1.09483 z m 3.28446,-3.83189 1.09485,-1.64224 -0.54742,0.54742 z m 1.64225,-2.18963 1.91594,-1.64224 -1.09482,0.54738 z m 86.21758,0.54739 1.36854,1.36854 h 0.82112 z m -44.06677,-18.06462 -11.22198,9.30601 -6.84263,-1.91595 -15.87499,9.03231 -3.0108,-1.91593 -18.06461,20.25429 -18.33835,4.1056 1.64222,9.85343 8.21121,11.221981 15.32757,14.780157 -2.46335,5.74783 11.49568,4.926737 -6.02155,1.094819 -7.39009,-5.74783 3.83191,8.484887 -4.92674,3.010788 -15.60128,-14.232737 -12.31679,2.18964 -21.07541,7.93749 9.57973,10.67455 -1.36852,6.568975 6.29524,7.663772 20.8017,8.211214 15.05388,-7.663793 2.46334,5.747856 -4.10559,17.243493 h -12.59052 l -14.78013,6.5689753 -0.82112,-4.6530373 -7.66379,3.0107983 -3.5582,7.93748205 L 282.2776,9.3457693 V 23.304807 l 4.92673,2.189636 -3.83189,11.769402 16.42239,14.232736 10.40085,-4.379306 -2.18965,17.517236 3.01077,3.831876 12.59053,2.737066 4.65301,5.200424 10.94824,0.82112 5.20043,5.47416 11.22197,-3.28449 -5.20042,7.11637 -4.10561,14.506443 -33.39221,21.62283 -4.37931,4.37931 -6.29524,-2.46336 -10.12712,2.46336 -14.50648,9.57973 22.71765,-6.56897 3.28449,4.92673 29.28661,-9.57974 0.82112,3.83192 11.49566,-11.49571 24.08621,-16.6961 1.91594,1.09485 21.07541,-16.696113 -5.47412,-6.56897 7.11636,-11.769379 18.61204,-22.170251 14.23275,-2.737068 4.37929,3.010787 -17.24349,4.926707 -4.65303,18.338344 0.54743,9.85346 6.02154,-0.54742 29.0129,-17.517233 2.18965,-6.568965 -2.46334,-10.127131 8.75858,2.189638 6.29528,-4.105586 18.06462,10.94826 -1.36852,3.010789 41.05597,5.200425 9.57974,-3.010789 2.73709,4.105607 35.58185,16.969805 6.02154,-3.55819 0.54743,-20.527987 4.65301,9.30601 22.99135,16.696107 1.91594,6.84267 19.98058,11.22198 5.20044,14.506433 4.92672,-11.22194 10.12713,19.70686 6.84268,-11.22198 -5.47413,-13.959033 -21.07541,-2.18965 L 589.65017,63.539681 572.13293,50.675462 558.72132,63.81338 h -7.93749 l -18.33835,-12.043099 -18.06465,-0.821119 -25.72841,-162.308042 -4.37931,-7.66375 -10.40085,-6.29529 -15.60129,3.01079 -12.0431,-2.46337 -15.32755,-6.02154 -16.14872,1.09482 -4.10557,-7.66375 -12.86423,-1.91598 -2.18962,-4.65301 -5.74787,6.56899 z"
     style="stroke-width:2.81989" />
</svg>
